<svg xmlns="http://www.w3.org/2000/svg" xmlns:xlink="http://www.w3.org/1999/xlink" width="305" height="152.5" viewBox="0 0 305 152.5"><defs><style>.a{fill:none;}.b{clip-path:url(#a);}.c{fill:#8d1832;}.d{fill:#fff;}</style><clipPath id="a"><rect class="a" x="-26" y="-96" width="360" height="360"/></clipPath></defs><title>home-care-assistance-logo-main</title><g class="b"><path class="c" d="M295.8,15.7C249.5,6,211.5,0,153,0h-1C93.6,0,55.5,6,9.3,15.7L0,17.7V134.8l9.3,2c46.4,9.8,84.5,15.7,143.1,15.7h0.2c58.7,0,96.7-5.9,143.1-15.7l9.3-2V17.7ZM300.3,131l-5.9,1.2c-45.9,9.7-83.7,15.6-141.9,15.6s-96-5.9-141.9-15.6L4.7,131V21.5l5.8-1.2c45.9-9.7,83.7-15.6,142-15.6s96.1,5.9,142,15.6l5.8,1.2V131Z"/><path class="c" d="M152.5,9.6C96.6,9.6,55.4,15.5,9.7,25.1V127.4c45.8,9.7,86.9,15.5,142.9,15.5s97.1-5.8,142.9-15.5V25.1C249.6,15.5,208.4,9.6,152.5,9.6"/><path class="d" d="M77.3,101.6l-1.2-3.4H70.5l-1.2,3.4H67.4l4.9-13.1h2l4.9,13.1H77.3Zm-1.7-4.9-2.3-6.3L71,96.7h4.5Z"/><path class="d" d="M88.7,98.6a4.8,4.8,0,0,0,3.4,1.8c1.7,0,2.9-.9,2.9-2.2s-0.8-2.1-3.1-2.6-4.1-1.9-4.1-3.7,1.7-3.6,4.2-3.6A5.6,5.6,0,0,1,96.2,90l-1,1.3a4.3,4.3,0,0,0-3-1.4c-1.4,0-2.5.8-2.5,1.9s1,2,3,2.4,4.2,2,4.2,4-1.8,3.7-4.6,3.7a6.1,6.1,0,0,1-4.6-2.1Z"/><path class="d" d="M106.7,98.6a4.8,4.8,0,0,0,3.4,1.8c1.7,0,2.9-.9,2.9-2.2s-0.8-2.1-3.1-2.6-4.1-1.9-4.1-3.7,1.7-3.6,4.2-3.6a5.6,5.6,0,0,1,4.1,1.7l-1.1,1.3a4.3,4.3,0,0,0-3-1.4c-1.4,0-2.5.8-2.5,1.9s1,2,3,2.4,4.2,2,4.2,4-1.8,3.7-4.6,3.7a6.1,6.1,0,0,1-4.6-2.1Z"/><rect class="d" x="124.4" y="88.5" width="1.8" height="13.12"/><path class="d" d="M136.9,98.6a4.8,4.8,0,0,0,3.4,1.8c1.7,0,2.9-.9,2.9-2.2s-0.8-2.1-3.1-2.6-4.1-1.9-4.1-3.7,1.7-3.6,4.2-3.6a5.6,5.6,0,0,1,4.1,1.7l-1.1,1.3a4.3,4.3,0,0,0-3-1.4c-1.4,0-2.5.8-2.5,1.9s1,2,3,2.4,4.2,2,4.2,4-1.8,3.7-4.6,3.7a6.1,6.1,0,0,1-4.6-2.1Z"/><polygon class="d" points="157 90 153.4 90 153.4 88.5 162.5 88.5 162.5 90 158.8 90 158.8 101.6 157 101.6 157 90"/><path class="d" d="M179,101.6l-1.2-3.4h-5.6l-1.2,3.4h-1.9L174,88.5h2l4.9,13.1H179Zm-1.7-4.9L175,90.5l-2.3,6.3h4.5Z"/><polygon class="d" points="189.9 88.5 191.6 88.5 198.2 98.6 198.2 88.5 199.9 88.5 199.9 101.6 198.2 101.6 191.6 91.6 191.6 101.6 189.9 101.6 189.9 88.5"/><path class="d" d="M219.8,99l0.9,1.3a7,7,0,0,1-4.5,1.6,6.8,6.8,0,1,1,0-13.6,7,7,0,0,1,4.3,1.5l-0.9,1.3a5.8,5.8,0,0,0-3.4-1.2,5.2,5.2,0,0,0,0,10.5,5.7,5.7,0,0,0,3.6-1.3"/><polygon class="d" points="229.9 88.5 237.6 88.5 237.6 90 231.7 90 231.7 94.3 237.2 94.3 237.2 95.8 231.7 95.8 231.7 100.1 237.8 100.1 237.8 101.6 229.9 101.6 229.9 88.5"/><path class="d" d="M72.7,72.5H62.1V71a5.2,5.2,0,0,0,2-.3,1.4,1.4,0,0,0,.9-0.8,4.4,4.4,0,0,0,.2-1.4V62.1h-10v6.4a2.8,2.8,0,0,0,.6,1.9,3.6,3.6,0,0,0,2.5.6v1.5H47.6V71a5.2,5.2,0,0,0,2-.3,1.5,1.5,0,0,0,.9-0.8,4.2,4.2,0,0,0,.2-1.4V55a4.2,4.2,0,0,0-.2-1.4,1.5,1.5,0,0,0-.8-0.8,5,5,0,0,0-2-.3V51H58.2v1.5a3.7,3.7,0,0,0-2.5.6,2.8,2.8,0,0,0-.6,1.9v5.3h10V55a4.6,4.6,0,0,0-.2-1.4,1.4,1.4,0,0,0-.8-0.8,5.1,5.1,0,0,0-2-.3V51H72.7v1.5a5,5,0,0,0-2,.3,1.5,1.5,0,0,0-.8.8,4.4,4.4,0,0,0-.2,1.4V68.5a4.6,4.6,0,0,0,.2,1.4,1.5,1.5,0,0,0,.8.8,4.9,4.9,0,0,0,2,.3v1.5Z"/><path class="d" d="M98.3,61.8a11.3,11.3,0,0,1-1.4,5.5,10.4,10.4,0,0,1-4.1,4.1,12.9,12.9,0,0,1-6.4,1.5,13.6,13.6,0,0,1-5.3-1,10.4,10.4,0,0,1-3.8-2.6,11,11,0,0,1-2.2-3.6,11.6,11.6,0,0,1-.7-3.9,11.4,11.4,0,0,1,1.3-5.4,10.2,10.2,0,0,1,4-4.1,12.8,12.8,0,0,1,6.5-1.6,13.7,13.7,0,0,1,5.8,1.1,10.1,10.1,0,0,1,3.8,2.8,11,11,0,0,1,1.9,3.6,12.1,12.1,0,0,1,.6,3.6m-5.1-.1a18.2,18.2,0,0,0-.3-3.4,9,9,0,0,0-1.1-2.9,5.7,5.7,0,0,0-2.1-2.1,6.6,6.6,0,0,0-3.3-.8,6.2,6.2,0,0,0-4.2,1.4A6.8,6.8,0,0,0,80,57.2a17.1,17.1,0,0,0-.5,4.4,23.1,23.1,0,0,0,.2,2.8,10.5,10.5,0,0,0,.8,3A6.1,6.1,0,0,0,82.6,70a6.3,6.3,0,0,0,3.8,1,6.1,6.1,0,0,0,3.7-1.1,6.3,6.3,0,0,0,2.1-2.6,10.8,10.8,0,0,0,.8-3,22.8,22.8,0,0,0,.2-2.7"/><path class="d" d="M129.8,72.5H119V71a5.6,5.6,0,0,0,2-.3,1.4,1.4,0,0,0,.8-0.8,4.3,4.3,0,0,0,.2-1.4V55L114,72.5h-1L104.8,55V67.8a12.5,12.5,0,0,0,.1,1.6,1.9,1.9,0,0,0,.4.9,1.7,1.7,0,0,0,.9.6l1.8,0.2v1.5H100V71l1.8-.2a1.7,1.7,0,0,0,.9-0.6,1.8,1.8,0,0,0,.3-0.9,14.1,14.1,0,0,0,.1-1.5V55.7a9.5,9.5,0,0,0-.1-2,1.3,1.3,0,0,0-.8-0.9,5.4,5.4,0,0,0-2.2-.3V51h7.8L115,66.2,122.1,51h7.7v1.5a3.8,3.8,0,0,0-2.6.6,2.7,2.7,0,0,0-.6,2V68.5a4.3,4.3,0,0,0,.2,1.4,1.5,1.5,0,0,0,.9.8,5.5,5.5,0,0,0,2.1.3v1.5Z"/><path class="d" d="M151.9,65.4l-0.2,7.1H132.6V71a3.8,3.8,0,0,0,2.5-.6,2.7,2.7,0,0,0,.6-2V55a4.5,4.5,0,0,0-.2-1.4,1.4,1.4,0,0,0-.9-0.8,5.5,5.5,0,0,0-2.1-.3V51h17.8l0.3,5.6h-1.5a7.4,7.4,0,0,0-1.1-2.6,2.6,2.6,0,0,0-1.4-1l-2.4-.2h-4v7.6h2.2l1.7-.2a1.3,1.3,0,0,0,.8-0.8,6.1,6.1,0,0,0,.3-1.7h1.5v7.1h-1.5a5.2,5.2,0,0,0-.3-1.7,1.3,1.3,0,0,0-.8-0.8l-1.7-.2h-2.2v5q0,1.3.1,1.9a2,2,0,0,0,.3,1,1.6,1.6,0,0,0,.9.6l1.8,0.2H145l2.1-.3A4,4,0,0,0,149,69a7.5,7.5,0,0,0,1.3-3.6h1.5Z"/><path class="d" d="M185.7,72.3h-1.5a7.1,7.1,0,0,0-1.1-2.4,12.5,12.5,0,0,1-2.8,2.2,8.3,8.3,0,0,1-4.2.9,10.7,10.7,0,0,1-5.4-1.4,10.5,10.5,0,0,1-3.9-3.9,11.1,11.1,0,0,1-1.5-5.7,11.7,11.7,0,0,1,.8-4.3,10.9,10.9,0,0,1,2.3-3.6,10.7,10.7,0,0,1,3.5-2.4,11.2,11.2,0,0,1,4.5-.9,9,9,0,0,1,6.6,2.6,10.1,10.1,0,0,0,.7-2h1.4l0.3,7.9h-1.5a9.7,9.7,0,0,0-1.5-3.6,7.7,7.7,0,0,0-2.6-2.4,6.2,6.2,0,0,0-3.1-.8,5.6,5.6,0,0,0-3.2,1,6.4,6.4,0,0,0-2.3,3,13.6,13.6,0,0,0-.8,5,15.1,15.1,0,0,0,.7,4.9,7.7,7.7,0,0,0,1.7,3,5.6,5.6,0,0,0,2,1.4,5.8,5.8,0,0,0,1.9.4,6.2,6.2,0,0,0,3.5-1,8.7,8.7,0,0,0,2.6-2.6,9.8,9.8,0,0,0,1.3-3.2h1.5v8.1Z"/><path class="d" d="M209.9,72.5H199.8V71l1.9-.2a0.8,0.8,0,0,0,.6-0.9,2.7,2.7,0,0,0-.2-1l-1-2.5h-7l-0.5,1.4a5.6,5.6,0,0,0-.4,1.7,1.1,1.1,0,0,0,.7,1.2l1.7,0.3v1.5h-7.4V71a3.1,3.1,0,0,0,1.5-.3,3.3,3.3,0,0,0,1.2-1.3,17,17,0,0,0,1.2-2.6l6.2-16.2h1.5l6.5,16.7,1,2.4a2.4,2.4,0,0,0,.9,1,3.3,3.3,0,0,0,1.6.3v1.5Zm-9.4-7.5-3-7.5-2.8,7.5h5.8Z"/><path class="d" d="M235.7,72.5h-5.7l-0.8-1-1-1.6-0.9-1.5L225.8,66a20.2,20.2,0,0,0-1.5-2.2,2.2,2.2,0,0,0-1.1-.8l-2.2-.2h-0.8v5.6a4.4,4.4,0,0,0,.2,1.4,1.4,1.4,0,0,0,.9.8,5.7,5.7,0,0,0,2,.3v1.5H212.5V71a3.8,3.8,0,0,0,2.5-.6,2.7,2.7,0,0,0,.6-2V54.9a2.8,2.8,0,0,0-.5-2,3.7,3.7,0,0,0-2.5-.6V50.9l5-.2h4.3l3,0.2,2.2,0.4a7.5,7.5,0,0,1,2.3,1,5.5,5.5,0,0,1,1.7,1.8,5.1,5.1,0,0,1,.7,2.6,4.9,4.9,0,0,1-.5,2.1,4.8,4.8,0,0,1-1.5,1.8,7.8,7.8,0,0,1-2.7,1.3,7.1,7.1,0,0,1,2,1.7q0.8,1,2.5,3.7l1.6,2.3a4.1,4.1,0,0,0,1.2,1.1l1.4,0.4v1.5Zm-8.9-15.7q0-2.6-1.6-3.4a8.6,8.6,0,0,0-4.1-.8h-1v8.6h1a9.3,9.3,0,0,0,4-.8q1.6-.8,1.6-3.6"/><path class="d" d="M257.5,65.4l-0.2,7.1H238.2V71a3.8,3.8,0,0,0,2.5-.6,2.7,2.7,0,0,0,.6-2V55a4.5,4.5,0,0,0-.2-1.4,1.4,1.4,0,0,0-.9-0.8,5.5,5.5,0,0,0-2.1-.3V51H256l0.3,5.6h-1.5a7.4,7.4,0,0,0-1.1-2.6,2.6,2.6,0,0,0-1.4-1l-2.4-.2h-4v7.6H248l1.7-.2a1.3,1.3,0,0,0,.8-0.8,6.1,6.1,0,0,0,.3-1.7h1.5v7.1h-1.5a5.2,5.2,0,0,0-.3-1.7,1.3,1.3,0,0,0-.8-0.8l-1.7-.2h-2.2v5q0,1.3.1,1.9a2,2,0,0,0,.3,1,1.6,1.6,0,0,0,.9.6l1.8,0.2h1.7l2.1-.3a4.1,4.1,0,0,0,1.9-1.4,7.5,7.5,0,0,0,1.3-3.6h1.5Z"/></g></svg>