<svg width="208" height="57" viewBox="0 0 208 57" fill="none" xmlns="http://www.w3.org/2000/svg">
<g clip-path="url(#clip0_96_385)">
<path d="M57.3698 28.5C57.3698 43.8295 45.1834 56.3382 29.9096 56.972C29.7121 56.9804 29.506 56.986 29.3 56.9944C29.094 57.0028 28.8908 57.0028 28.6848 57.0028C28.4788 57.0028 28.2756 57.0028 28.0695 56.9944C27.8635 56.9888 27.6603 56.9804 27.4599 56.972C17.6725 56.4784 9.44857 50.1161 6.26229 41.362C5.35071 38.8524 4.854 36.1437 4.854 33.3257C4.854 27.5102 6.9622 22.1798 10.473 18.0607C14.6414 13.1452 20.791 9.94023 27.7055 9.66544C17.6781 10.173 9.69975 18.414 9.69975 28.5028C9.69975 31.3657 10.3432 34.08 11.489 36.5111C11.4975 36.5251 11.4975 36.5335 11.5116 36.5475C11.6047 36.7522 11.7092 36.9541 11.8164 37.1532C11.839 37.1896 11.8531 37.2233 11.8728 37.2597C12.1127 37.7308 12.3837 38.1879 12.6715 38.6309C12.7647 38.7851 12.8634 38.9337 12.9679 39.0795C13.0751 39.2338 13.1739 39.388 13.2924 39.545C16.9811 44.9035 22.6001 48.3132 28.6791 49.3955C34.0216 50.3517 39.7281 49.5077 44.794 46.5971C47.2578 45.1839 49.3744 43.3977 51.0988 41.3592C57.0734 34.3267 58.5297 24.2239 54.254 15.624C56.2437 19.4991 57.3613 23.8734 57.3613 28.5056L57.3698 28.5Z" fill="url(#paint0_linear_96_385)"/>
<path d="M51.1049 41.3536C49.3777 43.3921 47.261 45.1783 44.8 46.5915C39.7313 49.5021 34.0276 50.3461 28.6852 49.3899C22.6061 48.3076 16.9871 44.8979 13.2985 39.5394C16.7444 44.2726 22.3578 47.3514 28.6852 47.3514C35.0126 47.3514 40.6457 44.2586 44.0917 39.503C44.213 39.3487 44.3174 39.1945 44.4162 39.0375C44.5376 38.8692 44.6505 38.687 44.7549 38.5103C44.8819 38.3141 45.0032 38.1178 45.1161 37.9187C45.2516 37.686 45.3842 37.4532 45.5056 37.2149C45.6128 37.0242 45.7116 36.8363 45.8019 36.6373C48.8104 30.6591 49.0362 23.9463 46.8857 18.0382C45.0456 12.9686 41.4642 8.48775 36.3898 5.57718C33.9345 4.16396 31.3211 3.24144 28.6824 2.77037C19.6174 1.16086 10.1207 4.90142 4.75 12.8059C9.87232 5.09209 18.6776 0 28.6852 0C38.6928 0 48.0569 5.41455 53.103 13.5434C53.2526 13.7761 53.3852 14.0089 53.5263 14.2472C53.6618 14.4799 53.7944 14.7127 53.9158 14.951C54.0371 15.1697 54.15 15.394 54.2629 15.6184C58.5386 24.2183 57.0795 34.3239 51.1077 41.3536H51.1049Z" fill="url(#paint1_linear_96_385)"/>
<path d="M45.8045 36.6428C46.9927 34.1753 47.6587 31.419 47.6587 28.5C47.6587 18.4083 39.6832 10.1673 29.6615 9.66262C29.3369 9.6486 29.0095 9.64019 28.685 9.64019C28.3604 9.64019 28.0331 9.6486 27.7085 9.66262C20.7941 9.93742 14.6445 13.1424 10.4761 18.0578C6.96522 22.1797 4.85703 27.5074 4.85703 33.3229C4.85703 36.1437 5.35374 38.8496 6.26532 41.3592C9.44877 50.1133 17.6755 56.4784 27.463 56.9691C12.1807 56.3382 0 43.8295 0 28.5C0 23.5986 1.2446 18.9776 3.44592 14.951C3.57292 14.7127 3.70839 14.4799 3.84103 14.2472C3.99625 13.9808 4.15148 13.72 4.31517 13.4593C4.45628 13.2349 4.59739 13.0162 4.74696 12.8059C10.1205 4.90141 19.6172 1.16085 28.685 2.77877C31.3238 3.24984 33.9371 4.17237 36.3924 5.58559C41.4668 8.49616 45.0482 12.977 46.8883 18.0466C49.0388 23.9547 48.813 30.6675 45.8045 36.6457V36.6428Z" fill="url(#paint2_linear_96_385)"/>
<path d="M90.9995 24.6809V16.9306C90.9995 11.9787 88.5611 7.25398 80.0831 7.25398C75.9204 7.25398 72.5168 8.21576 70.4368 9.3626L71.7068 13.1228C73.5356 12.1133 76.4284 11.3338 79.07 11.3338C83.9947 11.3338 84.5027 14.0397 84.5027 15.1865V15.509C74.2468 15.4641 68.6108 18.4448 68.6108 24.0388C68.6108 27.2494 71.4528 30.6871 76.9364 30.6871C80.4895 30.6871 83.3343 29.358 84.9091 27.5691H85.0615L85.5187 30.1375H91.4087C91.1547 28.8084 91.0023 26.7895 91.0023 24.6809H90.9995ZM84.7031 22.0199C84.7031 22.3872 84.6523 22.8471 84.4999 23.2593C83.8395 24.8632 81.9091 26.5148 79.0163 26.5148C76.7812 26.5148 75.1584 25.4604 75.1584 23.3967C75.1584 20.1412 79.5243 19.2243 84.7031 19.2692V22.0199Z" fill="#4B08A1"/>
<path d="M134.885 29.4057L133.971 25.0959C132.599 25.5558 130.824 26.0577 128.284 26.0577C123.715 26.0577 119.958 23.4892 119.958 18.9047C119.907 14.822 123.054 11.7965 128.236 11.7965C130.827 11.7965 132.551 12.2563 133.669 12.7583L134.888 8.40082C133.211 7.7587 130.623 7.25398 128.033 7.25398C118.64 7.25398 113.258 12.5283 113.258 19.2243C113.258 25.9203 118.589 30.6899 126.969 30.6899C130.522 30.6899 133.417 30.0029 134.891 29.4057H134.885Z" fill="#4B08A1"/>
<path d="M161.115 24.7622V17.0119C161.115 12.0601 158.676 7.3353 150.198 7.3353C146.036 7.3353 142.632 8.29707 140.549 9.44392L141.819 13.2041C143.648 12.1947 146.541 11.4151 149.182 11.4151C154.107 11.4151 154.615 14.121 154.615 15.2679V15.5903C144.359 15.5455 138.723 18.5261 138.723 24.1201C138.723 27.3307 141.565 30.7684 147.049 30.7684C150.602 30.7684 153.447 29.4393 155.021 27.6504H155.174L155.631 30.2189H161.521C161.267 28.8898 161.115 26.8709 161.115 24.7622ZM154.818 22.1012C154.818 22.4686 154.767 22.9284 154.615 23.3406C153.955 24.9445 152.024 26.5961 149.131 26.5961C146.896 26.5961 145.274 25.5418 145.274 23.478C145.274 20.2225 149.639 19.3056 154.818 19.3505V22.1012Z" fill="#4B08A1"/>
<path d="M208 18.3523C208 13.8126 205.409 7.25398 196.423 7.25398C187.438 7.25398 183.374 13.5378 183.374 19.2692C183.374 26.1026 188.502 30.6871 197.081 30.6871C201.091 30.6871 204.19 30.0001 206.524 29.1281L205.559 25.138C203.377 25.825 201.142 26.24 197.942 26.24C193.525 26.24 189.769 24.3585 189.565 20.5983H207.743C207.896 20.1861 207.997 19.314 207.997 18.3523H208ZM189.568 16.5184C189.873 14.3622 191.702 11.1992 196.017 11.1992C200.942 11.1992 201.856 14.9594 201.856 16.5184H189.568Z" fill="#4B08A1"/>
<path d="M177.963 7.5428C177.884 7.56523 177.808 7.58766 177.729 7.6129C177.667 7.63252 177.61 7.65215 177.551 7.67178C177.438 7.71104 177.323 7.75029 177.21 7.79235C175.993 8.25502 175.381 8.78778 175.381 8.78778H175.384C174.246 9.62337 173.287 10.8039 172.694 12.3433H172.491L172.288 7.80357H166.855V30.1403H173.405V18.6299C173.405 18.1251 173.456 17.5756 173.507 17.0708C174.066 14.4575 176.199 12.6685 179.549 12.6685C179.549 12.6685 179.902 12.6797 180.472 12.7386C181.206 11.0702 182.211 9.52523 183.458 8.20454C183.675 7.97461 183.912 7.74188 184.166 7.50634C181.491 6.9147 179.419 7.13341 177.963 7.5484V7.5428Z" fill="#4B08A1"/>
<path d="M107.843 7.54279C107.763 7.56522 107.687 7.58766 107.608 7.61289C107.546 7.63252 107.487 7.65215 107.428 7.67178C107.315 7.71103 107.202 7.75029 107.089 7.79235C105.873 8.25501 105.257 8.78777 105.257 8.78777H105.26C104.123 9.62337 103.163 10.8039 102.571 12.3433H102.367L102.164 7.80356H96.7314V30.1403H103.282V18.6299C103.282 18.1251 103.333 17.5756 103.383 17.0708C103.942 14.4575 106.076 12.6685 109.426 12.6685C109.426 12.6685 109.773 12.6797 110.332 12.7358C111.238 10.7478 112.57 8.99808 114.257 7.55401C111.478 6.90067 109.333 7.11939 107.837 7.5456L107.843 7.54279Z" fill="#4B08A1"/>
<path d="M101.357 41.4237H99.8923L96.7766 49.6002L96.7314 49.7152H98.0805L99.0259 47.1243H102.167L103.149 49.7152H104.535L101.374 41.477L101.351 41.4209L101.357 41.4237ZM100.587 42.6687C100.598 42.7051 100.609 42.7388 100.62 42.7752C100.719 43.0893 100.821 43.4117 100.965 43.7931L101.865 46.112H99.3392L100.231 43.7679C100.355 43.4258 100.468 43.0781 100.589 42.6687H100.587Z" fill="#808080"/>
<path d="M111.864 46.3055H113.707V48.5151C113.382 48.6553 112.809 48.7366 112.121 48.7366C110.015 48.7366 108.652 47.4888 108.652 45.5568C108.652 43.6249 110.055 42.4023 112.228 42.4023C113.244 42.4023 113.865 42.6098 114.294 42.7921L114.381 42.8285L114.712 41.7994L114.644 41.7686C114.218 41.5695 113.337 41.3396 112.268 41.3396C108.867 41.3396 107.317 43.552 107.317 45.6073C107.317 46.799 107.76 47.8926 108.534 48.6104C109.389 49.4123 110.532 49.8021 112.025 49.8021C113.419 49.8021 114.511 49.4432 114.918 49.2918L114.974 49.2693V45.282H111.867V46.3083L111.864 46.3055Z" fill="#808080"/>
<path d="M120.229 45.9213H123.768V44.8586H120.229V42.4864H123.977V41.4237H118.951V49.7152H124.169V48.6525H120.229V45.9213Z" fill="#808080"/>
<path d="M130.491 41.3508C129.61 41.3508 128.715 41.4125 127.905 41.5331L127.832 41.5443V49.6955L127.911 49.704C128.58 49.7684 129.305 49.8021 130.126 49.8021C131.91 49.8021 133.381 49.3394 134.261 48.501C135.085 47.7075 135.537 46.5943 135.537 45.3661C135.537 44.138 135.142 43.2744 134.332 42.5313C133.479 41.749 132.187 41.3508 130.491 41.3508ZM134.199 45.4138C134.199 46.3728 133.894 47.1803 133.318 47.7524C132.658 48.4057 131.631 48.7506 130.352 48.7506C129.87 48.7534 129.424 48.7506 129.108 48.7141V42.4976C129.41 42.4472 129.887 42.3911 130.524 42.3911C131.82 42.3911 132.799 42.7107 133.431 43.3445C133.945 43.8576 134.205 44.5558 134.199 45.4166V45.4138Z" fill="#808080"/>
<path d="M148.691 42.3406C149.377 42.3406 150.08 42.4864 150.568 42.7304L150.658 42.7752L150.991 41.7293L150.926 41.6957C150.729 41.5975 149.978 41.2779 148.643 41.2779C145.807 41.2779 143.826 43.0669 143.826 45.6297C143.826 48.1926 145.612 49.861 148.375 49.861C149.58 49.861 150.489 49.617 150.901 49.4067L150.963 49.3759L150.686 48.3524L150.593 48.3973C150.094 48.6328 149.352 48.7758 148.607 48.7758C146.515 48.7758 145.163 47.5365 145.163 45.6213C145.163 43.5996 146.515 42.3434 148.691 42.3434V42.3406Z" fill="#808080"/>
<path d="M158.589 41.4237H157.124L154.008 49.6002L153.963 49.7152H155.312L156.257 47.1243H159.398L160.381 49.7152H161.766L158.605 41.477L158.583 41.4209L158.589 41.4237ZM157.818 42.6687C157.829 42.7051 157.841 42.7388 157.852 42.7752C157.951 43.0893 158.052 43.4117 158.196 43.7931L159.096 46.112H156.571L157.462 43.7679C157.587 43.4258 157.7 43.0781 157.821 42.6687H157.818Z" fill="#808080"/>
<path d="M170.49 47.3205C170.281 46.5494 169.892 46.0111 169.361 45.7531C170.123 45.4671 170.879 44.7885 170.879 43.6669C170.879 43.036 170.62 42.4388 170.182 42.0714C169.623 41.5807 168.797 41.3508 167.577 41.3508C166.779 41.3508 165.907 41.4209 165.305 41.5331L165.235 41.5471V49.718H166.499V46.1989H167.622C168.593 46.2466 169.031 46.6448 169.288 47.7243C169.544 48.8095 169.736 49.4488 169.866 49.6759L169.892 49.718H171.226L171.159 49.5918C170.981 49.2609 170.761 48.4057 170.487 47.3205H170.49ZM169.604 43.7875C169.604 44.6623 168.884 45.2091 167.724 45.2091H166.502V42.4472C166.68 42.4107 167.055 42.3546 167.654 42.3546C168.382 42.3546 169.606 42.5397 169.606 43.7875H169.604Z" fill="#808080"/>
<path d="M175.931 48.6525V45.9213H179.473V44.8586H175.931V42.4864H179.679V41.4237H174.656V49.7152H179.874V48.6525H175.931Z" fill="#808080"/>
</g>
<defs>
<linearGradient id="paint0_linear_96_385" x1="57.3698" y1="33.3313" x2="4.854" y2="33.3313" gradientUnits="userSpaceOnUse">
<stop stop-color="#F4EDDA"/>
<stop offset="0.1" stop-color="#D7BF7D"/>
<stop offset="0.26" stop-color="#F9F6EC"/>
<stop offset="0.3" stop-color="#E8DBB5"/>
<stop offset="0.9" stop-color="#C6A445"/>
<stop offset="1" stop-color="#644B32"/>
</linearGradient>
<linearGradient id="paint1_linear_96_385" x1="18.5873" y1="1.37958" x2="44.5912" y2="46.712" gradientUnits="userSpaceOnUse">
<stop stop-color="#F4EDDA"/>
<stop offset="0.1" stop-color="#D7BF7D"/>
<stop offset="0.26" stop-color="#F9F6EC"/>
<stop offset="0.3" stop-color="#E8DBB5"/>
<stop offset="0.9" stop-color="#C6A445"/>
<stop offset="1" stop-color="#644B32"/>
</linearGradient>
<linearGradient id="paint2_linear_96_385" x1="10.112" y1="50.7611" x2="36.1187" y2="5.42585" gradientUnits="userSpaceOnUse">
<stop stop-color="#F4EDDA"/>
<stop offset="0.1" stop-color="#D7BF7D"/>
<stop offset="0.26" stop-color="#F9F6EC"/>
<stop offset="0.3" stop-color="#E8DBB5"/>
<stop offset="0.9" stop-color="#C6A445"/>
<stop offset="1" stop-color="#644B32"/>
</linearGradient>
<clipPath id="clip0_96_385">
<rect width="208" height="57" fill="white"/>
</clipPath>
</defs>
</svg>
