<?xml version="1.0" encoding="UTF-8"?><svg id="b" xmlns="http://www.w3.org/2000/svg" xmlns:xlink="http://www.w3.org/1999/xlink" viewBox="0 0 165.07 67.91"><defs><clipPath id="d"><rect width="165.07" height="67.91" style="fill:none; stroke-width:0px;"/></clipPath><clipPath id="e"><rect width="165.07" height="67.91" style="fill:none; stroke-width:0px;"/></clipPath><clipPath id="f"><rect width="165.07" height="67.91" style="fill:none; stroke-width:0px;"/></clipPath><clipPath id="g"><rect width="165.07" height="67.91" style="fill:none; stroke-width:0px;"/></clipPath></defs><g id="c"><g style="clip-path:url(#d);"><path d="m54.16,43.5c-8.3-4.78-17.73-7.31-27.27-7.31-3.82,0-7.61.4-11.33,1.18,1.19-.08,2.38-.11,3.57-.11,9.71,0,19.31,2.58,27.77,7.44,6.11,3.52,11.41,8.07,15.76,13.53,1.32-1.67,2.51-3.47,3.52-5.38-3.54-3.66-7.58-6.8-12.02-9.36" style="fill:#09a3ae; stroke-width:0px;"/><path d="m46.38,45.59c-8.3-4.79-17.73-7.32-27.27-7.32-3.82,0-7.62.4-11.34,1.18,1.19-.08,2.38-.12,3.57-.12,9.71,0,19.31,2.58,27.77,7.45,7.35,4.24,13.48,9.91,18.21,16.88,1.7-1.4,3.26-2.95,4.66-4.61-4.29-5.44-9.54-9.98-15.61-13.47" style="fill:#09a3ae; stroke-width:0px;"/><path d="m38.61,47.68c-8.3-4.79-17.73-7.32-27.27-7.32-3.82,0-7.62.4-11.34,1.18,1.19-.08,2.38-.11,3.57-.11,9.71,0,19.31,2.57,27.77,7.45,8.01,4.62,14.77,11.19,19.59,19.02,1.97-1.02,3.85-2.22,5.6-3.58-4.65-6.87-10.68-12.47-17.92-16.65" style="fill:#09a3ae; stroke-width:0px;"/><path d="m25.14,35.41c.9-12.75,5.26-24.83,12.77-35.23C36.72.06,35.57,0,34.43,0,32.06,0,29.68.24,27.36.7c-5.47,9.94-8.36,21.21-8.36,32.63,0,.95.02,1.81.06,2.63,2.01-.3,4.04-.48,6.08-.56" style="fill:#09a3ae; stroke-width:0px;"/><path d="m27.1,35.37c1.97,0,3.93.11,5.88.32.83-4.85,2.18-9.6,4.04-14.18,2.76-6.8,6.59-13.09,11.37-18.69-2.96-1.25-6.07-2.1-9.26-2.51-7.59,10.32-12.01,22.35-12.92,35.07.3,0,.6-.01.9-.01" style="fill:#09a3ae; stroke-width:0px;"/><path d="m41.16,37.22c2.78-10.86,8.18-20.84,15.87-29.22-2.33-1.9-4.9-3.49-7.64-4.74-4.81,5.57-8.64,11.84-11.41,18.64-1.82,4.5-3.15,9.15-3.97,13.91,2.41.31,4.8.78,7.15,1.41" style="fill:#09a3ae; stroke-width:0px;"/><path d="m56.07,21.87v7.28h1.36c1.16,0,1.7-.58,1.7-1.65v-4.03c0-1.07-.53-1.6-1.7-1.6h-1.36Zm-2.13-1.75h3.73c2.57,0,3.56,1.26,3.56,3.42v3.81c0,2.14-.99,3.47-3.56,3.47h-1.6v5.75h-2.13v-16.45Z" style="fill:#123246; stroke-width:0px;"/><path d="m67.03,33.3v-4.15c-.22.27-.51.49-1.67,1.07-1.04.56-1.45.92-1.45,2.14v.95c0,1.12.39,1.77,1.48,1.77s1.65-.66,1.65-1.77m0,3.28v-1.19h-.07c-.34.63-1.02,1.36-2.25,1.36-1.87,0-2.84-1.05-2.84-3.37v-1.07c0-2.23,1.26-2.84,3.03-3.64,1.75-.75,2.13-1.14,2.13-1.8v-.77c0-1.16-.34-1.75-1.38-1.75s-1.5.58-1.5,1.7v1.36h-1.91v-1.21c0-2.16,1.02-3.54,3.49-3.54s3.37,1.29,3.37,3.64v10.29h-2.06Z" style="fill:#123246; stroke-width:0px;"/><path d="m78.71,26.05c0-1.07-.34-1.7-1.38-1.7s-1.45.68-1.45,1.72v10.51h-2.06v-13.76h2.06v1.36h.03c.36-.78,1.02-1.53,2.33-1.53,1.11,0,1.89.51,2.28,1.6h.07c.34-.83,1.16-1.6,2.5-1.6,1.75,0,2.59,1.04,2.59,3.3v10.63h-2.06v-10.53c0-1.07-.34-1.7-1.36-1.7-.95,0-1.45.61-1.5,1.58v10.65h-2.04v-10.53Z" style="fill:#123246; stroke-width:0px;"/></g><polygon points="89.57 20.13 91.7 20.13 91.7 34.83 95.36 34.83 95.36 36.58 89.57 36.58 89.57 20.13" style="fill:#123246; stroke-width:0px;"/><g style="clip-path:url(#e);"><path d="m101.37,33.3v-4.15c-.22.27-.51.49-1.67,1.07-1.04.56-1.46.92-1.46,2.14v.95c0,1.12.39,1.77,1.48,1.77s1.65-.66,1.65-1.77m0,3.28v-1.19h-.07c-.34.63-1.02,1.36-2.25,1.36-1.87,0-2.84-1.05-2.84-3.37v-1.07c0-2.23,1.26-2.84,3.03-3.64,1.75-.75,2.13-1.14,2.13-1.8v-.77c0-1.16-.34-1.75-1.38-1.75s-1.5.58-1.5,1.7v1.36h-1.92v-1.21c0-2.16,1.02-3.54,3.49-3.54s3.37,1.29,3.37,3.64v10.29h-2.06Z" style="fill:#123246; stroke-width:0px;"/></g><polygon points="110.02 36.58 107.09 29.76 107.09 36.58 105.03 36.58 105.03 20.12 107.09 20.12 107.09 29.01 110.05 22.82 112.08 22.82 109 29.1 112.2 36.58 110.02 36.58" style="fill:#123246; stroke-width:0px;"/><g style="clip-path:url(#f);"><path d="m114.31,28.3h3.27v-2.01c0-1.21-.51-1.94-1.6-1.94s-1.67.73-1.67,1.94v2.01Zm5.26,3.15v1.51c0,2.38-1.12,3.78-3.56,3.78s-3.73-1.57-3.73-3.95v-6.21c0-2.38,1.24-3.93,3.71-3.93s3.59,1.43,3.59,3.81v3.37h-5.26v3.27c0,1.19.61,1.94,1.72,1.94s1.6-.68,1.6-1.89v-1.7h1.94Z" style="fill:#123246; stroke-width:0px;"/><path d="m93.05,41.57l.47,7.75h-.97c-2.02-4.3-4.63-6.46-7.82-6.46-2.17,0-3.88.84-5.13,2.53-1.25,1.68-1.87,3.99-1.87,6.91s.69,5.35,2.08,7.05c1.39,1.7,3.3,2.55,5.75,2.55,1.6,0,2.94-.29,4.01-.87,1.07-.58,2.23-1.62,3.46-3.13h1.13c-2.11,4.45-5.93,6.68-11.46,6.68-3.58,0-6.48-1.02-8.7-3.06-2.21-2.04-3.32-4.72-3.32-8.03s1.22-6.22,3.65-8.5c2.44-2.28,5.48-3.42,9.12-3.42,1.19,0,2.59.12,4.19.36,1.38.22,2.32.33,2.82.33.57,0,1.13-.23,1.68-.69h.91Z" style="fill:#123246; stroke-width:0px;"/><path d="m101.14,64.59c-1.76,0-3.27-.55-4.51-1.64-1.24-1.09-1.86-2.41-1.86-3.96s.62-2.83,1.85-3.85c1.23-1.02,3.8-2.05,7.72-3.08,1.89-.5,3.25-.9,4.08-1.22,0-1.97-.42-3.39-1.27-4.28-.84-.88-2.19-1.33-4.02-1.33-2.89,0-5.01,1.19-6.39,3.56h-.83c.57-2.3,1.69-4.08,3.35-5.34,1.66-1.26,3.72-1.89,6.19-1.89,2.85,0,5.12.7,6.82,2.1,1.7,1.4,2.55,3.36,2.55,5.88v10.04c0,1.89.43,2.84,1.29,2.84s1.46-.66,1.68-1.98h.91c-.11,1.32-.62,2.35-1.52,3.06-.9.72-2.12,1.08-3.66,1.08-1.31,0-2.36-.24-3.16-.7-.8-.47-1.46-1.24-2-2.3l-.5.47c-1.91,1.69-4.15,2.54-6.72,2.54m7.22-4.52v-8.08c-2.81,1.2-4.67,2.23-5.58,3.09-.91.86-1.37,1.98-1.37,3.34,0,1.16.27,2.09.81,2.8.54.71,1.26,1.06,2.14,1.06,1.19,0,2.52-.74,4-2.21" style="fill:#123246; stroke-width:0px;"/><path d="m129.61,41.57v6.79h.11c2.02-4.53,4.37-6.79,7.05-6.79,1.47,0,2.73.6,3.78,1.81l-1.4,6.44c-1.93-1.84-3.53-2.76-4.79-2.76-.94,0-1.75.22-2.45.66-.7.44-1.46,1.23-2.29,2.37v8.72c0,1.36.24,2.29.72,2.79.48.5,1.44.88,2.89,1.16v.97h-13.56v-.97c1.4-.33,2.34-.76,2.83-1.3.49-.53.73-1.41.73-2.65v-11.26c0-1.34-.31-2.35-.92-3.01-.62-.66-1.6-1.05-2.96-1.16v-.97l9.32-.86h.96Z" style="fill:#123246; stroke-width:0px;"/><path d="m164.11,57.16h.96c-.95,2.3-2.45,4.11-4.49,5.43-2.04,1.32-4.33,1.99-6.89,1.99-3.33,0-6.1-1.08-8.31-3.24-2.21-2.16-3.32-4.87-3.32-8.13s1.13-6.08,3.4-8.3c2.27-2.22,5.09-3.34,8.45-3.34,3.03,0,5.55.87,7.56,2.61,2.01,1.74,3.21,4.07,3.59,6.99h-16.12c-.02.3-.03.59-.03.88,0,2.89.72,5.23,2.17,7.04,1.45,1.8,3.25,2.7,5.39,2.7,3.06,0,5.6-1.55,7.62-4.64m-15.18-7.28h9.29c-.13-2-.64-3.64-1.52-4.9-.88-1.26-1.97-1.89-3.26-1.89s-2.34.61-3.15,1.85c-.81,1.23-1.26,2.88-1.35,4.94" style="fill:#123246; stroke-width:0px;"/></g><polyline points="70.39 36.58 70.39 20.13 72.53 20.13 72.53 36.58" style="fill:#123246; stroke-width:0px;"/><g style="clip-path:url(#g);"><path d="m122.25,22.02v-.65h.49c.33,0,.41.1.41.29s-.09.35-.47.36h-.43Zm.34.39c.14.01.28,0,.38.1.12.12.12.32.15.54.02.15.06.31.09.45h.52c-.09-.23-.12-.49-.15-.73-.04-.28-.08-.43-.44-.5h0c.35-.08.53-.31.53-.6,0-.57-.5-.7-.97-.7h-.85v2.53h.41v-1.1h.34Zm.13,1.64c-1.02,0-1.84-.8-1.84-1.79s.82-1.77,1.84-1.77,1.83.8,1.83,1.77-.82,1.79-1.83,1.79m0,.38c1.23,0,2.22-.96,2.22-2.16s-.99-2.15-2.22-2.15-2.23.96-2.23,2.15,1,2.16,2.23,2.16" style="fill:#123246; stroke-width:0px;"/></g></g></svg>