<svg version="1.1" id="Layer_1" xmlns="http://www.w3.org/2000/svg" x="0" y="0" viewBox="33.4 32.9 300.2 40.2" xml:space="preserve"><style>.st0{fill:#474c55}.st1{fill:#62cbc9}</style><path class="st0" d="M82.01 68.32c3.39-.42 3.95-.71 3.95-3.34V41.45c0-2.64-.56-2.92-3.95-3.34V36.7h25.12l.24 8.14h-1.13c-2.21-5.08-3.67-6.45-7.15-6.45h-7.57V51.8h6.78c2.07 0 2.82-1.37 3.29-4.28h1.46v10.3h-1.46c-.47-2.92-1.22-4.24-3.29-4.24h-6.78v11.25c0 2.54 1.32 3.2 4.42 3.2h3.67c3.58 0 5.08-1.98 8.09-7.2h1.37l-1.46 8.89h-25.6v-1.4zM112.17 67.89l-.28-6.49h1.51c1.13 4.18 3.43 7.34 7.06 7.34 2.68 0 4.75-1.37 4.75-4.14 0-2.63-1.74-3.71-5.74-5.22-4.84-1.79-7.25-3.62-7.25-7.76 0-4.37 3.25-7.01 8.19-7.01 2.96 0 5.41.76 7.39 1.98v5.69h-1.37c-.85-3.48-2.78-6.21-6.16-6.21-2.59 0-4 1.5-4 3.67 0 2.35 1.46 3.48 5.41 4.94 4.8 1.74 7.67 3.67 7.67 7.95 0 4.75-3.57 7.58-8.99 7.58-3.39-.01-6.36-.95-8.19-2.32M139.32 45.07h6.45V47h-6.45v15.57c0 3.2 1.17 4.52 3.62 4.52 1.41 0 2.4-.42 3.62-1.32l.52.71c-1.37 2.02-3.58 3.72-6.68 3.72-3.58 0-6.31-1.93-6.31-7.06V47h-3.06v-.85c2.91-1.46 5.36-4.05 7.15-7.06h1.13v5.98zM156.44 66.15c0 1.74.75 2.07 3.1 2.21v1.37h-11.48v-1.37c2.35-.14 3.1-.47 3.1-2.21v-16.8l-2.96-1.65v-.66l7.48-2.44h.75v21.55zm-6.11-28.18c0-1.83 1.41-3.34 3.34-3.34s3.39 1.51 3.39 3.34c0 1.79-1.46 3.3-3.39 3.3s-3.34-1.51-3.34-3.3M180.3 64.51c0 1.88.37 2.87 1.69 2.87.75 0 1.41-.24 2.02-.52l.28.85c-1.22 1.65-2.91 2.49-4.89 2.49-2.45 0-3.91-1.6-4.28-4.19-1.6 1.93-4.14 4.14-7.43 4.14-3.77 0-6.17-2.35-6.17-5.97 0-4 2.92-5.65 6.59-7.01l6.92-2.54v-3.57c0-2.97-1.08-5.13-3.91-5.13-2.49 0-3.53 1.74-3.53 4.09 0 .85.14 1.65.37 2.64l-3.1.42c-1.22-.38-1.98-1.32-1.98-2.73 0-3.72 3.86-5.74 8.8-5.74 5.65 0 8.61 2.26 8.61 7.44v12.46zm-5.27.42v-8.84l-4.94 2.02c-2.21.85-3.48 2.07-3.48 4.61 0 2.54 1.27 4.28 3.91 4.28 1.64 0 2.86-.75 4.51-2.07M204.38 51.76h15.43v-10.3c0-2.64-.56-2.92-3.95-3.34V36.7h13.46v1.41c-3.39.42-3.95.71-3.95 3.34v23.53c0 2.64.56 2.92 3.95 3.34v1.41h-13.46v-1.41c3.39-.42 3.95-.71 3.95-3.34V53.69h-15.43v11.29c0 2.64.56 2.92 3.95 3.34v1.41h-13.46v-1.41c3.39-.42 3.95-.71 3.95-3.34V41.45c0-2.64-.56-2.92-3.95-3.34V36.7h13.46v1.41c-3.39.42-3.95.71-3.95 3.34v10.31zM251.72 54.16v.99h-15.48c-.28 7.2 3.34 11.29 8.09 11.29 3.29 0 5.36-1.46 7.06-4l.61.33c-1.13 4.38-4.47 7.44-9.6 7.44-6.77 0-10.91-5.22-10.91-12.14 0-7.86 4.8-13.46 11.06-13.46 6.01-.01 9.17 4.09 9.17 9.55m-15.34-.52h10.45c0-4.33-1.32-7.43-4.71-7.43-3.39-.01-5.36 3.19-5.74 7.43M273.08 64.51c0 1.88.38 2.87 1.69 2.87.75 0 1.41-.24 2.02-.52l.29.85c-1.22 1.65-2.92 2.49-4.9 2.49-2.44 0-3.91-1.6-4.28-4.19-1.6 1.93-4.14 4.14-7.44 4.14-3.76 0-6.16-2.35-6.16-5.97 0-4 2.92-5.65 6.59-7.01l6.92-2.54v-3.57c0-2.97-1.08-5.13-3.91-5.13-2.49 0-3.53 1.74-3.53 4.09 0 .85.14 1.65.38 2.64l-3.11.42c-1.22-.38-1.98-1.32-1.98-2.73 0-3.72 3.86-5.74 8.8-5.74 5.64 0 8.61 2.26 8.61 7.44v12.46zm-5.27.42v-8.84l-4.94 2.02c-2.21.85-3.48 2.07-3.48 4.61 0 2.54 1.27 4.28 3.9 4.28 1.65 0 2.87-.75 4.52-2.07M286.11 66.15c0 1.74.75 2.07 3.1 2.21v1.37h-11.48v-1.37c2.35-.14 3.1-.47 3.1-2.21V37.5l-2.96-1.6v-.71l7.43-2.31h.8v33.27zM298.25 45.07h6.45V47h-6.45v15.57c0 3.2 1.17 4.52 3.62 4.52 1.41 0 2.4-.42 3.62-1.32l.52.71c-1.37 2.02-3.58 3.72-6.68 3.72-3.58 0-6.3-1.93-6.3-7.06V47h-3.06v-.85c2.91-1.46 5.36-4.05 7.15-7.06h1.13v5.98zM309.96 37.5L307 35.9v-.71l7.48-2.3h.75v16.23c2.12-2.4 4.85-4.52 8.61-4.52 4.37 0 6.54 2.59 6.54 7.72v13.83c0 1.74.75 2.07 3.11 2.21v1.37h-11.48v-1.37c2.35-.14 3.11-.47 3.11-2.21V52.41c0-3.15-1.27-4.56-3.95-4.56-2.21 0-4.28 1.13-5.93 2.45v15.85c0 1.74.71 2.07 3.06 2.21v1.37h-11.43v-1.37c2.35-.14 3.1-.47 3.1-2.21V37.5z"/><path class="st1" d="M55.79 71.7h-.01.01M55.78 71.7c-.01-.2-.01-.25-.14-.3.02.06.03.12.04.18.03.04.07.08.1.12M36.73 56.75c.06.11.11.2.19.34-.03-.23-.03-.23-.19-.34M39.59 54.23c0-.01-.01-.01-.01-.02-.01 0-.01-.01-.01-.01s0 .01.01.02l.01.01M39.71 58.18v.01-.01M45.5 39.24v-.05h-.28c0 .01.01.03.01.05h.27zM39.79 54.34c-.07-.04-.13-.07-.2-.11.05.06.09.12.13.18.03-.02.05-.05.07-.07M39.88 54.9c-.03-.01-.08-.02-.13-.04.08.11.15.18.21.25.01-.05.01-.08.01-.11-.01-.05-.03-.08-.09-.1M38.91 54.29v-.01c-.05-.09-.1-.17-.14-.26-.14-.25-.29-.5-.42-.77-.19-.37-.36-.75-.54-1.12-.02-.05-.07-.08-.12-.13-.12.17-.13.33-.04.48.15.25.32.49.47.74.07.12.14.25.2.37.07.13.13.25.22.37.19.28.27.64.58.84-.01-.01-.01-.02-.01-.04-.07-.15-.12-.31-.2-.47M37.09 51.34c.07.38.2.55.45.62.04-.41-.06-.51-.45-.62M44.79 64.93h-.02c.05.19.13.33.34.4.14.05.25.17.37.26.07.05.14.11.21.16.02-.07.01-.12-.02-.15-.3-.23-.59-.45-.88-.67M41.68 62.18c-.01-.04-.09-.04-.14-.06-.01.03-.03.05-.05.07.24.23.47.47.71.69-.02-.36-.4-.43-.52-.7M38.59 59.15l.39.45c-.09-.18-.12-.42-.39-.45M39.44 60.07h.01v-.01zM39.45 60.07c0 .18.18.18.3.33-.01-.25-.18-.26-.3-.33M40.85 61.53c.07.12.11.19.18.32.08-.21.01-.28-.18-.32M41.33 58.17c.07.1.14.2.21.31.02-.02.05-.04.07-.05-.07-.1-.15-.2-.23-.3-.01.01-.03.02-.05.04M46.34 66.25c-.06-.08-.11-.16-.19-.29-.06.26.06.29.19.29M46.34 66.25s0 .01.01.01.01.01.02.01c0-.01-.01-.01-.01-.02h-.02M44.75 64.91c0 .01.01.01.01.02h.01v-.01c-.01 0-.02 0-.02-.01M44.58 64.74c-.01.02-.03.04-.05.06l.21.12c-.01-.11-.07-.16-.16-.18"/><path class="st1" d="M39.44 60.07l.01-.01h-.01v.01M39.23 59.8c0 .17.13.2.21.25-.03-.1-.06-.2-.21-.25M39.11 54.84c0-.01 0-.02-.01-.02.01 0 .01.01.01.02M44.48 35.36c.07.07.13.12.18.17.17-.17.24-.2.47-.19.29.01.57.04.85.06.83.08 1.63.32 2.42.56.13.04.26.07.4.11 0-.03.01-.06.02-.08-.29-.09-.59-.17-.88-.28-.42-.16-.91-.14-1.27-.48a.293.293 0 00-.16-.07s-2.35-.19-2.82.29c.22.02.41.05.63.07.05-.04.1-.1.16-.16"/><path class="st1" d="M46.54 35.62c-.3-.06-.6-.1-.91-.05.41.11.83.2 1.23.3.28.07.56.17.84.26.34.11.67.23 1 .35.28.1.53.3.85.26.01-.01.01-.02.02-.03-.31-.2-.65-.35-1-.46-.67-.23-1.33-.48-2.03-.63M43 35.58a.689.689 0 00-.03-.08c-.26-.03-.44.14-.66.23.01.02.02.05.03.08.22-.09.45-.16.66-.23M43.59 35.42l-.55.3c.3.1.3.1.55-.3M39.67 55.16c-.01.03-.03.06-.04.1.07.08.14.16.2.24.02-.01.05-.02.08-.03-.01-.09 0-.19-.04-.27-.02-.05-.13-.03-.2-.04"/><path class="st1" d="M73.97 47.69c-.02-.26-.05-.52-.09-.77-.04-.29-.11-.58-.15-.87-.08-.58-.12-1.16-.23-1.74-.16-.85-.5-1.62-.94-2.37-.6-1.04-1.37-1.95-2.14-2.85a2.84 2.84 0 00-.55-.49c-.95-.69-1.88-1.38-2.85-2.03-.41-.28-.88-.46-1.33-.66-.37-.17-.76-.3-1.15-.44-.97-.37-1.98-.44-3-.26-.27.05-.55.04-.81.07-1.3.18-2.56.5-3.8.92-.14.05-.29.15-.45-.02-.03-.04-.2-.01-.25.04-.84.71-1.86 1.09-2.8 1.6-.35.18-.59.12-.89-.04-.73-.39-1.5-.67-2.31-.86l.12.06c-.15.05-.24-.04-.33-.11.07.01.14.03.2.05a1.71 1.71 0 01-.23-.13c-.01.01-.02.02-.02.04.02.01.04.03.05.04-.02-.01-.05-.01-.07-.02-.8-.17-1.61-.33-2.41-.49-.2-.07-.4-.14-.61-.19-.01 0-.01-.01-.02-.01-.06-.03-.13-.08-.19-.08-.56-.07-1.12-.16-1.68-.2.08-.06.1-.16.08-.29l-.27.27c-.02 0-.04-.01-.05-.01-.12 0-.25.01-.38.01-.05-.05-.09-.09-.14-.1-.21-.04-.43-.05-.61.14.02.01.04.02.07.04-.1.02-.2.03-.3.05-.65.14-1.31.3-1.93.53-.81.3-1.59.67-2.33 1.14-.77.49-1.48 1.04-2.11 1.69-.34.35-.6.78-.91 1.17-.44.55-.75 1.19-1.09 1.8-.96 1.78-1.53 3.69-1.56 5.73-.01.43.07.86.13 1.29.13.9.29 1.79.59 2.65.31.86.62 1.74 1.12 2.51.49.77 1.03 1.52 1.58 2.25.5.68 1.04 1.33 1.57 1.99.32.39.71.74 1.01 1.15.18.24.37.47.57.68-.06-.04-.12-.07-.18-.11-.01.01-.02.02-.02.04.06.05.12.1.17.16.02-.02.04-.04.05-.06.13.14.28.27.41.4-.12-.05-.23-.09-.37-.15.09.21.18.31.39.17.51.49 1.06.94 1.58 1.42.32.3.66.59.99.89-.16-.04-.32-.07-.4-.25-.01-.04-.14-.04-.25-.06.03.1.02.17.06.2l.66.6c.02-.01.04-.02.05-.02-.04-.16-.07-.31-.11-.47l.24.21c.37.31.77.58 1.15.89.47.38.93.78 1.4 1.16.13.11.27.22.41.32.43.31.86.62 1.28.94.13.1.23.26.36.37.09.07.18.14.28.21-.04 0-.07.01-.12.02-.3-.23-.6-.46-.89-.7-.25-.2-.54-.36-.83-.48.05.07.1.16.17.22.09.08.2.13.29.2.48.36.96.73 1.44 1.09.14.1.31.16.44.26.23.17.44.35.66.53.48.39 1.03.7 1.44 1.18.02.02.07.02.1.04.34.26.67.53 1.01.77.14.1.28.22.43.3-.32.42-.55.84-.72 1.3-.02.06-.06.12-.06.18-.06.53.01.55.46.63.44-.53 1.01-.92 1.7-1.22-.02.1-.03.15-.05.21.23 0 .42-.24.66-.12l.6.3c.09-.04.17-.11.26-.12.35-.02.5-.18.47-.45-.07-.08-.13-.16-.19-.23.07.02.11.04.15.05v-.02c-.01-.04-.03-.07-.04-.1.07-.14.14-.26.34-.25.09 0 .19-.06.27-.11.66-.35 1.29-.72 1.86-1.21.24-.21.53-.36.78-.56.57-.47 1.15-.94 1.71-1.43.35-.31.66-.65.99-.97.13-.13.29-.23.44-.34.38-.31.8-.58 1.14-.94.26-.29.59-.47.87-.73.37-.35.71-.72 1.08-1.07.14-.14.32-.25.48-.37.28-.2.54-.42.7-.74.08-.16.22-.31.37-.41.47-.32.72-.83 1.08-1.25 0-.28.3-.32.43-.5s.26-.36.4-.53c.51-.57.97-1.18 1.31-1.87.04-.08.08-.16.13-.23.22-.31.45-.62.64-.95.1-.17.17-.35.35-.47.06-.05.08-.15.12-.23.11-.23.21-.47.33-.69.27-.52.55-1.04.82-1.56.05-.08.08-.19.14-.25.17-.15.31-.29.26-.56-.02-.09.13-.2.17-.32.11-.31.19-.63.29-.95.13-.44.28-.89.38-1.33.19-.77.35-1.55.51-2.32.03-.12-.01-.28-.03-.44M54.25 42.4c.14.25.29.48.51.59.18.09.9 1.02 1.07 1.13.35.24 1.37 1.14 1.71 1.39.52.39.65.79 1.15 1.19.18.14.57.45.74.61-.01.23-.02.46-.02.7 0 .35.03.71.04 1.06.01.67 0 1.34 0 2.01 0 .52.01 1.04.02 1.56.02.83.05 1.66.07 2.49.01.16 0 .31 0 .49h-.58c-.37-.01-.74-.05-1.11-.04-.87.01-1.74.04-2.61.04-.4 0-.8-.01-1.19-.08-.78-.14-1.55-.18-2.34-.13-.37.02-.74.04-1.11.05-.55.02-1.09.04-1.64.05-.25.01-.51-.02-.79-.03-.02-.14-.04-.25-.05-.36-.03-.31-.05-.62-.1-.92-.14-.99-.18-1.98-.09-2.97.05-.56.13-1.13.19-1.69.04-.41.07-.81.12-1.22.05-.35.06-.35-.27-.5-.06-.02.22-.07.3-.17.39-.48.59-.36.98-.84.27-.34.44-.46.73-.79.52-.59 1.02-.78 1.57-1.34.45-.45 2.07-1.7 2.7-2.28m-2.2 13.14h-.01.01-.01.01m0 0c.01 0 .01 0 0 0h.01c.04.01.07 0 .1.01-.03 0-.07 0-.1-.01h-.01zm-4.04-11.85c.02-.03.04-.05.06-.08v.01c-.03.02-.05.04-.06.07m.43-.73c.11-.19.21-.37.31-.5.12-.15.18-.12.26-.19-.03.09-.04.18-.11.27-.12.13-.3.29-.46.42m-10.21-2.69l.19-.19c0 .19 0 .19-.19.19 0 0-.01 0 0 0-.01 0 0 0 0 0m-.36 15.99c-.06.07-.02.22-.04.39-.07-.07-.12-.1-.13-.15-.09-.25-.12-.55-.26-.76-.18-.25-.16-.62-.49-.78-.05-.02-.06-.12-.1-.18-.02-.05-.04-.14-.08-.15-.37-.15-.41-.52-.58-.81-.05-.09-.11-.18-.17-.26-.03-.05-.11-.1-.1-.14.07-.41-.26-.65-.37-.98-.08-.26-.2-.5-.16-.78l-.01.01c.02-.05.04-.11.08-.23.43.65.75 1.28 1.09 1.9.01.02.03.04.04.07-.04.46.26.8.47 1.16.22.38.5.72.73 1.09.12.17.3.35.08.6m.43-2.01c-.06-.09-.12-.19-.19-.28.02-.01.04-.02.05-.03.06.1.12.19.17.29 0 0-.01.01-.03.02m2.7 5.57c-.25.09-.25.09-.31-.16-.01-.03-.02-.08-.04-.08-.28-.01-.16-.28-.28-.42-.06.02-.12.04-.17.05-.08-.08-.17-.15-.24-.23-.04-.04-.06-.09-.08-.14-.06-.21-.12-.42-.17-.63h-.01v-.01c-.09-.09-.26-.12-.2-.34.08.12.24.17.2.34l.01.01v.01c.05.01.12.01.15.05.28.41.7.68 1.05 1.02.06.06.19.16.05.3-.03 0 .03.14.04.23m.74.33c-.06.13-.15.25-.23.38-.4-.21-.46-.51-.38-.87.02-.01.05-.01.08-.02.07.13.13.27.2.4.04.07.1.13.2.04s.15.03.13.07m1.28 1.76c-.01 0-.03.01-.04.01l-.16-.8c.15.1.25.16.35.23-.05.19-.1.38-.15.56m.25-.15v-.19h.06v.19h-.06m.61.32c.26.11.25.11.19.39-.02.08.05.19.07.28-.11-.22-.46-.35-.26-.67m.46 1.54c-.02.01-.04.01-.06.02-.02-.05-.04-.1-.08-.23.09.07.13.08.14.11.02.02 0 .07 0 .1m1.4 1.21c-.02-.02-.06-.04-.06-.06-.01-.04.01-.08.02-.14.05.04.1.06.09.08 0 .04-.03.08-.05.12m-.38-1.35c.24-.11.27-.08.32.3-.12-.11-.21-.2-.32-.3m.77.19c-.05-.04-.11-.07-.16-.11a.21.21 0 01.04-.06c.05.04.1.08.14.13 0 .02-.01.03-.02.04m1.51 2.64c-.03-.01-.06-.01-.09-.02.01-.06.02-.12.04-.18.02 0 .05 0 .07.01-.01.06-.01.13-.02.19m-.24-1.68h-.01l.01-.01v.01c.18.03.19.04.43.31-.18.01-.29-.07-.43-.31m1.2 3.1c.1.07.2.15.3.22-.11-.02-.22-.12-.3-.22m3.84 3.04c-.05-.01-.11-.07-.13-.12a.842.842 0 00-.47-.4c-.16-.05-.3-.11-.38-.28-.02-.05-.09-.1-.14-.1-.28-.03-.41-.27-.6-.42-.24-.2-.46-.43-.69-.63-.08-.07-.25-.08-.27-.14-.02-.06-.05-.1-.07-.14.22.16.43.33.65.49.67.49 1.35.97 2.02 1.46.06.04.12.08.19.12-.04.06-.07.11-.11.16m.26.31c-.01-.03-.03-.06-.04-.08h-.02l.01-.02s0 .01.01.01c.04-.01.07-.02.1-.02-.02.04-.04.07-.06.11m18.46-21.04c-.1.37-.19.73-.31 1.09-.18.53-.4 1.04-.61 1.56-.11.26-.3.5-.36.77-.12.54-.44.96-.77 1.38-.23.3-.5.57-.77.85-.17.18-.35.34-.52.53-.43.46-.84.94-1.27 1.4-.23.25-.49.46-.73.69-.23.23-.49.43-.68.69-.19.26-.59.29-.7.64-.53.5-1.04 1.03-1.59 1.51-.84.73-1.66 1.47-2.5 2.21-.48.42-.93.9-1.4 1.33-.83.76-1.68 1.51-2.52 2.27-.52.47-1.01.96-1.52 1.43l-.64.61c-.43-.46-.83-.88-1.25-1.32-.11.12-.2.09-.32-.03-.23-.22-.48-.42-.72-.62-.09.1-.17.14-.22.12a.333.333 0 01-.17-.14c-.24-.37-.64-.56-.97-.84-.06-.05-.18-.07-.24-.04-.2.1-.33.01-.47-.11-.24-.2-.48-.4-.73-.59-.22-.17-.46-.33-.68-.49-.06-.04-.11-.1-.16-.15-.49-.46-.99-.91-1.51-1.34-.52-.42-1.06-.82-1.56-1.28-.42-.39-.79-.85-1.3-1.15-.02-.01-.03-.04-.05-.05-.58-.58-1.16-1.15-1.75-1.73-.19-.19-.3-.46-.58-.56-.05-.02-.06-.1-.1-.15-.2-.26-.37-.57-.61-.78-.22-.19-.35-.41-.47-.66-.08-.17-.18-.32-.29-.47-.25-.35-.55-.67-.76-1.04-.33-.56-.7-1.1-1.08-1.63-.07-.1-.14-.19-.21-.29-.05-.12-.11-.24-.18-.42-.02.05-.02.1-.02.14-.24-.32-.46-.66-.62-1.04-.14-.34-.25-.69-.38-1.03-.1-.28-.2-.55-.31-.83-.1-.26-.28-.51-.19-.83.01-.03-.02-.07-.03-.11-.08-.41-.19-.81-.23-1.22-.05-.53-.07-1.07-.02-1.59.05-.48.23-.93.34-1.41.1-.48.34-.91.47-1.39.13-.47.43-.91.69-1.33.23-.37.51-.7.85-1 .43-.38.78-.86 1.33-1.15-.28-.05-.37-.16-.3-.35.02-.07.07-.14.12-.18.23-.16.47-.35.77-.09.27-.24.79-.23.68-.79.35-.13.69-.28 1.07-.13.06.02.15-.01.21-.04.95-.42 1.99-.37 2.98-.54.04 0 .09 0 .11.02.17.19.37.07.56.06.01 0 .03.02.05.04-.05.04-.1.06-.15.1.17.1.3.14.44.15.19.01.28.12.34.3-.12.06-.23.12-.34.18.91.15 2.04.3 3.09.52a.43.43 0 00-.1.31c.1-.1.18-.18.26-.27.38.08.74.17 1.08.27.17-.12.32-.23.48-.34-.15.11-.31.22-.48.34-.02.01-.04.03-.06.04.2.14.21.15.28.07.01-.01.02-.02.03-.04l.18.06c-.08.1-.23.24-.41.41 0-.01.01-.01.01-.02.02-.02-.01-.1-.01-.16-.08.07-.15.12-.22.17.05-.08.1-.14.14-.19.02-.03-.01-.1-.01-.16l-.31.24c-.12.1-.13.26-.13.45-.07.11-.13.24-.2.37-.02.02-.05.05-.07.08-.22.2-.43.41-.6.59.05-.02.09-.04.13-.06-.01.01-.02.03-.04.05-.06.03-.12.06-.17.09l.07-.07c-.25.11-.58.25-.67.36-.12.14-.07.27-.19.41-.17.19-.48.43-.67.58-.36.26-.54.64-.78.98-.04.06-.03.14-.04.21.03.01.05.03.08.04.18-.25.36-.5.57-.78.01.04.01.07.02.1-.05.09-.11.17-.16.26-.04.06-.03.14-.04.21a.3.3 0 01.08.04c.1-.14.21-.29.32-.44.03-.02.05-.04.07-.06-.16.2-.31.4-.44.62-.2.33-.58.13-.73.5-.01.03-.06.05-.08.07-.3.26-.6.52-.88.76.02.26.22.47.1.73-.04-.05-.07-.08-.1-.12-.03.12-.02.25-.07.29-.2.14-.18.35-.2.54l-.03.44c-.02.46-.2.9-.12 1.38.07.38-.03.79-.06 1.18-.04.58-.1 1.15-.13 1.73-.04.53-.08 1.06-.1 1.59-.02.74-.01 1.47-.01 2.21 0 .19 0 .37.03.56.06.4.13.81.22 1.21l.93.92c.2-.11.35-.29.55-.17.12.16.21.3.28.39.33-.06.6-.12.87-.17.18-.03.37-.03.55-.05.74-.08 1.48-.19 2.22-.24.56-.04 1.12.01 1.68.01.77-.01 1.54-.04 2.31-.06.69-.01 1.39.01 2.08-.02.92-.03 1.84-.1 2.76-.12.21-.01.44-.02.63.15.07.06.28.1.3.07.13-.21.38-.16.55-.27.27-.18.54-.37.77-.53-.05-.26-.12-.47-.12-.69.01-.58.01-1.17.1-1.74.18-1.25.22-2.49.17-3.75-.04-.83-.13-1.65-.06-2.48.01-.09-.01-.17-.02-.26-.01-.11-.05-.22-.03-.33.08-.73-.03-1.45-.13-2.17-.08-.53-.32-.09-.3-.64 0-.08-.08-.18-.14-.25-.11-.14-.25-.26-.36-.41-.18-.24-.31-.51-.51-.73-.81-.88-1.72-1.64-2.65-2.38-.59-.47-1.3-1.59-1.9-2.28.49-.2.95-.46 1.43-.57.8-.18 1.59-.49 2.42-.53.29-.01.57-.02.86-.05 1.37-.12 2.64.21 3.8.95.37.23.73.47 1.07.74.86.67 1.75 1.32 2.55 2.06.62.58 1.16 1.25 1.69 1.92.45.56.87 1.14 1.23 1.76.32 1.18.49 2.66.34 4.43"/></svg>