<svg xmlns="http://www.w3.org/2000/svg" width="61" height="105"><g fill="none" fill-rule="evenodd"><path fill="#005C9C" d="M17.318 43.305l-.582 6.964a25.655 25.655 0 013.524-.51l-2.942-6.454m25.527 0l-3.283 6.787c1.363.1 2.704.298 4.006.605l-.723-7.392"/><path fill="#3B2C78" d="M37.348 54.669A25.563 25.563 0 0144.6 62.96l.201.366-1.137-11.64a19.458 19.458 0 00-4.437-.898l-1.879 3.88M14.51 52.144c-.714 6.917-1.44 13.684-1.705 15.308-.536 3.293-2.746 2.95-3.476 2.95-.205 0-.243.394-.01.394h9.238c.101 0 .16-.395-.052-.395-.731 0-3.427.465-3.198-2.949l1.329-15.973a22.194 22.194 0 014.115-.643 10543.51 10543.51 0 007.434 16.286l1.938-4.195c-1.46-3.09-3.573-7.57-5.676-12.023a22.493 22.493 0 0110.855 4.09s-7.015 15.233-9.038 19.57c-3.534 7.067-7.843 9.587-12.941 9.587C5.962 84.151.767 78.037.73 70.705.678 60.527 9.2 54.004 14.51 52.144"/><path d="M34.043 52.59a26.414 26.414 0 00-2.321-1.073c1.41-.372 3.577-.775 5.543-.786-.448.97-.904 1.952-1.358 2.942a27.315 27.315 0 00-1.864-1.083m8.97 28.356l-4.193-.068.153 9.463-1.056.065-1.071-.065.152-9.463-4.131.068v-1.79l4.13.13-.074-5.164h1.975l-.078 5.164 4.193-.13v1.79zm-39.871-.043c6.151 13.832 27.319 23.015 27.319 23.015C72.414 83.474 57.19 62.94 55.724 60.709a24.719 24.719 0 00-8.532-7.525l2.02 17.612h-4.617c-.645-5.9-3.59-11.113-7.918-14.738 0 0-6.863 14.197-9.17 18.927-2.257 4.619-6.214 9.856-14.217 9.856-3.497 0-7.486-1.415-10.147-3.936l-.001-.002z" fill="#3B2C78"/><path fill="#005C9C" d="M34.651 34.965c-2.666 5.19-5.726 6.296-5.726 6.296 1.692-3.268-.109-5.425-.636-6.113-5-6.537.53-14.022.53-14.022-.475 1.37.318 3.216.318 3.216.476-2.767 3.058-7.076 3.368-7.487-.4 2.627.454 4.563 1.5 6.523 1.656 3.099 3.312 6.397.646 11.587zm6.195-7.508c-.9 2.026-2.2 3.858-3.562 5.604a14.231 14.231 0 001.787-5.608c.412-3.922-1.14-6.95-2.688-9.845-1.406-2.635-2.55-5.232-2.013-8.758-.416.551-1.56 1.967-2.583 4.097 0 0-5.412-7.828-2.318-12.437 0 0-13.565 11.92-4.961 26.943H0v35.124a25.523 25.523 0 0114.647-11.76c.814-7.902 1.574-15.582 1.574-15.582 0-.771.49-.706.916.19.197.413 3.384 7.17 6.76 14.314 2.248.15 4.584.648 6.633 1.34a23.793 23.793 0 012.02-.506c1.63-.343 3.318-.53 5.043-.542 3.527-7.637 6.576-14.236 6.75-14.606.428-.896.916-.961.916-.19 0 0 .88 8.318 1.781 16.55 6.01 2.357 10.974 6.917 13.856 12.638l.002-.116V27.453l-20.052.004z"/></g></svg>