<svg xmlns="http://www.w3.org/2000/svg" width="36.195" height="36.195" viewBox="0 0 36.195 36.195">
  <g id="Group_386" data-name="Group 386" transform="translate(-770.24 -418)">
    <ellipse id="Ellipse_3" data-name="Ellipse 3" cx="18.098" cy="18.098" rx="18.098" ry="18.098" transform="translate(770.24 418)" fill="#602c89"/>
    <path id="_036-facebook" data-name="036-facebook" d="M24.75,27.266l.013-7.387H22.843a.453.453,0,0,1-.453-.451l-.009-2.381a.453.453,0,0,1,.453-.455H24.75v-2.3a3.759,3.759,0,0,1,4.012-4.124h1.954a.453.453,0,0,1,.453.453v2.008a.453.453,0,0,1-.453.453h-1.2c-1.3,0-1.546.616-1.546,1.519v1.992h2.846a.453.453,0,0,1,.45.506l-.282,2.381a.453.453,0,0,1-.45.4H27.984l-.013,7.387" transform="translate(761.563 417.32)" fill="#fff"/>
  </g>
</svg>
