<svg xmlns="http://www.w3.org/2000/svg" viewBox="0 0 661.75 162.89"><defs><style>.cls-1,.cls-3{fill:#003974;}.cls-1,.cls-2{fill-rule:evenodd;}.cls-2{fill:#fcb457;}</style></defs><title>logo-buderim-hospital</title><g id="Layer_2" data-name="Layer 2"><g id="Artwork"><path class="cls-1" d="M38.15,0V81.44H0a41.48,41.48,0,0,0,10.35-1.62C36.75,72.37,35.25,43.29,38.15,0"/><path class="cls-1" d="M38.15,162.89V81.45H76.2a36.68,36.68,0,0,0-10.35,1.62c-26.42,7.45-24.78,36.55-27.7,79.82"/><polygon class="cls-2" points="47.82 0 47.82 73.06 105.99 73.06 66.54 64.69 96.21 50.38 65.27 58.88 87.83 33.63 61.42 55.62 79.46 19.43 58.16 51.08 65.27 8.37 52.94 48.52 47.82 0"/><path class="cls-3" d="M132.68,73.06V19.31h21.63q7,0,11.44,3.89a12.72,12.72,0,0,1,4.43,10A12.44,12.44,0,0,1,168,40.51a13,13,0,0,1-6,4.7,14.15,14.15,0,0,1,7.52,4.94,13.29,13.29,0,0,1,2.76,8.34A13.3,13.3,0,0,1,167.61,69q-4.63,4-11.94,4ZM139,43.3h14.47A10.55,10.55,0,0,0,161,40.62a8.9,8.9,0,0,0,2.9-6.85,8.86,8.86,0,0,0-2.9-6.84,10.62,10.62,0,0,0-7.47-2.65H139Zm0,24.8h15.68a11.19,11.19,0,0,0,7.94-2.83A9.52,9.52,0,0,0,165.68,58a9.52,9.52,0,0,0-3.05-7.33,11.23,11.23,0,0,0-7.94-2.83H139Z"/><path class="cls-3" d="M178.08,59.55V34.2h6.33V58.68a9.63,9.63,0,0,0,2.87,7.21,10.09,10.09,0,0,0,7.36,2.8,11.09,11.09,0,0,0,8.42-3.52,12.58,12.58,0,0,0,3.34-9V34.2h6.33V73.06h-5.12L206.88,66a14.55,14.55,0,0,1-5.73,5.93A16.52,16.52,0,0,1,192.81,74a14.53,14.53,0,0,1-10.61-4A14,14,0,0,1,178.08,59.55Z"/><path class="cls-3" d="M219.09,53.63q0-8.91,5-14.66a16,16,0,0,1,12.65-5.75,15.19,15.19,0,0,1,7.48,1.84,13.93,13.93,0,0,1,5.37,5.27V16.74h6.33V73.06h-5.12L250,66.62a14.7,14.7,0,0,1-5.57,5.5A15.75,15.75,0,0,1,236.71,74a16,16,0,0,1-12.65-5.74Q219.1,62.57,219.09,53.63Zm6.57,0a16.61,16.61,0,0,0,3.53,10.95,11.22,11.22,0,0,0,9.05,4.27,10.8,10.8,0,0,0,8.22-3.37,12.17,12.17,0,0,0,3.18-8.72V50.5a12.21,12.21,0,0,0-3.18-8.68,10.75,10.75,0,0,0-8.22-3.4,11.2,11.2,0,0,0-9.05,4.28A16.63,16.63,0,0,0,225.66,53.63Z"/><path class="cls-3" d="M267.92,68.3q-5.67-5.74-5.66-14.69t5.27-14.67a17.7,17.7,0,0,1,13.61-5.72,16.22,16.22,0,0,1,12.68,5.49q4.92,5.49,4.92,14.2c0,1,0,1.78-.08,2.3H268.58a14.76,14.76,0,0,0,4.43,10,13.92,13.92,0,0,0,10.09,3.85,24.93,24.93,0,0,0,11.76-3.26l2,4.37A31.65,31.65,0,0,1,282.43,74,19.51,19.51,0,0,1,267.92,68.3Zm.66-17.15h24a14.43,14.43,0,0,0-3.37-9.36,10.31,10.31,0,0,0-8.1-3.61,11.54,11.54,0,0,0-8.64,3.55A14.76,14.76,0,0,0,268.58,51.15Z"/><path class="cls-3" d="M305.18,73.06V34.2h5.12l.78,7.34a12.13,12.13,0,0,1,4.69-5.86,13.13,13.13,0,0,1,7.42-2.15,22.28,22.28,0,0,1,4.88.67l-.74,5.19a21.55,21.55,0,0,0-4.65-.66,10,10,0,0,0-8.08,3.66A14.33,14.33,0,0,0,311.51,52v21.1Z"/><path class="cls-3" d="M332,22.36a4.09,4.09,0,0,1,1.22-3.06,4.22,4.22,0,0,1,3.12-1.2,4.12,4.12,0,0,1,3,1.21,4.2,4.2,0,0,1,1.19,3.05,4.07,4.07,0,0,1-4.22,4.22,4.25,4.25,0,0,1-3.12-1.19A4.05,4.05,0,0,1,332,22.36Zm1.14,50.7V34.2h6.33V73.06Z"/><path class="cls-3" d="M348.65,73.06V34.2h5.12l.78,6.79a14.64,14.64,0,0,1,5.51-5.76,15.22,15.22,0,0,1,7.81-2,14,14,0,0,1,8,2.29,11.94,11.94,0,0,1,4.79,6.19,17,17,0,0,1,6-6.25,15.65,15.65,0,0,1,8.27-2.23,13.82,13.82,0,0,1,10.15,3.89A13.37,13.37,0,0,1,409,47.05v26h-6.33V48a9.11,9.11,0,0,0-9.51-9.46,10.48,10.48,0,0,0-8,3.36A12,12,0,0,0,382,50.49V73.06h-6.33V48a9.13,9.13,0,0,0-2.7-6.8,9.42,9.42,0,0,0-6.91-2.66,10.45,10.45,0,0,0-8,3.34A12.08,12.08,0,0,0,355,50.49V73.06Z"/><path class="cls-3" d="M435.65,73.06V19.31h20.26a18.26,18.26,0,0,1,13,4.73,15.89,15.89,0,0,1,5.06,12.15,15.72,15.72,0,0,1-5.1,12.09,18.35,18.35,0,0,1-13,4.71H442V73.06ZM442,47.79h12.87a12.75,12.75,0,0,0,9-3.26,10.84,10.84,0,0,0,3.52-8.34,11,11,0,0,0-3.52-8.38,12.64,12.64,0,0,0-9-3.3H442Z"/><path class="cls-3" d="M479.22,73.06V34.2h5.12l.78,7.34a12.13,12.13,0,0,1,4.69-5.86,13.13,13.13,0,0,1,7.42-2.15,22.28,22.28,0,0,1,4.88.67l-.74,5.19a21.55,21.55,0,0,0-4.65-.66,10,10,0,0,0-8.08,3.66A14.33,14.33,0,0,0,485.55,52v21.1Z"/><path class="cls-3" d="M506.23,22.36a4.12,4.12,0,0,1,1.21-3.06,4.26,4.26,0,0,1,3.13-1.2,4.12,4.12,0,0,1,3,1.21,4.2,4.2,0,0,1,1.19,3.05,4.07,4.07,0,0,1-4.22,4.22,4.29,4.29,0,0,1-3.13-1.19A4.08,4.08,0,0,1,506.23,22.36Zm1.14,50.7V34.2h6.32V73.06Z"/><path class="cls-3" d="M519.18,34.2h6.64l12.3,31.52L550.39,34.2h6.72l-16,38.86H535.2Z"/><path class="cls-3" d="M559.3,62.32A11.07,11.07,0,0,1,564,52.8q4.76-3.4,13.09-3.41a34.66,34.66,0,0,1,8.7,1.14v-4a7.69,7.69,0,0,0-2.65-6,10,10,0,0,0-6.87-2.34A33.3,33.3,0,0,0,563.46,41l-1.78-4.63a42.75,42.75,0,0,1,15.38-3.18,15.48,15.48,0,0,1,10.75,3.72A12.47,12.47,0,0,1,592,46.7V65.5a3.6,3.6,0,0,0,.94,2.62,3.42,3.42,0,0,0,2.58,1,18.26,18.26,0,0,0,2.07-.27l.46,4.8a23.28,23.28,0,0,1-4.14.43,7.52,7.52,0,0,1-5.15-1.74,7.13,7.13,0,0,1-2.34-4.76,16.27,16.27,0,0,1-5.91,4.78A17.22,17.22,0,0,1,572.88,74a14.28,14.28,0,0,1-9.69-3.35A10.6,10.6,0,0,1,559.3,62.32Zm6.33-.39a6.68,6.68,0,0,0,2.5,5.33,9.31,9.31,0,0,0,6.27,2.13,11,11,0,0,0,8.23-3.26,11.52,11.52,0,0,0,3.2-8.42V54.43a35.88,35.88,0,0,0-8-1c-3.82,0-6.81.74-9,2.24A7.18,7.18,0,0,0,565.63,61.93Z"/><path class="cls-3" d="M596.39,39.16v-5h8.08V22.67h6.33V34.2H623v5H610.8V62.1a6.43,6.43,0,0,0,6.72,6.75,25.15,25.15,0,0,0,5.51-.79l.9,4.93A31.45,31.45,0,0,1,616.15,74a11.56,11.56,0,0,1-8.43-3.17,11,11,0,0,1-3.25-8.22V39.16Z"/><path class="cls-3" d="M630.93,68.3q-5.67-5.74-5.67-14.69t5.28-14.67a17.68,17.68,0,0,1,13.61-5.72,16.24,16.24,0,0,1,12.68,5.49q4.92,5.49,4.92,14.2c0,1,0,1.78-.08,2.3H631.59a14.8,14.8,0,0,0,4.42,10,14,14,0,0,0,10.1,3.85,25,25,0,0,0,11.76-3.26l2,4.37A31.68,31.68,0,0,1,645.44,74,19.51,19.51,0,0,1,630.93,68.3Zm.66-17.15h24a14.47,14.47,0,0,0-3.36-9.36,10.31,10.31,0,0,0-8.1-3.61,11.58,11.58,0,0,0-8.65,3.55A14.76,14.76,0,0,0,631.59,51.15Z"/><path class="cls-3" d="M132.6,126.62V90.68H137v15.83h21.5V90.68h4.39v35.94h-4.39V110H137v16.64Z"/><path class="cls-3" d="M170.53,123.44a14.81,14.81,0,0,1,0-19.63,13.82,13.82,0,0,1,19.1,0,14.81,14.81,0,0,1,0,19.63,13.8,13.8,0,0,1-19.1,0Zm.67-9.83a10.8,10.8,0,0,0,2.47,7.35,8.63,8.63,0,0,0,12.8,0,12,12,0,0,0,0-14.66,8.6,8.6,0,0,0-12.79,0A10.74,10.74,0,0,0,171.2,113.61Z"/><path class="cls-3" d="M196,125.26l1-3.17a22.34,22.34,0,0,0,8.36,1.87,6.92,6.92,0,0,0,4.18-1.17,3.61,3.61,0,0,0,1.59-3,3.28,3.28,0,0,0-.64-2,4.16,4.16,0,0,0-1.7-1.32,22.76,22.76,0,0,0-2.39-.91c-.89-.3-1.8-.56-2.74-.78a15.94,15.94,0,0,1-2.75-.94,14.22,14.22,0,0,1-2.38-1.35,5.22,5.22,0,0,1-1.7-2.07,6.81,6.81,0,0,1-.64-3,6.34,6.34,0,0,1,2.66-5.26,10.79,10.79,0,0,1,6.82-2.06,23,23,0,0,1,8.74,1.86l-1,3.17A19.51,19.51,0,0,0,206,103.3a6.7,6.7,0,0,0-4,1.1,3.42,3.42,0,0,0-1.53,2.9,3,3,0,0,0,.82,2.17,5.62,5.62,0,0,0,2.13,1.36,27,27,0,0,0,2.9.91c1.06.28,2.12.61,3.16,1a15.8,15.8,0,0,1,2.87,1.34,5.9,5.9,0,0,1,2.11,2.23,6.89,6.89,0,0,1,.82,3.46,6.63,6.63,0,0,1-2.65,5.42,10.81,10.81,0,0,1-6.91,2.11A26.38,26.38,0,0,1,196,125.26Z"/><path class="cls-3" d="M219.64,137.75V100.63h3.42l.52,4.34a9.53,9.53,0,0,1,3.67-3.7A11.28,11.28,0,0,1,241,103.82a14.43,14.43,0,0,1,3.33,9.81,14.43,14.43,0,0,1-3.33,9.8,10.69,10.69,0,0,1-8.45,3.85,10.32,10.32,0,0,1-5-1.22,9.89,9.89,0,0,1-3.64-3.49v15.18Zm4.18-22a8.09,8.09,0,0,0,2.14,5.83,7.3,7.3,0,0,0,5.54,2.25,7.5,7.5,0,0,0,6-2.85,12.43,12.43,0,0,0,0-14.63,7.49,7.49,0,0,0-6-2.87,7.28,7.28,0,0,0-5.54,2.27,8.08,8.08,0,0,0-2.14,5.81Z"/><path class="cls-3" d="M248,92.72a2.74,2.74,0,0,1,.81-2,2.83,2.83,0,0,1,2.09-.8,2.73,2.73,0,0,1,2,.81,2.79,2.79,0,0,1,.79,2,2.72,2.72,0,0,1-2.82,2.82,2.87,2.87,0,0,1-2.09-.8A2.72,2.72,0,0,1,248,92.72Zm.76,33.9v-26H253v26Z"/><path class="cls-3" d="M256.77,104v-3.32h5.41v-7.7h4.23v7.7h8.18V104h-8.18v15.34a4.29,4.29,0,0,0,4.5,4.51,16.57,16.57,0,0,0,3.68-.52l.6,3.3a21.37,21.37,0,0,1-5.2.7,7.74,7.74,0,0,1-5.64-2.12,7.35,7.35,0,0,1-2.17-5.5V104Z"/><path class="cls-3" d="M278.28,119.44a7.39,7.39,0,0,1,3.17-6.37q3.17-2.28,8.75-2.28a23.48,23.48,0,0,1,5.81.76v-2.66a5.12,5.12,0,0,0-1.77-4,6.69,6.69,0,0,0-4.59-1.56,22.32,22.32,0,0,0-8.6,1.9l-1.19-3.1A28.81,28.81,0,0,1,290.15,100a10.35,10.35,0,0,1,7.19,2.49,8.33,8.33,0,0,1,2.78,6.52v12.57a2.39,2.39,0,0,0,.62,1.75,2.31,2.31,0,0,0,1.73.65,12,12,0,0,0,1.38-.18l.32,3.21a16.2,16.2,0,0,1-2.77.29,5,5,0,0,1-3.45-1.17,4.81,4.81,0,0,1-1.57-3.18,10.83,10.83,0,0,1-3.95,3.19,11.49,11.49,0,0,1-5.07,1.16,9.58,9.58,0,0,1-6.48-2.24A7.08,7.08,0,0,1,278.28,119.44Zm4.23-.26a4.45,4.45,0,0,0,1.67,3.56,6.23,6.23,0,0,0,4.2,1.43,7.39,7.39,0,0,0,5.5-2.18,7.73,7.73,0,0,0,2.13-5.63v-2.2a24.14,24.14,0,0,0-5.34-.65,10.42,10.42,0,0,0-6,1.5A4.8,4.8,0,0,0,282.51,119.18Z"/><path class="cls-3" d="M307.26,121V89h4.23v31.72a3.1,3.1,0,0,0,.84,2.28,3.06,3.06,0,0,0,2.3.85,12.41,12.41,0,0,0,2.59-.36l.52,3.34a19.18,19.18,0,0,1-4,.5,6.5,6.5,0,0,1-4.74-1.69A6.07,6.07,0,0,1,307.26,121Z"/></g></g></svg>