<?xml version="1.0" encoding="utf-8"?>
<!-- Generator: Adobe Illustrator 24.1.0, SVG Export Plug-In . SVG Version: 6.00 Build 0)  -->
<svg version="1.1" id="Layer_1" xmlns="http://www.w3.org/2000/svg" xmlns:xlink="http://www.w3.org/1999/xlink" x="0px" y="0px"
	 viewBox="0 0 283.4 88.7" style="enable-background:new 0 0 283.4 88.7;" xml:space="preserve">
<style type="text/css">
	.st0{fill:#58707F;}
	.st1{fill:#7E919B;}
	.st2{fill:none;}
	.st3{fill:#D8DDDE;}
	.st4{fill:#7E929C;}
</style>
<g>
	<path class="st0" d="M107.6,11.5c-0.5,0.2-0.6,0-0.8-0.4c-0.9-2.2-1.9-4.4-3.4-6.2c-1.3-1.6-2.9-2.8-5-3.3
		c-1.2-0.2-2.4-0.3-3.5,0.1c-1.8,0.6-2.9,2-3,3.9c-0.1,2.2,0.8,3.8,2.5,5c1.5,1.1,3.3,1.7,5,2.4c2.3,0.9,4.7,1.8,6.8,3.2
		c4.7,3.2,3.9,8.7,1.2,11.6c-1.9,2.1-4.4,3.1-7.1,3.7c-2.6,0.5-5.1,0.2-7.7-0.1c-1.9-0.3-3.8-0.3-5.6,0.1c-0.2,0-0.4,0.1-0.7,0
		c-0.3-3.7-0.6-7.5-0.9-11.2c0.5-0.2,0.7,0,0.8,0.4c0.9,2.2,1.9,4.3,3.4,6.2c2.8,3.6,7.4,4.1,10.4,2.9c2.7-1.1,4-4.2,2.7-6.6
		c-0.5-1-1.3-1.7-2.2-2.3c-1.9-1.3-4.1-2-6.2-3c-2.4-1-4.7-2.2-6.5-4.1c-2.8-2.9-3.2-7.1-1-10.2c1.4-2,3.5-2.9,5.8-3.4
		c2.8-0.6,5.6-0.2,8.3,0.2c1.8,0.2,3.6,0.2,5.4-0.2c0.1,0,0.2-0.1,0.4,0C107,4,107.3,7.7,107.6,11.5z"/>
	<path class="st0" d="M209,30c0,2.3,0,4.5,0,6.6c0,1.2,0.7,2,1.8,2.5c0.2,0.1,0.5,0.1,0.5,0.5c-0.1,0.3-0.4,0.2-0.6,0.2
		c-3.2,0-6.3,0-9.5,0c-0.2,0-0.5,0.1-0.6-0.2c-0.1-0.3,0.2-0.4,0.5-0.5c1.2-0.6,1.9-1.6,1.8-2.9c0-7.2,0-14.5,0-21.7
		c0-1.4-0.7-2.3-1.9-2.9c-0.2-0.1-0.5-0.2-0.4-0.6c2.7-0.5,5.5-1,8.3-1.5c0.2,0.6,0,1.1,0.1,1.6c0.8-0.5,1.5-1,2.3-1.2
		c4.8-1.5,10.5,0,12.3,6.4c0.9,3.5,0.9,6.9-0.6,10.3c-1.7,3.8-5.3,5.8-9.5,5.3c-0.8-0.1-1.6-0.3-2.4-0.5
		C210.4,30.9,209.7,30.5,209,30z M208.9,20.6c0,2.6,0,5.3,0,7.9c0,0.2,0,0.5,0.2,0.6c1.1,0.6,2.2,0.9,3.5,0.8
		c1.8-0.2,2.9-1.2,3.7-2.7c1.1-1.9,1.3-4.1,1.4-6.2c0-2.2-0.2-4.3-1-6.4c-1.5-3.5-4.7-4.1-7.3-2.7c-0.4,0.2-0.5,0.4-0.5,0.9
		C208.9,15.3,208.9,17.9,208.9,20.6z"/>
	<path class="st0" d="M277.2,3.8c0,2,0,4,0,6.1c1.9,0,3.7,0,5.5,0c0.2,0.5,0.1,0.9,0.1,1.5c-1.9,0-3.7,0-5.5,0
		c-0.2,0.3-0.1,0.5-0.1,0.7c0,4.2,0,8.4,0,12.6c0,0.8,0,1.6,0.4,2.4c0.3,0.8,0.8,1.3,1.6,1.6c1.4,0.5,2.8,0.4,4.1-0.2
		c0.3,0.9,0.2,1.2-0.4,1.6c-2.8,2.1-7.1,2.2-9.6,0c-1.4-1.1-2-2.6-2-4.4c0-4.5,0-8.9,0-13.4c0-0.2,0-0.5,0-0.8c-0.8,0-1.6,0-2.4,0
		c-0.1,0.7,0,1.4-0.3,2.1c-0.2,0.5-0.5,0.9-0.9,1.2c-0.7,0.5-1.2,0.5-1.8-0.1c-0.9-0.8-1.8-1.7-2.7-2.5c-0.3-0.3-0.5-0.4-0.9-0.3
		c-0.4,0.1-0.7,0.2-1.1,0.3c-1.5,0.6-1.7,0.8-1.7,2.4c0,4.2,0,8.4,0,12.6c0,1.6,0.5,2.8,2,3.5c0.2,0.1,0.4,0.3,0.2,0.6
		c-3.5,0-7,0-10.5,0c-0.2-0.3,0-0.5,0.2-0.6c1.5-0.6,2-1.8,2-3.3c0-4.2,0-8.3,0-12.5c0-1.5-0.5-2.6-1.9-3.3
		c-0.2-0.1-0.3-0.2-0.3-0.4c0-0.3,0.2-0.2,0.3-0.3c2.6-0.5,5.1-1,7.7-1.4c0.1,0,0.1,0,0.3,0c0,0.9,0,1.8,0,2.8
		c0.9-0.6,1.7-1.2,2.6-1.7c1.3-0.8,2.6-1.4,4.1-1.2c0.7,0.1,1.3,0.3,1.8,0.7c0.3,0.3,0.6,0.3,0.9,0.2c3.7-0.5,6.2-2.7,7.7-6
		C276.6,4,276.7,3.6,277.2,3.8z"/>
	<path class="st0" d="M199,31.2c-3.5,0-7,0-10.5,0c-0.1-0.3,0-0.5,0.3-0.6c1.4-0.6,1.9-1.8,1.9-3.2c0-4.5-0.1-9,0-13.5
		c0-2.5-1.6-2.9-3.3-2.7c-1,0.1-1.9,0.6-2.7,1.2c-0.2,0.2-0.3,0.4-0.3,0.7c0,4.8,0,9.5,0,14.3c0,1.4,0.6,2.5,1.9,3.1
		c0.3,0.1,0.5,0.2,0.4,0.6c-3.5,0-7,0-10.5,0c-0.1-0.3,0-0.5,0.2-0.6c1.6-0.6,2.1-1.9,2.1-3.6c0-3.9,0-7.9,0-11.8c0-3.2,0-6.3,0-9.5
		c0-1.6-0.5-2.9-2.1-3.5c-0.2-0.1-0.3-0.1-0.3-0.3c0-0.2,0.2-0.3,0.3-0.3c2.6-0.5,5.2-0.9,7.8-1.4c0,0,0.1,0,0.2,0.1
		c0,3.8,0,7.6,0,11.5c0.5-0.4,0.9-0.7,1.3-1c2.6-2.1,6.6-1.8,8.5-0.4c1.7,1.2,2.5,3,2.5,5c0.1,3.9,0,7.8,0,11.7
		c0,1.6,0.5,2.8,2.1,3.5C199,30.7,199.2,30.8,199,31.2z"/>
	<path class="st0" d="M144.4,9.5c0.1,0.3,0.1,0.5,0.1,0.8c0,5.7,0.1,11.4,0,17c0,2.1,1.4,2.8,3.1,2.6c1.1-0.1,2-0.5,2.8-1.2
		c0.2-0.2,0.3-0.4,0.3-0.7c0-4.4,0-8.8,0-13.2c0-1.5-0.5-2.6-2-3.2c-0.2-0.1-0.4-0.2-0.3-0.6c2.7-0.5,5.4-1,8.1-1.5
		c0.2,0.3,0.1,0.6,0.1,0.8c0,5.1,0,10.2,0,15.3c0,0.5,0,0.9,0,1.4c0,1.4,0.7,2.4,1.8,3.1c0.2,0.1,0.6,0.2,0.4,0.7
		c-2.7,0.3-5.4,0.6-8.3,0.8c0-0.8,0-1.5,0-2.3c-0.7,0.5-1.2,0.9-1.8,1.3c-2.3,1.5-4.7,1.6-7.1,0.5c-2.3-1-3.3-3-3.4-5.4
		c-0.1-3.6-0.1-7.1,0-10.7c0-1.6-0.5-2.9-2.1-3.6c-0.1-0.1-0.3-0.1-0.3-0.4c0-0.3,0.2-0.2,0.3-0.3c2.6-0.5,5.1-1,7.7-1.4
		C144.2,9.5,144.3,9.5,144.4,9.5z"/>
	<path class="st0" d="M238.1,9.3c4.3,0,7.8,1.7,9.6,5.7c2.1,4.6,1.8,9.2-1.6,13.2c-2.4,2.9-5.7,3.8-9.3,3.4
		c-5.1-0.5-8.3-3.5-9.4-8.6c-0.7-3.4-0.3-6.6,1.7-9.5c1.9-2.7,4.6-4,7.8-4.3C237.3,9.3,237.7,9.3,238.1,9.3z M233.7,19.1
		c0,2.4,0.2,4.8,0.8,7.1c0.4,1.4,0.9,2.7,1.9,3.7c1.3,1.2,3,1.1,4.1-0.2c0.7-0.9,1.1-2,1.3-3.1c0.7-4,0.5-7.9-0.5-11.8
		c-0.4-1.5-1-2.8-2.2-3.8c-1.2-0.9-2.7-0.8-3.7,0.4c-0.4,0.5-0.7,1.1-1,1.7C233.8,15,233.8,17,233.7,19.1z"/>
	<path class="st0" d="M123.4,9.3c4.8,0,8.6,2.4,10.1,6.6c1.4,4,1.1,7.9-1.3,11.4c-1.8,2.7-4.5,4.1-7.7,4.3c-3.7,0.3-7-0.7-9.5-3.7
		c-1.5-1.8-2.2-4-2.4-6.3c-0.2-2.4,0.1-4.6,1.1-6.8c1.8-3.6,4.8-5.3,8.7-5.6C122.7,9.3,123.1,9.3,123.4,9.3z M119,19
		c0,2,0.2,3.9,0.5,5.9c0.3,1.6,0.8,3.2,1.8,4.6c1.4,1.8,3.6,1.7,4.8-0.2c0.6-0.9,0.9-1.9,1.1-2.9c0.7-3.7,0.5-7.4-0.4-11.1
		c-0.3-1.4-0.9-2.8-2-3.9c-0.7-0.7-1.6-1.1-2.7-0.9c-1.1,0.3-1.8,1.1-2.2,2.1C119.2,14.6,119.1,16.8,119,19z"/>
	<path class="st0" d="M174.2,9.9c0,0.5,0,0.9,0,1.4c-1.8,0-3.6,0-5.4,0c-0.2,0.3-0.2,0.5-0.2,0.7c0,4.1,0,8.3,0,12.4
		c0,0.8,0,1.6,0.3,2.3c0.3,0.9,0.9,1.5,1.7,1.8c1.3,0.4,2.5,0.4,3.7-0.1c0.1,0,0.2-0.1,0.3-0.1c0,0,0,0,0.1,0
		c0.1,0.6,0.1,1.1-0.5,1.6c-2.8,2.2-7.6,2.1-10-0.2c-1.4-1.3-1.8-3-1.8-4.8c0-4.2,0-8.4,0-12.7c0-0.3,0-0.5,0-0.9c-1,0-1.9,0-2.9,0
		c-0.1-0.4-0.1-0.7,0-1c1.1-0.2,2.2-0.4,3.3-0.8c2.4-1,3.9-3,5-5.3c0.2-0.4,0.2-0.4,0.7-0.4c0,2,0,4,0,6.1
		C170.5,9.9,172.3,9.9,174.2,9.9z"/>
</g>
<g>
	<path class="st0" d="M174.6,47.9c0.4,0.2,0.7,0.4,1,0.6c4.1,2.7,3.8,8.2-0.5,10.5c-2.4,1.3-5.1,1.6-7.7,1.3
		c-0.9-0.1-1.5-0.1-1.9,0.8c-0.2,0.4-0.5,0.7-0.8,1.2c1.7,0.4,3.3,0.8,4.9,1.1c2.3,0.6,4.6,0.9,6.8,1.7c1.6,0.5,3,1.3,3.8,2.8
		c1,1.8,0.7,4.2-0.7,5.9c-1.4,1.7-3.3,2.6-5.4,3.1c-3.5,0.8-7.1,0.8-10.5-0.2c-1.3-0.4-2.5-0.9-3.5-1.7c-1.7-1.4-1.8-3.4-0.3-5
		c1.1-1.2,2.5-1.8,4-2.4c0.5-0.2,1-0.4,1.5-0.6c-1.5-0.4-2.8-0.7-4.1-1.1c-0.3-0.1-0.8,0-0.9-0.4c-0.2-0.4,0.3-0.6,0.6-0.9
		c1.3-1.4,2.7-2.8,4-4.2c0.1-0.1,0.3-0.3,0.4-0.5c-0.9-0.3-1.8-0.7-2.5-1.2c-3.8-2.7-3.4-8.1,0.8-10.4c1.9-1,4-1.3,6.1-1.3
		c1.3,0,2.6,0.2,3.8,0.6c0.3,0.1,0.5,0,0.7-0.2c0.5-0.7,1-1.4,1.6-2c1.5-1.8,3.7-2.5,5.6-1.8c1.2,0.4,1.8,1.8,1.2,3
		c-0.1,0.3-0.4,0.2-0.6,0.2c-1.7,0-3.4,0-5-0.1c-0.6,0-1.1,0.1-1.4,0.6C175.1,47.4,174.8,47.6,174.6,47.9z M169.6,76.2
		c1.4,0,2.8-0.3,4-1.2c1.2-0.9,1.8-2.1,1.6-3.6c-0.2-1.4-1.2-2.1-2.4-2.5c-2.1-0.6-4.1-1.1-6.2-1.7c-0.3-0.1-0.4,0-0.6,0.2
		c-0.6,0.6-1.2,1.4-1.5,2.2c-1,2.5,0,5.1,2.3,6.1C167.7,76,168.6,76.2,169.6,76.2z M172.9,54.2c0-0.4,0-0.8,0-1.1
		c-0.1-1.4-0.5-2.8-1.4-3.9c-0.9-1.1-2.1-1.5-3.4-1.2c-1.2,0.3-1.9,1.1-2.3,2.2c-0.5,1.4-0.4,2.9-0.3,4.3c0.1,1.2,0.5,2.4,1.2,3.4
		c0.8,1,1.8,1.5,3.1,1.4c1.4-0.1,2.3-0.9,2.8-2.2C172.9,56.2,173,55.2,172.9,54.2z"/>
	<path class="st0" d="M149.5,48.6c0-2.1,0-4,0-6c0-1.2-0.7-2.1-1.8-2.6c-0.2-0.1-0.4-0.1-0.4-0.4c0.1-0.3,0.3-0.2,0.5-0.3
		c2.3-0.4,4.5-0.9,6.8-1.3c0.2,0,0.5-0.1,0.7,0c0.1,0.2,0.1,0.5,0.1,0.8c0,8.2,0,16.4,0,24.7c0,1.7,0.5,3,2,3.8
		c0.2,0.1,0.3,0.2,0.2,0.4c0,0.2-0.2,0.2-0.4,0.3c-2.1,0.2-4.2,0.4-6.3,0.6c-0.5,0-0.9,0.2-1.4,0.1c0-0.4,0-0.9,0-1.4
		c-0.7,0.4-1.3,0.8-2,1.1c-4.5,1.6-10,0.3-11.9-5.2c-1.3-3.6-1.3-7.3,0.2-10.9c1.5-3.5,4.5-5.3,8.3-5.2
		C146.1,46.9,147.9,47.3,149.5,48.6z M149.5,57.8c0-2.6,0-5.2,0-7.8c0-0.4-0.1-0.6-0.4-0.7c-2.6-1.3-5.3-0.5-6.6,2
		c-1,2-1.3,4.1-1.3,6.3c0,2.2,0.2,4.4,1.1,6.4c1.4,3.2,4.3,3.7,6.9,2.4c0.4-0.2,0.5-0.4,0.5-0.8C149.5,63,149.5,60.4,149.5,57.8z"/>
	<path class="st0" d="M97.7,38.4c0.2,0.4,0,0.5-0.2,0.6c-0.5,0.2-0.9,0.4-1.4,0.8c-0.7,0.5-1,1.1-1,1.9c0,8.2,0,16.4,0,24.6
		c0,0.2,0,0.3,0,0.5c0,0,0.1,0.1,0.1,0.1c1.8,0,3.6,0.2,5.3-0.2c2.3-0.4,3.8-1.8,5-3.8c1-1.7,1.7-3.6,2.3-5.5
		c0.1-0.4,0.2-0.7,0.8-0.5c-0.3,3.9-0.6,7.8-0.9,11.8c-0.7-0.1-1.4-0.2-2-0.2c-1.4-0.2-2.9-0.2-4.3-0.2c-4.8,0-9.6,0-14.4,0
		c-0.2,0-0.3,0-0.5,0c-0.2,0-0.3,0-0.4-0.2c0-0.2,0.1-0.3,0.3-0.3c0.4-0.2,0.8-0.4,1.2-0.6c0.8-0.5,1.2-1.2,1.2-2.1
		c0-7.7,0-15.5,0-23.2c0-1.3-0.8-2-1.8-2.5c-0.3-0.2-0.9-0.1-0.8-0.6c0.1-0.4,0.6-0.2,0.9-0.2c3.3,0,6.6,0,9.8,0
		C97.3,38.4,97.5,38.4,97.7,38.4z"/>
	<path class="st0" d="M121.4,46.8c4.8,0,8.6,2.5,9.9,6.9c1.4,4.5,0.8,8.7-2.6,12.2c-1.7,1.8-3.9,2.6-6.4,2.8
		c-2.9,0.2-5.5-0.4-7.8-2.3c-1.9-1.6-3-3.6-3.5-6c-0.5-2.7-0.4-5.3,0.7-7.8c1.7-3.7,4.7-5.5,8.7-5.8
		C120.8,46.8,121.1,46.8,121.4,46.8z M117.3,56.4c0,0.9,0,1.8,0,2.6c0.1,0.9,0.2,1.7,0.3,2.6c0.3,1.7,0.7,3.4,1.8,4.8
		c1.3,1.8,3.5,1.7,4.7-0.1c0.5-0.8,0.8-1.7,1-2.7c0.7-3.8,0.5-7.6-0.5-11.4c-0.4-1.4-1-2.8-2.2-3.8c-1-0.8-2.3-0.8-3.3,0
		c-0.6,0.5-1,1.2-1.3,2C117.3,52.3,117.2,54.4,117.3,56.4z"/>
	<path class="st0" d="M201.5,63.8c0.2,0.5,0,0.9-0.3,1.3c-1.2,1.6-2.9,2.6-4.8,3.1c-3.2,0.9-6.4,0.7-9.3-1c-2.8-1.6-4.4-4-5-7.2
		c-0.5-2.8-0.3-5.6,1.1-8.1c2-3.7,5.3-5.3,9.4-5.2c1.9,0,3.7,0.4,5.4,1.4c2.5,1.6,3.7,4,4,6.8c0.1,1.1,0.1,2.1-0.1,3.2
		c-4.6,0-9.1,0-13.6,0c0.4,3.5,2.6,6.2,5.6,6.8c2.6,0.5,5,0.1,7.3-1.1C201.2,63.9,201.3,63.8,201.5,63.8z M188,57c2.6,0,5.1,0,7.6,0
		c0.2,0,0.3-0.1,0.4-0.3c0.7-2.1,0.9-4.1,0.2-6.2c-0.5-1.4-1.4-2.5-3.1-2.6c-1.6-0.1-2.8,0.7-3.6,1.9c-1,1.4-1.4,2.9-1.5,4.5
		C187.9,55.2,187.7,56.1,188,57z"/>
</g>
<g>
	<path class="st0" d="M109.1,78.3h4.4v1.5h-2.8v2.7h2.2v1.5h-2.2v3.1h2.8v1.5h-4.4V78.3z"/>
	<path class="st0" d="M114.6,86.1v-0.6h1.5v0.7c0,0.7,0.3,1,0.8,1c0.5,0,0.8-0.3,0.8-1c0-0.8-0.3-1.4-1.4-2.3
		c-1.3-1.2-1.8-2-1.8-3.2c0-1.6,0.8-2.5,2.4-2.5c1.6,0,2.3,0.9,2.3,2.6v0.4h-1.5v-0.5c0-0.7-0.3-1-0.8-1c-0.5,0-0.8,0.3-0.8,1
		c0,0.7,0.3,1.3,1.4,2.2c1.3,1.2,1.8,2,1.8,3.3c0,1.7-0.8,2.6-2.4,2.6S114.6,87.7,114.6,86.1z"/>
	<path class="st0" d="M121.9,79.8h-1.7v-1.5h5v1.5h-1.7v8.7h-1.6V79.8z"/>
	<path class="st0" d="M125.3,87h1.5v1.5h-1.5V87z"/>
</g>
<g>
	<path class="st0" d="M132.8,80.7h-1.7v-1.1c1.4,0,1.8-0.3,2.2-1.3h1.1v10.2h-1.6V80.7z"/>
	<path class="st0" d="M136.7,86.1v-0.2h1.5v0.3c0,0.7,0.3,1,0.8,1c0.6,0,0.9-0.3,0.9-1.3v-2h0c-0.3,0.6-0.7,0.9-1.5,0.9
		c-1.2,0-1.8-0.8-1.8-2.3v-1.8c0-1.6,0.9-2.6,2.4-2.6s2.4,0.9,2.4,2.6V86c0,1.7-0.8,2.7-2.4,2.7C137.5,88.7,136.7,87.7,136.7,86.1z
		 M140,82.4v-1.8c0-0.7-0.3-1-0.8-1c-0.6,0-0.8,0.3-0.8,1v1.8c0,0.7,0.3,1,0.8,1C139.7,83.4,140,83.1,140,82.4z"/>
	<path class="st0" d="M143,86.1v-0.2h1.5v0.3c0,0.7,0.3,1,0.8,1c0.6,0,0.9-0.3,0.9-1.3v-2h0c-0.3,0.6-0.7,0.9-1.5,0.9
		c-1.2,0-1.8-0.8-1.8-2.3v-1.8c0-1.6,0.9-2.6,2.4-2.6c1.6,0,2.4,0.9,2.4,2.6V86c0,1.7-0.8,2.7-2.4,2.7C143.8,88.7,143,87.7,143,86.1
		z M146.2,82.4v-1.8c0-0.7-0.3-1-0.8-1c-0.6,0-0.8,0.3-0.8,1v1.8c0,0.7,0.3,1,0.8,1C145.9,83.4,146.2,83.1,146.2,82.4z"/>
	<path class="st0" d="M151.6,80.7h-1.7v-1.1c1.4,0,1.8-0.3,2.2-1.3h1.1v10.2h-1.6V80.7z"/>
</g>
<rect x="85.3" y="82.7" class="st0" width="19.3" height="1"/>
<path class="st1" d="M32.6,26.2l-0.2,0.2l0.6,0.6C32.9,26.7,32.8,26.4,32.6,26.2z"/>
<path class="st2" d="M37.7,28.6c-1.2,2.2-2.7,4.2-4.6,6.1c-1.9,1.9-3.9,3.4-6.1,4.6c2.2,1.2,4.2,2.8,6.1,4.6
	c1.9,1.9,3.4,3.9,4.6,6.1c1.2-2.2,2.7-4.2,4.6-6.1c1.9-1.9,3.9-3.4,6.1-4.6c-2.2-1.2-4.2-2.8-6.1-4.6C40.5,32.8,38.9,30.8,37.7,28.6
	z"/>
<path class="st3" d="M37.7,50c-4.7,8.4-4.7,18.6,0,27l0,0l0,0C42.4,68.6,42.4,58.4,37.7,50z"/>
<path class="st3" d="M48.4,39.3c8.4,4.7,18.6,4.7,27,0l0,0C67,34.6,56.8,34.6,48.4,39.3z"/>
<g>
	<path class="st4" d="M37.7,50c-1.2-2.2-2.7-4.2-4.6-6.1c-1.9-1.9-3.9-3.4-6.1-4.6C18.6,44,8.4,44,0,39.3l11.2,11.2
		c2,2,5.1,2.5,7.7,1.3l10.2-5c0.8-0.4,1.7,0.5,1.3,1.3l-5,10.3c-1.2,2.6-0.7,5.6,1.3,7.6L37.7,77C33,68.6,33,58.4,37.7,50z"/>
	<path class="st4" d="M75.4,39.3L75.4,39.3c-8.4,4.7-18.6,4.7-27,0c-2.2,1.2-4.2,2.8-6.1,4.6c-1.9,1.9-3.4,3.9-4.6,6.1
		c4.7,8.4,4.7,18.6,0,27l11.2-11.2c2-2,2.5-5.1,1.3-7.7l-5-10.2c-0.4-0.8,0.5-1.7,1.3-1.3l10.3,5c2.6,1.2,5.6,0.7,7.6-1.3L75.4,39.3
		C75.4,39.3,75.4,39.3,75.4,39.3z"/>
	<path class="st4" d="M37.7,28.6c1.2,2.2,2.7,4.2,4.6,6.1c1.9,1.9,3.9,3.4,6.1,4.6c8.4-4.7,18.6-4.7,27,0L64.2,28.1
		c-2-2-5.1-2.5-7.7-1.3l-10.2,5c-0.8,0.4-1.7-0.5-1.3-1.3l5-10.3c1.2-2.6,0.7-5.6-1.3-7.6L37.7,1.6C42.4,10,42.4,20.3,37.7,28.6z"/>
	<path class="st4" d="M27,39.3c2.2-1.2,4.2-2.8,6.1-4.6c1.9-1.9,3.4-3.9,4.6-6.1c-4.7-8.4-4.7-18.6,0-27L26.5,12.8
		c-2,2-2.5,5.1-1.3,7.7l5,10.2c0.4,0.8-0.5,1.7-1.3,1.3l-10.3-5c-2.6-1.2-5.6-0.7-7.6,1.3L0,39.3C8.4,34.6,18.6,34.6,27,39.3z"/>
</g>
<path class="st3" d="M27,39.3c-8.4-4.7-18.6-4.7-27,0l0,0l0,0C8.4,44,18.6,44,27,39.3z"/>
<path class="st3" d="M37.7,28.6c4.7-8.4,4.7-18.6,0-27l0,0l0,0C33,10,33,20.3,37.7,28.6z"/>
<g>
	<path class="st0" d="M37.7,50c-4.7,8.4-4.7,18.6,0,27l0,0l0,0C42.4,68.6,42.4,58.4,37.7,50z"/>
	<path class="st0" d="M48.4,39.3c8.4,4.7,18.6,4.7,27,0l0,0C67,34.6,56.8,34.6,48.4,39.3z"/>
	<path class="st0" d="M27,39.3c-8.4-4.7-18.6-4.7-27,0l0,0l0,0C8.4,44,18.6,44,27,39.3z"/>
	<path class="st0" d="M37.7,28.6c4.7-8.4,4.7-18.6,0-27l0,0l0,0C33,10,33,20.3,37.7,28.6z"/>
</g>
</svg>
