<?xml version="1.0" encoding="UTF-8"?>
<svg xmlns="http://www.w3.org/2000/svg" xmlns:xlink="http://www.w3.org/1999/xlink" version="1.1" viewBox="0 0 198.1 101.6">
  <defs>
    <style>
      .cls-1 {
        fill: #5e6673;
      }

      .cls-1, .cls-2, .cls-3 {
        fill-rule: evenodd;
      }

      .cls-2 {
        fill: url(#GradientFill_1);
      }

      .cls-3 {
        fill: url(#GradientFill_2);
      }
    </style>
    <linearGradient id="GradientFill_1" data-name="GradientFill 1" x1="241.2" y1="184.3" x2="90.9" y2="-38.6" gradientUnits="userSpaceOnUse">
      <stop offset="0" stop-color="#45a24f"/>
      <stop offset=".5" stop-color="#006a97"/>
      <stop offset="1" stop-color="#008dcb"/>
    </linearGradient>
    <linearGradient id="GradientFill_2" data-name="GradientFill 2" x1="233.8" y1="147.2" x2="98.7" y2="-25.6" gradientUnits="userSpaceOnUse">
      <stop offset="0" stop-color="#6aaf76"/>
      <stop offset=".6" stop-color="#00a0b4"/>
      <stop offset="1" stop-color="#91d3ee"/>
    </linearGradient>
  </defs>
  <!-- Generator: Adobe Illustrator 28.7.1, SVG Export Plug-In . SVG Version: 1.2.0 Build 142)  -->
  <g>
    <g id="_Слой_1" data-name="Слой_1">
      <g>
        <path class="cls-2" d="M148.1,81.2h0s0,0,0,0c-11.9-17.1-8.3-28.2-4.9-38.9.7-2.1,1.4-4.2,1.9-6.2.1-.5.2-1,.3-1.4h0c0-.3,0-.5.1-.7h0s0-.2,0-.2h0c.6-4.1.3-8.7-3.1-13.6h0c-1.9-2.7-4.4-4.8-6.9-5.9-2.5-1.2-5-1.5-7-.6h0s0,0,0,0c-1.9.9-2.9,2.8-2.9,5.2,0,2.2.8,4.9,2.4,7.4,1.7,2.6,3.7,4.4,4.8,5.2-2.5-1.9-4.8-4.3-6.8-7.1-4.9-7-5.9-14.3-3.1-18.7.8-1.3,2-2.3,3.5-3,2.6-1.2,5.9-1.1,9.3,0,5.8,2.8,11.4,7.7,15.5,13.5h0c10.3,14.8,7.1,24.7,3.8,34.8-.2.6-.4,1.1-.6,1.7-.6,1.8-1.1,3.7-1.5,5.6h0c0,.1,0,.3,0,.4h0c0,.1,0,.2,0,.4h0c0,.2,0,.3,0,.4h0c-1,5.6-.2,11.9,4.5,18.4,2.9,4.1,6.9,7.5,11.1,9.3,4.2,1.9,8.5,2.3,11.9.7h0s0,0,0,0c3.4-1.6,5.2-4.7,5.4-8.7.3-6.9-4.8-15.5-11.9-20.5,2,1.4,5.9,3.9,10.8,10.8,7.7,11.1,8.7,22.9,3,28.8-1.8,1.8-4.1,3-6.9,3.5-3.9,0-8.1-1-12.2-2.9-7.8-3.5-15-9.8-20.5-17.5Z"/>
        <path class="cls-3" d="M173.4,46c5.7,3.3,11.4,8.2,16.7,15.8h0c5.7,8.2,8.3,16.4,8,23.3-.3,6.8-3.4,12.2-9.1,14.9h0s0,0,0,0c-2.5,1.1-5.2,1.7-8.2,1.6,1.2-.2,2.3-.5,3.3-1,1.4-.6,2.5-1.5,3.5-2.5,5.7-5.9,4.7-17.7-3-28.8-4.9-6.9-8.8-9.5-10.8-10.8.1,0,.2.2.4.3-4.4-3.2-9.3-4.9-14.3-6.2-6.1-1.6-12.1-2.7-18.3-4.9-7.8-2.8-15.3-7.4-22-17h0s0,0,0,0c-4.3-6.1-6.4-12.5-6.3-17.8,0-5.3,2.3-9.6,6.7-11.6h0s0,0,0,0h0c4.2-1.9,9.9-1.5,15.8,1.3-3.4-1.2-6.7-1.2-9.3,0-1.5.7-2.6,1.7-3.5,3-2.8,4.4-1.7,11.8,3.1,18.7,3.7,5.3,8.7,9.1,13.5,10.8,4.1,1.7,8.2,2.5,12.2,3.5,7.1,1.7,14.1,3.2,21.4,7.4Z"/>
        <g>
          <path class="cls-1" d="M0,49.7v27.4h5.7v-27.4H0ZM14.9,55.5h0c.5,0,.9,0,1.2,0,.4,0,.7.2,1,.4.3.2.7.5,1.1.9.4.4.9,1,1.5,1.7.6.7,1.3,1.6,2.1,2.7.8,1.1,1.8,2.4,3,3.9,1.2,1.6,2.4,3.1,3.3,4.3,1,1.2,1.9,2.3,2.7,3.2.8.9,1.6,1.6,2.4,2.2.8.6,1.5,1,2.3,1.4.8.3,1.6.6,2.5.7.9.1,1.9.2,3,.2h4v-27.4h-5.7v21.6h0c-.5,0-.9,0-1.3,0-.4,0-.8-.2-1.1-.4-.4-.2-.8-.5-1.2-.9-.4-.4-.9-1-1.5-1.7-.6-.7-1.2-1.6-2-2.7-.8-1.1-1.7-2.3-2.8-3.8-1.1-1.6-2.2-3-3.1-4.2-.9-1.2-1.8-2.3-2.6-3.1-.8-.9-1.6-1.6-2.3-2.2-.8-.6-1.5-1.1-2.4-1.4-.8-.3-1.7-.6-2.7-.7-1-.2-2.1-.2-3.3-.2h-4v27.4h5.7v-21.6h0ZM82,55.3v-5.6h-18.2c-2.5,0-4.6.2-6.4.6-1.8.4-3.4,1-4.6,2-1.2.9-2.1,2.2-2.8,3.7-.6,1.6-.9,3.5-.9,5.8v15.3h5.7v-9.4h26.2v-5.1h-26.2v-.8c0-1.4.2-2.5.5-3.4.3-.9.8-1.5,1.6-2,.7-.4,1.6-.8,2.8-.9,1.1-.2,2.5-.2,4.2-.2h18.2ZM86.6,49.7v27.4h5.7v-27.4h-5.7ZM102.3,55.5h0c.5,0,.9,0,1.2,0,.4,0,.7.2,1,.4.3.2.7.5,1.1.9.4.4.9,1,1.5,1.7.6.7,1.3,1.6,2.1,2.7.8,1.1,1.8,2.4,3,3.9,1.2,1.6,2.4,3.1,3.3,4.3,1,1.2,1.9,2.3,2.7,3.2.8.9,1.6,1.6,2.4,2.2.8.6,1.5,1,2.3,1.4.8.3,1.6.6,2.5.7.9.1,1.9.2,3,.2h4v-27.4h-5.7v21.6h0c-.5,0-.9,0-1.3,0-.4,0-.8-.2-1.1-.4-.4-.2-.8-.5-1.2-.9-.4-.4-.9-1-1.5-1.7-.6-.7-1.2-1.6-2-2.7-.8-1.1-1.7-2.3-2.8-3.8-1.1-1.6-2.2-3-3.1-4.2-.9-1.2-1.8-2.3-2.6-3.1-.8-.9-1.6-1.6-2.3-2.2-.8-.6-1.5-1.1-2.4-1.4-.8-.3-1.7-.6-2.7-.7-1-.2-2.1-.2-3.3-.2h-4v27.4h5.7v-21.6Z"/>
          <path class="cls-1" d="M75.7,94h1.8c0,1.7-.3,2.9-.8,3.6-.5.7-1.8,1-3.9,1.1h-3.6c-.1,0-.3,0-.4,0s-.3,0-.4,0h-.8c-.5,0-1,0-1.5,0-.5,0-1,0-1.5-.1-1.2-.1-2.1-.5-2.7-1.1-.6-.7-.9-1.6-1-2.8,0-.2,0-.4,0-.7,0-.2,0-.4,0-.7,0-.2,0-.4,0-.6v-1.5c0-.3,0-.5,0-.8,0-.4,0-.8,0-1.2,0-.4,0-.8.2-1.2.3-1.3.7-2.1,1.5-2.5.7-.4,1.7-.6,2.8-.7.4,0,.8,0,1.3,0,.4,0,.9,0,1.3,0h1.8c.2,0,.3,0,.5,0h1c.6,0,1.2,0,1.8,0,.6,0,1.2.1,1.8.2,1.1.2,1.8.8,2.1,1.6.2.8.4,1.8.4,2.7h-1.7c0-.3,0-.4,0-.6,0-.2,0-.3,0-.5,0-.3,0-.6-.2-.9,0-.3-.3-.5-.5-.6-.3-.2-.6-.3-1.2-.4-.5,0-1.1-.1-1.7-.1-.3,0-.6,0-.9,0-.3,0-.6,0-.9,0-.8,0-1.5,0-2.3,0-.8,0-1.5,0-2.3.1-1.2,0-2,.3-2.3.7-.3.3-.6,1.1-.7,2.2,0,.3,0,.6,0,.9,0,.3,0,.6,0,.9,0,.3,0,.6,0,.9v.9c0,1.5.1,2.6.4,3.4.3.8,1.3,1.2,2.9,1.2.5,0,1.1,0,1.6,0,.5,0,1.1,0,1.6,0h3.1c1.1,0,2-.2,2.6-.5.6-.3.9-1,.9-2.2v-.6h0ZM93.9,95.5h-11.3l-1.8,3.1h-2l8.2-13.9h2.3l8.3,13.9h-1.9l-1.8-3.1h0ZM93.1,94.1l-4.9-8.2-4.8,8.2h9.7ZM99.2,84.6h11.4c1.6,0,2.8.3,3.5.8.8.5,1.2,1.6,1.2,3.4s-.2,2.1-.6,2.6c-.4.5-1.2.8-2.4,1,.8,0,1.5.3,2,.6.5.3.8.9.8,1.9v3.8h-1.7v-3.1c0-1.1-.2-1.7-.7-2.1-.5-.3-1.2-.5-2.2-.5h-9.5v5.6h-1.7v-13.9h0ZM100.9,91.6h9.3c1.2,0,2-.2,2.5-.5.5-.4.8-1.1.8-2.3s-.3-1.9-.9-2.2c-.6-.3-1.4-.4-2.5-.4h-9.3v5.5h0ZM120.3,86.1v4.6h11.7v1.4h-11.7v5.1h12.3v1.4h-14v-13.9h13.8v1.4h-12.1Z"/>
        </g>
      </g>
    </g>
  </g>
</svg>