<svg xmlns="http://www.w3.org/2000/svg" width="21.012" height="21" viewBox="0 0 21.012 21">
  <path id="np_phone_2038410_000000" d="M15.676,17.283l1.734-1.813a1.092,1.092,0,0,0,0-1.5l-3.311-3.7a1.553,1.553,0,0,0-1.5-.158c-.631.394-3.153,2.364-2.443,6.7.788,4.808,9.223,13.321,14.03,14.03,4.335.71,6.305-1.734,6.7-2.443a1.637,1.637,0,0,0-.079-1.5l-3.783-3.311a.956.956,0,0,0-1.5,0l-1.734,1.734c-1.34.946-9.065-6.778-8.118-8.039Z" transform="translate(-10.033 -9.968)" fill="#602c89" fill-rule="evenodd"/>
</svg>
