<svg width="164" height="43" viewBox="0 0 164 43" fill="none" xmlns="http://www.w3.org/2000/svg">
<g clip-path="url(#clip0_180_2867)">
<path d="M70.7078 21.3225C70.7078 14.6309 67.4753 11.0313 61.7216 11.0313H58.8906V31.1405C59.6163 31.3155 60.7005 31.4245 62.301 31.4245C67.9285 31.4245 70.7078 28.0027 70.7078 21.3225ZM75.0589 21.0013C75.0589 28.3927 70.1886 32.698 61.8621 32.698H52.1445V31.9608C54.3559 31.7342 54.9611 31.4818 54.9611 29.672V12.7809C54.9611 10.971 54.3559 10.7215 52.1445 10.492V9.7549H62.5505C70.1255 9.7549 75.0618 13.6557 75.0618 20.9984L75.0589 21.0013Z" fill="#281E1E"/>
<path d="M91.296 24.6181C91.296 19.7536 89.4747 16.6961 86.3942 16.6961C83.3137 16.6961 81.8193 19.4238 81.8193 23.9441C81.8193 28.8087 83.6407 31.8977 86.7212 31.8977C89.8016 31.8977 91.296 29.17 91.296 24.6181ZM77.8525 24.4919C77.8525 19.1484 81.7849 15.4971 86.7843 15.4971C91.7836 15.4971 95.2427 18.83 95.2427 24.0818C95.2427 29.3335 91.3275 33.0766 86.3425 33.0766C81.3575 33.0766 77.8525 29.7437 77.8525 24.4919Z" fill="#281E1E"/>
<path d="M114.213 15.8757V16.5555C113.175 16.7448 112.555 17.5709 111.833 19.2717L106.096 32.6951H104.306L98.3835 19.2717C97.6349 17.6024 97.0526 16.7448 96 16.5555V15.8757H103.833V16.5555C102.195 16.7448 101.553 17.5709 102.244 19.2086L106.265 28.9406L109.851 20.049C110.714 17.9064 109.667 16.7592 107.909 16.5584V15.8786H114.21L114.213 15.8757Z" fill="#281E1E"/>
<path d="M117.867 11.0427C117.867 9.80653 118.8 8.81125 120.131 8.81125C121.461 8.81125 122.405 9.62296 122.405 10.9538C122.405 12.2847 121.459 13.2169 120.131 13.2169C118.803 13.2169 117.867 12.3736 117.867 11.0427ZM115.969 32.0039C117.991 31.7887 118.447 31.4818 118.447 29.7982V19.4696C118.447 17.6856 117.847 16.785 115.969 16.5698V15.8757L121.401 15.5315H122.107V29.7982C122.107 31.4818 122.66 31.7887 124.482 32.0039V32.698H115.966V32.0039H115.969Z" fill="#281E1E"/>
<path d="M139.064 25.2119V18.4313C137.905 17.3041 136.506 16.785 135.08 16.785C132.049 16.785 130.17 19.0796 130.17 24.033C130.17 28.6337 131.885 31.1176 134.613 31.1176C137.171 31.1176 139.061 28.8173 139.061 25.2119H139.064ZM145.191 32.0239V32.7037H139.612L139.222 29.3077H139.096C138.063 31.6081 136.084 33.0766 133.305 33.0766C129.41 33.0766 126.335 30.0133 126.335 24.7816C126.335 18.9763 129.972 15.5746 134.994 15.5746C136.474 15.5746 137.868 15.8901 139.064 16.5068V13.3316C139.064 11.5676 138.433 10.667 136.569 10.4519V9.75778L142.007 8.85715H142.707V29.7179C142.707 31.3298 143.16 31.8805 145.191 32.0239Z" fill="#281E1E"/>
<path d="M157.587 25.6765V24.7271C156.83 24.6325 155.967 24.5493 155.123 24.5493C152.066 24.5493 150.749 25.9691 150.749 27.974C150.749 29.9789 152.1 31.2151 153.769 31.2151C156.239 31.2151 157.587 29.0094 157.587 25.6765ZM164.003 30.9225C163.329 32.0641 162.265 33.0164 160.716 33.0164C159.168 33.0164 157.811 31.8547 157.613 29.847C156.646 31.7629 154.865 33.0737 152.201 33.0737C149.321 33.0737 146.975 31.4187 146.975 28.6165C146.975 25.2434 150.153 23.3905 154.828 23.3905C155.806 23.3905 156.744 23.4708 157.59 23.5856V21.2852C157.59 18.1904 156.159 16.7735 154.16 16.7735C151.765 16.7735 150.067 19.636 149.453 20.8579C148.412 20.6428 147.847 19.9831 147.847 19.1054C147.847 17.2095 150.531 15.5 154.627 15.5C158.929 15.5 161.241 17.5909 161.241 21.7901V28.975C161.241 30.1338 161.669 30.7533 162.36 30.7533C162.724 30.7533 163.017 30.5812 163.404 30.2887L164.009 30.9283L164.003 30.9225Z" fill="#281E1E"/>
<path d="M42.1579 14.5879C41.24 12.9989 39.6998 11.9807 38.0247 11.6737C38.5955 10.0733 38.4865 8.22899 37.5687 6.63998C36.3238 4.48306 33.9403 3.39026 31.6171 3.67422C30.6992 1.52017 28.5624 0 26.0727 0C24.2371 0 22.585 0.826054 21.4836 2.1225C20.3822 0.826054 18.73 0 16.8944 0C14.4019 0 12.2679 1.5173 11.3501 3.67422C9.02678 3.39026 6.64327 4.4802 5.39558 6.63998C4.47775 8.22899 4.36588 10.0733 4.93953 11.6737C3.26735 11.9807 1.72423 12.9989 0.806394 14.5879C-0.438423 16.7448 -0.191754 19.3549 1.21368 21.225C-0.194623 23.0951 -0.441291 25.7052 0.806394 27.8621C1.72423 29.4511 3.26448 30.4693 4.93953 30.7763C4.36588 32.3767 4.47775 34.221 5.39558 35.81C6.6404 37.9669 9.02391 39.0597 11.3501 38.7758C12.2679 40.9298 14.4019 42.45 16.8944 42.45C18.73 42.45 20.3822 41.6239 21.4836 40.3275C22.585 41.6239 24.2371 42.45 26.0727 42.45C28.5653 42.45 30.6992 40.9327 31.6171 38.7758C33.9403 39.0597 36.3238 37.9698 37.5687 35.81C38.4865 34.221 38.5984 32.3767 38.0247 30.7763C39.6969 30.4693 41.24 29.4511 42.1579 27.8621C43.4027 25.7052 43.156 23.0951 41.7506 21.225C43.1589 19.3549 43.4055 16.7448 42.1579 14.5879ZM36.5763 7.21076C37.5429 8.88582 37.4109 10.885 36.3984 12.3851C36.3525 12.4539 36.3468 12.5457 36.387 12.6174C36.43 12.6891 36.5103 12.7293 36.5935 12.7264C38.4033 12.5973 40.1988 13.4836 41.1654 15.1587C42.132 16.8337 41.9714 18.8472 40.9446 20.3502C40.6434 20.0834 40.3136 19.8425 39.9522 19.636C35.6441 17.1492 28.1809 18.3424 24.6558 20.528C24.3518 20.2842 24.1051 20.0375 23.9646 19.7909C23.824 19.5442 23.7323 19.2086 23.6749 18.8243C27.329 16.8653 32.0932 10.9968 32.0932 6.02331C32.0932 5.60742 32.0502 5.20012 31.9699 4.80718C33.7826 4.6695 35.6068 5.53571 36.5734 7.21076H36.5763ZM40.1988 21.225C39.9522 21.4487 39.6797 21.6495 39.3814 21.8216C35.538 24.0416 28.9984 22.9316 25.7544 21.225C28.9984 19.5213 35.5351 18.4084 39.3814 20.6284C39.6797 20.8005 39.9522 21.0013 40.1988 21.225ZM30.8398 37.4334C30.5243 37.3302 30.2145 37.1954 29.9133 37.0233C26.067 34.8033 23.7609 28.5878 23.6175 24.925C26.7152 26.8812 30.9459 31.9866 30.9459 36.4267C30.9459 36.7709 30.9086 37.1093 30.8369 37.4334H30.8398ZM22.9722 22.0855C22.8029 22.3809 22.6882 22.7566 22.6022 23.1668C22.2035 23.0349 21.822 22.9459 21.4807 22.9459C21.1394 22.9459 20.7579 23.0349 20.3592 23.1668C20.2732 22.7566 20.1584 22.3809 19.9892 22.0855C19.82 21.79 19.5504 21.5032 19.2377 21.225C19.5504 20.9468 19.82 20.66 19.9892 20.3645C20.1584 20.0691 20.2732 19.6934 20.3592 19.2832C20.7579 19.4151 21.1394 19.5041 21.4807 19.5041C21.822 19.5041 22.2035 19.4151 22.6022 19.2832C22.6882 19.6934 22.8029 20.0691 22.9722 20.3645C23.1414 20.66 23.411 20.9468 23.7237 21.225C23.411 21.5032 23.1414 21.79 22.9722 22.0855ZM12.0155 36.4267C12.0155 31.9866 16.2461 26.8812 19.3438 24.925C19.1976 28.5878 16.8915 34.8033 13.0481 37.0233C12.7498 37.1954 12.44 37.3302 12.1216 37.4334C12.0528 37.1093 12.0126 36.7737 12.0126 36.4267H12.0155ZM12.1245 5.01656C12.44 5.11981 12.7498 5.25462 13.0509 5.42672C16.8972 7.64674 19.2033 13.8622 19.3467 17.525C16.249 15.5688 12.0184 10.4634 12.0184 6.02331C12.0184 5.67912 12.0585 5.34067 12.1273 5.01656H12.1245ZM30.9459 6.02331C30.9459 10.4634 26.7152 15.5688 23.6175 17.525C23.7638 13.8622 26.0699 7.64674 29.9133 5.42672C30.2116 5.25462 30.5214 5.11981 30.8398 5.01656C30.9086 5.34067 30.9488 5.67625 30.9488 6.02331H30.9459ZM16.8915 1.1473C18.8276 1.1473 20.4911 2.26018 21.2857 3.88934C21.3229 3.96391 21.3975 4.01554 21.4807 4.01554C21.5639 4.01554 21.6413 3.96678 21.6757 3.88934C22.4702 2.26018 24.1338 1.1473 26.0699 1.1473C28.0059 1.1473 29.6667 2.29173 30.4554 3.93236C30.0739 4.05856 29.7011 4.22492 29.3397 4.4343C25.0316 6.92107 22.3354 13.9827 22.4645 18.1244C22.1002 18.265 21.7646 18.3568 21.4807 18.3568C21.1967 18.3568 20.8611 18.2678 20.4969 18.1244C20.626 13.9798 17.9269 6.9182 13.6217 4.4343C13.2603 4.22492 12.8874 4.06143 12.506 3.93236C13.2919 2.29173 14.9554 1.1473 16.8915 1.1473ZM1.79881 15.1615C2.76827 13.4865 4.56092 12.6002 6.37079 12.7293C6.45396 12.735 6.53428 12.6948 6.5773 12.6203C6.62032 12.5486 6.61459 12.4568 6.56583 12.3879C5.55047 10.885 5.41853 8.88869 6.388 7.21363C7.35459 5.53858 9.1788 4.6695 10.9915 4.81004C10.9112 5.20299 10.8682 5.61028 10.8682 6.02618C10.8682 10.9997 15.6352 16.8653 19.2865 18.8271C19.2263 19.2115 19.1373 19.5499 18.9968 19.7937C18.8562 20.0375 18.6096 20.2871 18.3055 20.5309C14.7805 18.3453 7.31731 17.1521 3.0092 19.6389C2.64781 19.8482 2.31796 20.0863 2.01679 20.3531C0.989962 18.853 0.82934 16.8366 1.79594 15.1615H1.79881ZM17.2099 21.225C13.9659 22.9287 7.42917 24.0416 3.58285 21.8216C3.28456 21.6495 3.01207 21.4487 2.7654 21.225C3.01207 21.0013 3.28456 20.8005 3.58285 20.6284C7.42917 18.4084 13.9659 19.5184 17.2099 21.225ZM6.388 35.2392C5.4214 33.5642 5.55334 31.565 6.56583 30.0649C6.61172 29.9961 6.61746 29.9043 6.5773 29.8326C6.53428 29.7609 6.45396 29.7207 6.37079 29.7236C4.56092 29.8527 2.7654 28.9664 1.79881 27.2913C0.832208 25.6163 0.99283 23.6028 2.01966 22.0998C2.32083 22.3666 2.65067 22.6075 3.01207 22.814C7.32017 25.3008 14.7833 24.1076 18.3084 21.922C18.6124 22.1658 18.8591 22.4125 18.9997 22.6591C19.1402 22.9058 19.232 23.2414 19.2894 23.6257C15.6352 25.5847 10.8711 31.4532 10.8711 36.4267C10.8711 36.8426 10.9141 37.2499 10.9944 37.6428C9.18167 37.7805 7.35746 36.9143 6.39086 35.2392H6.388ZM26.0699 41.3027C24.1338 41.3027 22.4702 40.1898 21.6757 38.5607C21.6384 38.4861 21.5639 38.4345 21.4807 38.4345C21.3975 38.4345 21.3201 38.4832 21.2857 38.5607C20.4911 40.1898 18.8276 41.3027 16.8915 41.3027C14.9554 41.3027 13.2947 40.1583 12.506 38.5176C12.8874 38.3914 13.2603 38.2251 13.6217 38.0157C17.9298 35.5289 20.626 28.4673 20.4969 24.3256C20.8611 24.185 21.1967 24.0932 21.4807 24.0932C21.7646 24.0932 22.1002 24.1822 22.4645 24.3256C22.3354 28.4702 25.0344 35.5289 29.3397 38.0157C29.7011 38.2251 30.0739 38.3886 30.4554 38.5176C29.6695 40.1583 28.0059 41.3027 26.0699 41.3027ZM41.1654 27.2885C40.1988 28.9635 38.4033 29.8498 36.5935 29.7207C36.5103 29.715 36.43 29.7552 36.387 29.8297C36.3439 29.9014 36.3497 29.9932 36.3984 30.0621C37.4138 31.565 37.5457 33.5613 36.5763 35.2364C35.6097 36.9114 33.7855 37.7805 31.9727 37.64C32.053 37.247 32.0961 36.8397 32.0961 36.4238C32.0961 31.4503 27.329 25.5847 23.6778 23.6229C23.738 23.2385 23.8269 22.9001 23.9675 22.6563C24.108 22.4096 24.3547 22.1629 24.6587 21.9191C28.1838 24.1047 35.6469 25.2979 39.955 22.8111C40.3164 22.6018 40.6463 22.3637 40.9475 22.0969C41.9743 23.597 42.1349 25.6134 41.1683 27.2885H41.1654Z" fill="#D73C3C"/>
</g>
<defs>
<clipPath id="clip0_180_2867">
<rect width="164.003" height="42.45" fill="white"/>
</clipPath>
</defs>
</svg>
