<svg id="Layer_1" data-name="Layer 1" xmlns="http://www.w3.org/2000/svg" viewBox="0 0 500 166"><defs><style>.cls-1{fill:#fff;}.cls-2{fill:#b49457;}</style></defs><title>Artboard 1</title><path class="cls-1" d="M208.25,14.44c-5.86.5-6.43.85-6.43,6.79V50.1c0,6,.57,6.36,6.36,6.79v2H189v-2c6.08-.43,6.72-.78,6.72-6.79V35.81H171.37V50.1c0,5.93.57,6.36,6.43,6.79v2H159v-2c5.72-.43,6.29-.78,6.29-6.79V21.23c0-6-.57-6.29-6.43-6.79v-2h18.51v2c-5.43.5-6,.85-6,6.79V32.81h24.37V21.23c0-5.94-.57-6.29-6.14-6.79v-2h18.65v2Z"/><path class="cls-1" d="M231.91,20.65h-.15C229.48,26.8,227.19,33,225,38.88H238.2l-6.29-18.23Zm7,38.24v-2c4.5-.57,5.15-1.14,4.22-3.93s-2.36-6.65-3.93-11H224c-1.14,3.22-2.21,6.22-3.14,9.23-1.57,4.5-.93,5.21,4.43,5.71v2H209.75v-2c4.5-.64,5.5-1.07,8-7.36L232.55,12l2.21-.65c4.44,12.3,9.23,25.88,13.8,38.31,2.29,6.15,3.22,6.79,7.86,7.22v2Z"/><path class="cls-1" d="M276.22,36.24c3.64,0,6-.58,7.79-2,2.79-2.14,3.93-5,3.93-8.86,0-7.72-5.07-10.58-10.51-10.58-2.07,0-3.28.29-3.86.72s-.78,1.21-.78,3.14V36.24Zm26.3,23.23c-.86,0-1.64,0-2.5-.08-5.36-.28-8.36-1.85-11.58-6.5-2.5-3.5-5.07-7.93-7.22-11.43-1.21-2-2.43-2.87-6.15-2.87h-2.28V50c0,6.07.64,6.5,6.36,6.93v2h-18.8v-2c5.86-.43,6.51-.86,6.51-6.93V21.22c0-6.07-.57-6.28-6.15-6.78v-2h17.72c5.22,0,8.72.65,11.44,2.43a10.71,10.71,0,0,1,4.72,9.37c0,6.15-3.79,9.93-9.08,12.22,1.22,2.36,4.22,7.15,6.36,10.36a63.45,63.45,0,0,0,5.79,7.44,10.17,10.17,0,0,0,5.15,3.36l-.29,1.86Z"/><path class="cls-1" d="M317.24,50c0,5.15,1.36,6.5,5.94,6.5,5.86-.07,11.08-3.07,11.08-10.5s-5-10.58-13.73-10.58h-3.29V50ZM320.6,33c7.86,0,11.15-3.14,11.15-9.15,0-4.86-2.71-9.15-9.5-9.15a9.22,9.22,0,0,0-4.08.72c-.64.43-.93,1.21-.93,3.57V33Zm8.08.86c7.07,1.07,12.65,4.22,12.65,11.36,0,4.79-2.65,8.44-6.86,10.79-3.65,2-8.36,2.86-14,2.86h-15.8v-2c6.15-.43,6.58-.86,6.58-6.86V21.23c0-5.94-.29-6.37-6-6.79v-2H323.6c5.37,0,8.51.86,10.72,2.43a9.72,9.72,0,0,1,4,8.15c0,6.79-5.65,9.58-9.65,10.65v.22Z"/><path class="cls-1" d="M356,34.16c0,13.44,7.36,23.23,17.44,23.23,7.93,0,15.08-6.64,15.08-20.37,0-15.08-7.86-23.09-17.22-23.09-8,0-15.3,6.87-15.3,20.23m39.81.93C395.79,50.53,385,60,371.92,60s-23.23-10.08-23.23-23.81c0-12.86,9-24.8,24-24.8,12.15,0,23.08,9.44,23.08,23.73"/><path class="cls-1" d="M449.4,14.44c-4.29.28-5.94,1.28-6.29,4.21a111.93,111.93,0,0,0-.36,11.58v5.94c0,8.43-1.29,14.5-5.43,18.86C434,58.46,429.24,60,424.52,60a18.7,18.7,0,0,1-11.43-3.43c-4.29-3.29-6.29-8.65-6.29-17V21.65c0-6.43-.58-6.71-6.22-7.21v-2h18.51v2c-5.64.35-6.22.78-6.22,7.21V38c0,11.51,4.58,18.08,13.44,18.08,10.29,0,13.51-8.57,13.51-20.37V30.23a90.48,90.48,0,0,0-.5-11.79c-.43-2.79-1.93-3.65-6.94-4v-2h17v2Z"/><path class="cls-1" d="M469.34,36.24c3.64,0,6-.58,7.79-2,2.79-2.14,3.93-5,3.93-8.86,0-7.72-5.08-10.58-10.51-10.58-2.07,0-3.29.29-3.86.72s-.79,1.21-.79,3.14V36.24Zm26.3,23.23c-.86,0-1.65,0-2.5-.08-5.36-.28-8.37-1.85-11.58-6.5-2.5-3.5-5.08-7.93-7.22-11.43-1.21-2-2.43-2.87-6.15-2.87H465.9V50c0,6.07.65,6.5,6.37,6.93v2h-18.8v-2c5.86-.43,6.5-.86,6.5-6.93V21.22c0-6.07-.57-6.28-6.15-6.78v-2h17.73c5.22,0,8.72.65,11.44,2.43a10.7,10.7,0,0,1,4.71,9.37c0,6.15-3.78,9.93-9.07,12.22,1.21,2.36,4.22,7.15,6.36,10.36a62.38,62.38,0,0,0,5.79,7.44,10.17,10.17,0,0,0,5.15,3.36l-.29,1.86Z"/><path class="cls-1" d="M259.92,78.48c-4.28.28-5.93,1.28-6.28,4.21a111.93,111.93,0,0,0-.36,11.58v5.94c0,8.43-1.29,14.5-5.43,18.86-3.29,3.44-8.08,4.94-12.8,4.94a18.7,18.7,0,0,1-11.43-3.43c-4.29-3.29-6.3-8.65-6.3-17V85.69c0-6.43-.57-6.71-6.21-7.21v-2h18.51v2c-5.65.35-6.22.78-6.22,7.21V102c0,11.51,4.58,18.08,13.44,18.08,10.29,0,13.51-8.57,13.51-20.37V94.27a92.54,92.54,0,0,0-.5-11.79c-.43-2.79-1.93-3.65-6.94-4v-2h17v2Z"/><path class="cls-1" d="M279.36,84.7h-.14c-2.29,6.14-4.57,12.36-6.72,18.22h13.15L279.36,84.7Zm7,38.23v-2c4.5-.57,5.14-1.14,4.22-3.93s-2.36-6.65-3.94-11H271.43c-1.14,3.22-2.21,6.22-3.15,9.22-1.57,4.51-.92,5.22,4.44,5.72v2H257.21v-2c4.5-.64,5.5-1.07,8-7.36L280,76l2.21-.64c4.43,12.3,9.22,25.88,13.8,38.31,2.28,6.15,3.21,6.79,7.86,7.22v2Z"/><path class="cls-1" d="M343.91,78.48c-4.94.57-5.72,1.28-8.51,5.64-3.22,5.22-5.65,9.37-9.08,15.65a8.16,8.16,0,0,0-1.14,4.51V114c0,6,.57,6.5,7.14,6.93v2H312.1v-2c6.36-.43,7-.86,7-6.93v-9.51c0-1.43-.28-2.07-1.5-4.21-2.5-4.44-5.07-9.08-9-15.73-2.85-4.86-3.64-5.65-7.93-6.07v-2h17.08v2c-5.07.64-4.93,1.5-3.57,3.85,3,5.72,6.5,11.58,9.58,17,2.64-4.72,6.5-11.73,8.5-16.09,1.65-3.57,1.43-4.14-4.14-4.71v-2h15.8v2Z"/><path class="cls-1" d="M370.06,87.34c-1.28-4.58-3.14-9.51-9.36-9.51-5.5,0-7.93,4-7.93,7.86,0,5.22,3.43,7.65,9.07,10.58s12.37,6.22,12.37,14.23c0,7.5-6.36,13.51-15.87,13.51a24.79,24.79,0,0,1-7-1.08,24.21,24.21,0,0,1-3.51-1.5c-.57-1.5-1.5-7.65-1.93-11.08l2.08-.5c1.14,4.36,4.36,11.58,11.72,11.58,5.36,0,8.57-3.36,8.57-8.58s-3.93-7.78-9.29-10.65c-4.57-2.43-11.79-6-11.79-14.08,0-6.86,5.5-12.72,14.73-12.72a29.56,29.56,0,0,1,9,1.65c.29,2.57.64,5.36,1.22,9.86l-2.08.43Z"/><path class="cls-2" d="M421.28,88l-1.49-4.39c-.35-1-.57-1.9-.8-2.78h0c-.23.91-.48,1.83-.77,2.76L416.69,88Zm-5,1.54L414.7,94.3h-2l5.17-15.24h2.37l5.2,15.24h-2.1l-1.63-4.79Z"/><path class="cls-2" d="M446.94,93.62a14.38,14.38,0,0,1-4.68.83,7.16,7.16,0,0,1-7.82-7.68c0-4.55,3.14-7.87,8.25-7.87a9.58,9.58,0,0,1,3.8.7L446,81.21a7.9,7.9,0,0,0-3.37-.66c-3.7,0-6.12,2.31-6.12,6.13s2.33,6.15,5.88,6.15a6.34,6.34,0,0,0,2.62-.41V87.88h-3.1V86.29h5v7.33Z"/><polygon class="cls-2" points="465.53 87.16 459.61 87.16 459.61 92.65 466.21 92.65 466.21 94.3 457.64 94.3 457.64 79.06 465.87 79.06 465.87 80.71 459.61 80.71 459.61 85.53 465.53 85.53 465.53 87.16 465.53 87.16"/><path class="cls-2" d="M478.39,92.74a12.61,12.61,0,0,0,2,.11c4.21,0,6.49-2.35,6.49-6.47,0-3.59-2-5.87-6.17-5.87a11.55,11.55,0,0,0-2.31.2v12Zm-2-13.48a28.34,28.34,0,0,1,4.18-.31c2.83,0,4.84.65,6.17,1.9a7,7,0,0,1,2.15,5.47,8.08,8.08,0,0,1-2.19,5.92c-1.43,1.42-3.78,2.19-6.74,2.19a32.43,32.43,0,0,1-3.57-.18v-15Z"/><polygon class="cls-2" points="394.48 123.52 393.75 123.52 393.75 75.09 394.48 75.09 394.48 123.52 394.48 123.52"/><path class="cls-2" d="M424.89,121.35a10.36,10.36,0,0,1-4.26.77c-4.54,0-8-2.87-8-8.16,0-5,3.42-8.47,8.42-8.47a8.54,8.54,0,0,1,3.82.72l-.5,1.69a7.61,7.61,0,0,0-3.25-.67c-3.78,0-6.29,2.42-6.29,6.66,0,3.94,2.27,6.48,6.19,6.48a8.29,8.29,0,0,0,3.4-.67l.43,1.65Z"/><path class="cls-2" d="M443.54,115.18,442,110.54c-.36-1.06-.6-2-.84-3h-.05c-.24,1-.5,1.94-.81,2.92l-1.58,4.67Zm-5.29,1.62-1.68,5.08h-2.15l5.48-16.13h2.51l5.5,16.13h-2.22L444,116.8Z"/><path class="cls-2" d="M460.51,113.31h2.12c2.23,0,3.64-1.22,3.64-3.06,0-2.08-1.51-3-3.71-3a8.82,8.82,0,0,0-2.05.19v5.89ZM458.43,106a21.13,21.13,0,0,1,4-.34c2.23,0,3.66.41,4.67,1.32a4,4,0,0,1,1.27,3.06,4.22,4.22,0,0,1-3,4.11v.08c1.24.43,2,1.58,2.36,3.25a26.62,26.62,0,0,0,1.25,4.43h-2.15A19.91,19.91,0,0,1,465.7,118c-.48-2.22-1.34-3.06-3.23-3.13h-2v7h-2.08V106Z"/><polygon class="cls-2" points="487.79 114.32 481.52 114.32 481.52 120.13 488.51 120.13 488.51 121.88 479.44 121.88 479.44 105.75 488.15 105.75 488.15 107.5 481.52 107.5 481.52 112.59 487.79 112.59 487.79 114.32 487.79 114.32"/><path class="cls-2" d="M169.07,146.69a3.62,3.62,0,0,0-2.69-1.19q-3.07,0-5.07,3.91a18.54,18.54,0,0,1-3,4.68,13.67,13.67,0,0,1-4.45,2.77,15.82,15.82,0,0,1-5.54.91,22.82,22.82,0,0,1-8-1.64A44.81,44.81,0,0,1,130,150q-4.23-3.14-14.9-13.89-5.92-6-12.83-12.44,18.6-3.28,30.77-20.78t12.18-36.29a39.81,39.81,0,0,0-4.5-19,30.78,30.78,0,0,0-12.25-12.77,30.19,30.19,0,0,0-15.21-4.18c-1.18-.1-2.45-.16-3.78-.17-.65,1.71-1.31,3.52-2,5.48a28.18,28.18,0,0,1,2.83.45c5.82.72,9.24,3.39,13.43,8.41q7.33,8.79,7.34,24.52,0,15.21-4.81,26.91T114,113.41a26.15,26.15,0,0,1-15.72,5.45q-11.14,0-18.6-9.17T72.26,83.62q0-14.75,4.77-25.91a41.63,41.63,0,0,1,8.63-13.38c.16-.49.31-1,.47-1.49h0l1.55-4.73C88,37,88.37,36,88.73,35c-6,3.07-11,7.77-16,14.23Q58.36,67.94,58.37,88.81q0,12.12,5.61,20.71t16.36,12.89a55.17,55.17,0,0,1,7,3.07,36.57,36.57,0,0,1,5.41,4q2.73,2.42,11.57,11.47Q114,151,119.78,155.1A47.36,47.36,0,0,0,132,161.31a39.9,39.9,0,0,0,12.14,1.54A36.87,36.87,0,0,0,164,157.47q6.22-3.84,6.23-8a3.91,3.91,0,0,0-1.15-2.8"/><path class="cls-2" d="M81,57.74l4.72-.19L79.9,80.16c-.9,3.44-1.74,6.53-2.57,9.47l0,.07-.8,3.21A33.82,33.82,0,0,0,80.23,104a73.77,73.77,0,0,0,20.83.27,29.25,29.25,0,0,0,3.25-.48l.9-3.94a37.82,37.82,0,0,1-7.1.76,42.41,42.41,0,0,1-7-.76c-1.58-.25-2.8-.43-3.66-.53C95.52,61.45,102.7,35.89,109,22.24c.4-.83.8-1.71,1.18-2.45q5.6-10.65,11.33-10.65c1.78,0,3.82,1.27,6.12,3.83s4.26,3.83,6,3.83A4.7,4.7,0,0,0,137,15.58a4.13,4.13,0,0,0,1.3-3.15c0-2.19-1.21-4.15-3.64-5.86S128.8,4,124.3,4a26.33,26.33,0,0,0-14.14,3.91q-6.33,3.9-11.38,12.69c-.45.78-.93,1.72-1.4,2.67,0,0,0,0,0,0l-.15.32A141.36,141.36,0,0,0,91,39.26h.06c-1.19,3.52-2.41,7.29-3.7,11.6l0,.09L84.73,51A42.83,42.83,0,0,0,81,57.74"/><path class="cls-2" d="M66.59,51.66,55.78,52q7-28.08,12.61-39.2-21.09,0-28.13,1.61Q28,17.27,21.55,24.09A22.23,22.23,0,0,0,15.11,39.8c0,3.27.64,5.77,1.92,7.48a5.61,5.61,0,0,0,4.6,2.57,4.84,4.84,0,0,0,3.56-1.42,4.93,4.93,0,0,0,1.42-3.65,10.53,10.53,0,0,0-1.84-5,11,11,0,0,1-2.07-5.44q0-6.36,7.71-11.42t23-5.06L45.93,45.94Q35.81,84,30.56,93.69t-11.23,9.67a5,5,0,0,1-2.65-.73,13.71,13.71,0,0,1-3.1-3.27c-2.1-2.8-4.14-4.21-6.13-4.21A4.25,4.25,0,0,0,4.3,96.49,4.52,4.52,0,0,0,3,99.75q0,3.23,3.3,5.37a19,19,0,0,0,10.89,3.06q6.51,0,13.6-4.64T43.41,89.1q5.52-9.82,10.71-30.28l8.4-.34a77.58,77.58,0,0,1,4.07-6.82"/><path class="cls-1" d="M186,119.56c.64.43,1.28.93,1.93,1.36,5.71-1.65,11.28-8.15,11.28-19.58,0-14.86-7.43-23.29-17.22-23.29-7.93,0-15.29,6.86-15.29,20.5,0,12.08,6.08,20.87,14.44,22.58l4.86-1.57Zm21.15,14.72a35.82,35.82,0,0,1-9.15-1.07c-2.21-.58-7.72-3.22-16.43-9.29a23.18,23.18,0,0,1-22.15-23.44c0-13.22,9-25.08,24.29-25.08,12,0,22.79,9.51,22.79,23.94,0,12.64-7.79,20.79-16.22,23.43a114.41,114.41,0,0,0,17.44,10l-.57,1.5Z"/></svg>