<?xml version="1.0" encoding="UTF-8"?><svg id="Layer_1" xmlns="http://www.w3.org/2000/svg" viewBox="0 0 43.92 39.99"><defs><style>.cls-1{fill:#f89933;stroke-width:0px;}</style></defs><path class="cls-1" d="M43.33,18.16L23.02.39c-.06-.05-.12-.07-.18-.11-.09-.06-.18-.12-.28-.16s-.19-.06-.29-.08-.2-.04-.3-.04-.2.02-.3.04c-.1.02-.2.04-.29.08-.1.04-.19.1-.28.16-.06.04-.13.06-.19.11L.6,18.16c-.58.51-.79,1.36-.41,2.04.31.55.86.84,1.41.84.38,0,.75-.13,1.06-.4l1.76-1.54v19.26c0,.9.73,1.63,1.63,1.63h31.82c.9,0,1.63-.73,1.63-1.63v-19.26l1.76,1.54c.31.27.68.4,1.06.4.55,0,1.1-.29,1.41-.84.38-.67.17-1.52-.41-2.03h0ZM32.01,23.32c0,6.03-10.05,10.92-10.05,10.92,0,0-10.05-4.89-10.05-10.92h.03c0-.11-.03-.21-.03-.32,0-2.94,2.38-5.31,5.31-5.31,2.08,0,3.86,1.21,4.73,2.94.87-1.74,2.65-2.94,4.73-2.94,2.94,0,5.31,2.38,5.31,5.31,0,.11-.03.21-.03.32h.05Z"/></svg>