<svg id="Layer_1" data-name="Layer 1" xmlns="http://www.w3.org/2000/svg" viewBox="0 0 744.09 496.06"><defs><style>.cls-1{fill:#096;}.cls-2{fill:#009;}.cls-3{fill:#fff;}</style></defs><title>flag-torres-strait-islander</title><path class="cls-1" d="M0,0H744.09V496.06H0Z" transform="translate(0 0)"/><path d="M0,84.91H744.09V411.15H0Z" transform="translate(0 0)"/><path class="cls-2" d="M0,109.81H744.09V386.25H0Z" transform="translate(0 0)"/><path class="cls-3" d="M372.06,168.22l10.77-45.5c53.5,14,119,46.5,100.5,129.5l-24.5,78.5L508,373.35h0l-84.13-29.12v-111s-16.5-29.5-51.78-29.5h0c-35.28,0-51.78,29.5-51.78,29.5v111l-84.13,29.12h0l49.14-42.63-24.5-78.5c-18.5-83,47-115.5,100.5-129.5L372,168.22Z" transform="translate(0 0)"/><polygon class="cls-3" points="372.05 205.48 384.13 242.72 423.27 242.7 391.59 265.69 403.7 302.91 372.05 279.89 340.39 302.91 352.5 265.69 320.82 242.7 359.96 242.72 372.05 205.48"/></svg>