<svg width="240" height="61" viewBox="0 0 240 61" fill="none" xmlns="http://www.w3.org/2000/svg">
<path fill-rule="evenodd" clip-rule="evenodd" d="M30.0131 49.2255C30.0466 48.8587 30.1189 48.2325 30.196 47.7144C30.8771 43.1089 33.0503 36.5841 39.5368 31.6571C44.3246 28.02 46.6412 25.5655 47.5536 23.5023C48.396 21.5986 47.6551 19.4291 47.5912 19.217C47.541 19.0497 47.5577 18.9134 47.6671 18.7981C47.8135 18.6428 48.0572 18.6344 48.2144 18.7784C48.2927 18.8507 50.1533 20.5727 51.9679 23.2836C53.6523 25.8015 55.5948 29.6691 55.2787 33.7973C54.9656 37.8789 52.5493 41.4615 48.0955 44.4449C37.7317 51.3885 30.9871 57.2405 30.9112 57.2859C30.821 57.3403 30.7481 57.3815 30.6555 57.3815C30.6142 57.3815 30.573 57.3719 30.5318 57.3612C30.2575 57.2925 30.147 56.8557 30.1488 56.346C30.15 55.825 30.3053 55.1056 30.4463 54.4794C30.6561 53.5521 30.8789 52.6295 31.1819 51.7321C31.7836 49.9366 32.6607 48.2432 33.775 46.7106C34.8888 45.1756 36.241 43.8109 37.7102 42.5645C39.1807 41.3146 40.7641 40.1757 42.3433 39.0046C43.9249 37.8383 45.4981 36.605 46.9065 35.1817C47.6097 34.4689 48.2706 33.7053 48.8507 32.876C49.4267 32.0442 49.9245 31.145 50.2662 30.1788C50.5931 29.2706 50.804 28.1569 50.7932 27.3401C50.7831 26.5233 50.5465 26.5298 50.3815 27.125C50.3804 27.1297 50.2632 27.4906 50.231 27.5904C50.0864 28.0403 49.5887 29.4098 48.9912 30.5248C48.9457 30.609 48.9039 30.6873 48.8639 30.7632C48.6404 31.1557 48.3919 31.5364 48.1248 31.9038C47.5631 32.668 46.9202 33.3785 46.2313 34.0459C44.8486 35.3813 43.2957 36.5387 41.701 37.6662C40.1086 38.8002 38.4816 39.92 36.9371 41.1801C35.3937 42.4385 33.934 43.8474 32.7109 45.4654C31.8714 46.572 31.1484 47.7718 30.5551 49.0319C30.2725 49.7268 29.9683 49.7203 30.0131 49.2255" fill="#C6A669"/>
<path fill-rule="evenodd" clip-rule="evenodd" d="M29.4034 28.7545C29.8085 22.5327 31.9846 19.5069 33.5776 17.8949C35.6408 15.8066 36.7647 14.6922 37.364 13.4434C38.2178 11.8427 37.9197 10.3711 37.9089 10.2767C37.8975 10.1822 37.9107 10.1536 37.9549 10.1076C38.0135 10.0454 38.1067 10.0287 38.1838 10.0669C38.2489 10.0998 39.803 10.8861 41.4414 12.2819C43.6252 14.1425 44.8866 16.1967 45.0879 18.2235C45.3574 20.9248 43.8463 23.6506 40.5009 26.199C32.2672 32.4698 30.4807 36.35 29.7894 36.2031C29.6532 36.1744 29.6131 35.967 29.6119 35.8033C29.6054 35.0403 29.7667 33.6858 30.0541 32.6616C30.3893 31.4714 30.9067 30.3296 31.5472 29.2523C32.1872 28.1738 32.952 27.161 33.7753 26.193C34.5993 25.2239 35.4866 24.3007 36.3954 23.3931L37.7727 22.0362C38.2453 21.5707 38.6904 21.0736 39.0914 20.537C39.4905 20.0005 39.8508 19.4269 40.1298 18.8084C40.4059 18.1894 40.6162 17.5316 40.701 16.8504C40.7327 16.6036 40.75 16.3545 40.7524 16.1053C40.7381 15.0537 40.5594 15.1111 40.4095 15.6686C40.0713 16.9251 39.5497 17.8656 39.1577 18.5473C38.948 18.9112 38.7102 19.2608 38.4514 19.596C38.0702 20.0871 37.6442 20.5466 37.1895 20.9792L35.783 22.3134C34.8479 23.2121 33.9265 24.1346 33.0589 25.1163C32.192 26.0974 31.3734 27.1365 30.6737 28.2664C30.3128 28.8472 29.8796 29.7267 29.6962 30.0792C29.502 30.4533 29.3454 30.2848 29.355 29.7327C29.3663 29.413 29.3819 29.0862 29.4034 28.7545" fill="#C6A669"/>
<path fill-rule="evenodd" clip-rule="evenodd" d="M21.9488 5.10368C23.7127 3.45994 25.7872 1.51505 27.2404 0.174249C27.4925 -0.0587791 27.8199 -0.0575841 28.0661 0.174846C29.5097 1.53836 31.5986 3.46173 33.3606 5.10368C35.7106 7.29473 35.8648 10.0905 32.7804 13.8631C31.1074 15.9096 29.5951 17.7314 28.7574 19.0381C28.6302 19.2365 28.3189 19.2837 28.3189 18.9634C28.3189 16.3523 28.0321 5.29129 28.0171 4.64121C27.9968 3.76825 27.7811 3.33267 27.6544 3.34402C27.5278 3.33267 27.3127 3.76825 27.2917 4.64121C27.2768 5.29129 26.9906 16.3523 26.9906 18.9634C26.9906 19.2837 26.6793 19.2365 26.552 19.0381C25.7137 17.7314 24.202 15.9096 22.5284 13.8631C19.4441 10.0905 19.5983 7.29473 21.9488 5.10368" fill="#C6A669"/>
<path fill-rule="evenodd" clip-rule="evenodd" d="M25.2997 49.2255C25.2662 48.8587 25.1939 48.2325 25.1174 47.7144C24.4363 43.1089 22.2625 36.5841 15.776 31.6571C10.9882 28.02 8.67225 25.5655 7.75926 23.5023C6.91677 21.5986 7.65768 19.4291 7.72161 19.217C7.7718 19.0497 7.75507 18.9134 7.64573 18.7981C7.49934 18.6428 7.25556 18.6344 7.09841 18.7784C7.02014 18.8507 5.1595 20.5727 3.34547 23.2836C1.66051 25.8015 -0.281988 29.6691 0.0340927 33.7973C0.347186 37.8789 2.7641 41.4615 7.21732 44.4449C17.5811 51.3885 24.3257 57.2405 24.4016 57.2859C24.4918 57.3403 24.5647 57.3815 24.6573 57.3815C24.6992 57.3815 24.7398 57.3719 24.781 57.3612C25.0553 57.2925 25.1658 56.8557 25.164 56.346C25.1628 55.825 25.0081 55.1056 24.8665 54.4794C24.6573 53.5521 24.4339 52.6295 24.1309 51.7321C23.5292 49.9366 22.6521 48.2432 21.5378 46.7106C20.4246 45.1756 19.0718 43.8109 17.6026 42.5645C16.1327 41.3146 14.5487 40.1757 12.9701 39.0046C11.3879 37.8383 9.81528 36.605 8.40635 35.1817C7.70309 34.4689 7.04225 33.7053 6.46207 32.876C5.88607 32.0442 5.38835 31.145 5.04658 30.1788C4.71974 29.2706 4.50882 28.1569 4.51957 27.3401C4.52973 26.5233 4.76634 26.5298 4.93126 27.125C4.93245 27.1297 5.04956 27.4906 5.08183 27.5904C5.22643 28.0403 5.72415 29.4098 6.32225 30.5248C6.36707 30.609 6.40889 30.6873 6.44892 30.7632C6.67299 31.1557 6.92095 31.5364 7.18804 31.9038C7.7497 32.668 8.39261 33.3785 9.08154 34.0459C10.4642 35.3813 12.0171 36.5387 13.6118 37.6662C15.2042 38.8002 16.8312 39.92 18.3758 41.1801C19.9191 42.4385 21.3788 43.8474 22.6019 45.4654C23.442 46.572 24.1644 47.7718 24.7577 49.0319C25.0403 49.7268 25.3451 49.7203 25.2997 49.2255" fill="#C6A669"/>
<path fill-rule="evenodd" clip-rule="evenodd" d="M25.9094 28.7545C25.5043 22.5327 23.3282 19.5069 21.7358 17.8949C19.6726 15.8066 18.5481 14.6922 17.9488 13.4434C17.095 11.8427 17.3932 10.3711 17.4045 10.2767C17.4153 10.1822 17.4021 10.1536 17.3579 10.1076C17.2993 10.0454 17.2061 10.0287 17.1291 10.0669C17.0639 10.0998 15.5104 10.8861 13.872 12.2819C11.6876 14.1425 10.4262 16.1967 10.2249 18.2235C9.95599 20.9248 11.4665 23.6506 14.8119 26.199C23.0456 32.4698 24.8321 36.35 25.5234 36.2031C25.6597 36.1744 25.6997 35.967 25.7009 35.8033C25.7075 35.0403 25.5467 33.6858 25.2593 32.6616C24.9235 31.4714 24.4061 30.3296 23.7656 29.2523C23.1256 28.1738 22.3614 27.161 21.5375 26.193C20.7135 25.2239 19.8268 24.3007 18.9174 23.3931L17.5401 22.0362C17.0681 21.5707 16.623 21.0736 16.2214 20.537C15.8223 20.0005 15.4626 19.4269 15.183 18.8084C14.9069 18.1894 14.6966 17.5316 14.6118 16.8504C14.5801 16.6036 14.5628 16.3545 14.5604 16.1053C14.5747 15.0537 14.7534 15.1111 14.9033 15.6686C15.2415 16.9251 15.7632 17.8656 16.1551 18.5473C16.3648 18.9112 16.6027 19.2608 16.8614 19.596C17.2426 20.0871 17.6686 20.5466 18.1233 20.9792L19.5298 22.3134C20.4649 23.2121 21.3863 24.1346 22.2539 25.1163C23.1209 26.0974 23.9394 27.1365 24.6391 28.2664C25 28.8472 25.4332 29.7267 25.6166 30.0792C25.8114 30.4533 25.9674 30.2848 25.9578 29.7327C25.9465 29.413 25.9309 29.0862 25.9094 28.7545" fill="#C6A669"/>
<path fill-rule="evenodd" clip-rule="evenodd" d="M73.7452 52.9919H71.5419V56.1913H73.7452C74.7395 56.1913 75.4201 55.5369 75.4201 54.5921C75.4201 53.6472 74.7395 52.9919 73.7452 52.9919V52.9919ZM70.4962 52.0601H73.8712C75.5582 52.0601 76.503 53.2187 76.503 54.5921C76.503 55.9645 75.534 57.1231 73.8712 57.1231H71.5419V60.4598H70.4962V52.0601Z" fill="#C6A669"/>
<path fill-rule="evenodd" clip-rule="evenodd" d="M82.4011 52.9919H80.1978V56.2035H82.4011C83.3954 56.2035 84.076 55.5369 84.076 54.5921C84.076 53.6472 83.3954 52.9919 82.4011 52.9919V52.9919ZM81.8727 57.1231H80.1978V60.4598H79.1521V52.0601H82.5271C84.0629 52.0601 85.159 53.0432 85.159 54.5921C85.159 56.1026 84.1264 56.9345 82.9809 57.0344L85.2467 60.4598H84.0134L81.8727 57.1231Z" fill="#C6A669"/>
<path fill-rule="evenodd" clip-rule="evenodd" d="M88.0729 52.06H93.5765V52.9918H89.1186V55.6992H93.4878V56.631H89.1186V59.5279H93.5765V60.4597H88.0729V52.06Z" fill="#C6A669"/>
<path fill-rule="evenodd" clip-rule="evenodd" d="M103.68 53.4705L100.822 60.4595H100.393L97.5474 53.4705V60.4595H96.5027V52.0598H98.0011L100.607 58.4578L103.227 52.0598H104.726V60.4595H103.68V53.4705Z" fill="#C6A669"/>
<path fill-rule="evenodd" clip-rule="evenodd" d="M107.955 60.4596H109.001V52.0599H107.955V60.4596Z" fill="#C6A669"/>
<path fill-rule="evenodd" clip-rule="evenodd" d="M112.227 52.06H113.272V57.1734C113.272 58.7092 114.103 59.6792 115.652 59.6792C117.201 59.6792 118.032 58.7092 118.032 57.1734V52.06H119.078V57.1855C119.078 59.2759 117.931 60.6109 115.652 60.6109C113.373 60.6109 112.227 59.2637 112.227 57.1986V52.06Z" fill="#C6A669"/>
<path fill-rule="evenodd" clip-rule="evenodd" d="M129.485 53.4705L126.626 60.4595H126.197L123.352 53.4705V60.4595H122.307V52.0598H123.806L126.411 58.4578L129.031 52.0598H130.53V60.4595H129.485V53.4705Z" fill="#C6A669"/>
<path fill-rule="evenodd" clip-rule="evenodd" d="M139.605 57.6645H143.245L141.431 52.9918L139.605 57.6645ZM143.559 58.5962H139.303L138.56 60.4597H137.402L140.776 52.06H142.074L145.461 60.4597H144.302L143.559 58.5962Z" fill="#C6A669"/>
<path fill-rule="evenodd" clip-rule="evenodd" d="M151.335 51.9215C152.821 51.9215 153.854 52.5769 154.597 53.4965L153.766 54.0118C153.236 53.3322 152.342 52.8541 151.335 52.8541C149.496 52.8541 148.099 54.2648 148.099 56.2665C148.099 58.256 149.496 59.6919 151.335 59.6919C152.342 59.6919 153.174 59.2008 153.589 58.7853V57.0731H150.705V56.1414H154.634V59.1756C153.854 60.0438 152.707 60.6236 151.335 60.6236C148.942 60.6236 147.016 58.8731 147.016 56.2665C147.016 53.6598 148.942 51.9215 151.335 51.9215" fill="#C6A669"/>
<path fill-rule="evenodd" clip-rule="evenodd" d="M157.599 52.06H163.103V52.9918H158.645V55.6992H163.014V56.631H158.645V59.5279H163.103V60.4597H157.599V52.06Z" fill="#C6A669"/>
<path fill-rule="evenodd" clip-rule="evenodd" d="M168.899 59.528C170.939 59.528 172.123 58.0679 172.123 56.2669C172.123 54.4529 170.978 52.9919 168.899 52.9919H167.073V59.528H168.899ZM166.029 52.0601H168.899C171.506 52.0601 173.206 53.8862 173.206 56.2669C173.206 58.6588 171.506 60.4598 168.899 60.4598H166.029V52.0601Z" fill="#C6A669"/>
<path fill-rule="evenodd" clip-rule="evenodd" d="M180.279 56.2667C180.279 53.6844 182.181 51.9218 184.561 51.9218C186.084 51.9218 187.117 52.6397 187.784 53.5845L186.903 54.0746C186.425 53.3698 185.556 52.8544 184.561 52.8544C182.76 52.8544 181.362 54.2642 181.362 56.2667C181.362 58.2563 182.76 59.6791 184.561 59.6791C185.556 59.6791 186.425 59.1749 186.903 58.4579L187.797 58.949C187.092 59.9059 186.084 60.6108 184.561 60.6108C182.181 60.6108 180.279 58.8482 180.279 56.2667" fill="#C6A669"/>
<path fill-rule="evenodd" clip-rule="evenodd" d="M191.693 57.6645H195.333L193.52 52.9918L191.693 57.6645ZM195.647 58.5962H191.391L190.648 60.4597H189.49L192.864 52.06H194.162L197.549 60.4597H196.39L195.647 58.5962Z" fill="#C6A669"/>
<path fill-rule="evenodd" clip-rule="evenodd" d="M203.158 52.9919H200.955V56.2035H203.158C204.153 56.2035 204.833 55.5369 204.833 54.5921C204.833 53.6472 204.153 52.9919 203.158 52.9919V52.9919ZM202.63 57.1231H200.955V60.4598H199.909V52.0601H203.284C204.821 52.0601 205.916 53.0432 205.916 54.5921C205.916 56.1026 204.884 56.9345 203.738 57.0344L206.004 60.4598H204.771L202.63 57.1231Z" fill="#C6A669"/>
<path fill-rule="evenodd" clip-rule="evenodd" d="M208.83 52.06H214.334V52.9918H209.876V55.6992H214.245V56.631H209.876V59.5279H214.334V60.4597H208.83V52.06Z" fill="#C6A669"/>
<path fill-rule="evenodd" clip-rule="evenodd" d="M222.655 22.7337C222.412 23.3253 222.164 23.9168 221.924 24.5094C220.51 28.0021 219.088 31.4917 217.697 34.9926C217.5 35.4876 217.213 35.7875 216.718 35.9323C216.425 36.0186 216.141 36.1397 215.852 36.2414C215.267 36.4468 215.055 36.3554 214.825 35.7782C214.168 34.131 213.52 32.4807 212.866 30.8334C210.829 25.6986 208.791 20.5648 206.752 15.432C206.455 14.6854 206.066 14.021 205.264 13.6995C205.081 13.6256 204.88 13.4931 204.945 13.2374C205.013 12.9724 205.249 12.9991 205.452 13.0053C207.226 13.0679 209.001 13.0679 210.775 13.0053C210.957 12.9991 211.169 12.9704 211.26 13.1943C211.352 13.4202 211.206 13.5609 211.037 13.6523C210.491 13.9501 210.521 14.3938 210.702 14.8836C211.425 16.8328 212.145 18.784 212.872 20.7322C214.273 24.4857 215.677 28.2383 217.084 31.9887C217.135 32.1274 217.145 32.2948 217.326 32.4283C217.403 32.265 217.486 32.112 217.548 31.9518C218.952 28.3636 220.348 24.7723 221.761 21.1882C221.91 20.8113 221.909 20.4898 221.754 20.116C221.118 18.5899 220.516 17.0495 219.889 15.5193C219.579 14.7635 219.183 14.0764 218.342 13.7776C218.154 13.7108 217.955 13.5722 218.035 13.3185C218.104 13.0998 218.317 13.0946 218.507 13.1029C220.351 13.1778 222.193 13.1758 224.036 13.1029C224.21 13.0957 224.39 13.1142 224.455 13.3175C224.516 13.5157 224.384 13.6276 224.246 13.7406C223.654 14.2274 223.612 14.3095 223.897 15.0911C224.68 17.2364 225.483 19.3756 226.282 21.5147C227.612 25.0762 228.946 28.6367 230.281 32.1962C230.316 32.2907 230.362 32.3821 230.417 32.5094C230.578 32.3934 230.611 32.228 230.668 32.0832C232.294 27.8881 233.911 23.6868 235.551 19.4957C236.017 18.3024 236.032 17.1809 235.289 16.0883C234.944 15.5789 234.673 15.0243 234.599 14.3979C234.461 13.2158 235.013 12.3419 235.99 12.1858C237.197 11.9937 238.225 12.65 238.476 13.7827C238.746 15.0069 238.432 16.1653 237.988 17.2775C235.59 23.278 233.165 29.2673 230.756 35.2627C230.625 35.5913 230.424 35.7967 230.08 35.8933C229.687 36.0042 229.304 36.15 228.915 36.2794C228.319 36.4776 228.227 36.4396 227.994 35.8553C226.704 32.607 225.417 29.3577 224.129 26.1094C223.683 24.9859 223.237 23.8644 222.79 22.7409C222.746 22.7389 222.7 22.7358 222.655 22.7337" fill="#254F4A"/>
<path fill-rule="evenodd" clip-rule="evenodd" d="M89.5988 24.8654H75.6295C75.4813 25.066 75.5245 25.259 75.5245 25.442C75.5221 28.0456 75.5208 30.6479 75.527 33.2514C75.5282 33.625 75.569 33.9998 75.5925 34.3721C75.6307 34.9524 75.8555 35.4062 76.3878 35.687C76.6138 35.8061 76.9139 35.944 76.8225 36.2849C76.7312 36.6234 76.415 36.5908 76.1519 36.5745C74.0796 36.4479 72.0084 36.4479 69.9373 36.5757C69.6681 36.592 69.3618 36.5995 69.2766 36.2661C69.1975 35.9603 69.4631 35.8161 69.6804 35.7133C70.3486 35.3962 70.5733 34.8333 70.5807 34.1389C70.5943 32.9731 70.6104 31.8074 70.6104 30.6416C70.6079 24.2274 70.5968 17.8132 70.5993 11.3989C70.5993 10.514 70.4548 9.73929 69.5433 9.33942C69.3544 9.25669 69.1963 9.08997 69.2864 8.83927C69.3717 8.6011 69.5816 8.57227 69.7953 8.57979C71.9701 8.65751 74.145 8.65626 76.3199 8.58105C76.5298 8.57353 76.746 8.58982 76.8213 8.84178C76.8966 9.08997 76.7447 9.25669 76.5545 9.34318C75.7283 9.71924 75.5505 10.4425 75.548 11.2523C75.5381 15.2297 75.5344 19.2071 75.5307 23.1845C75.5307 23.2434 75.5566 23.3023 75.5826 23.4151H89.5729C89.7088 23.281 89.668 23.1055 89.668 22.945C89.668 19.1344 89.6655 15.3237 89.6606 11.5118C89.6594 10.6105 89.5853 9.74431 88.6046 9.31937C88.4293 9.24415 88.3119 9.07869 88.3737 8.86058C88.4453 8.61113 88.6503 8.57603 88.8652 8.58105C89.9113 8.6011 90.9586 8.64247 92.0047 8.64122C93.0927 8.64122 94.1795 8.59734 95.2676 8.5823C95.5257 8.57729 95.8468 8.51712 95.9234 8.87938C95.9888 9.189 95.7221 9.32563 95.5059 9.42466C94.907 9.70169 94.6735 10.1993 94.6365 10.8223C94.6093 11.2786 94.5896 11.7361 94.5896 12.1949C94.5859 19.108 94.5871 26.0224 94.5883 32.9355C94.5883 33.3529 94.5982 33.7691 94.6192 34.1853C94.6563 34.8684 94.8674 35.4426 95.5479 35.7446C95.769 35.8424 96.0148 35.9966 95.9098 36.3112C95.8221 36.5757 95.5702 36.5895 95.3417 36.5757C93.2076 36.4491 91.0759 36.4491 88.943 36.5757C88.7109 36.5908 88.4713 36.5657 88.3811 36.2987C88.2872 36.0167 88.4861 35.855 88.6911 35.7622C89.4173 35.4338 89.6396 34.8108 89.6445 34.085C89.6594 31.0866 89.6581 28.0882 89.6606 25.0898C89.6606 25.0309 89.6297 24.9732 89.5988 24.8654" fill="#254F4A"/>
<path fill-rule="evenodd" clip-rule="evenodd" d="M190.279 14.173V23.0542C190.331 23.0901 190.358 23.125 190.386 23.125C192.021 23.1404 193.661 23.2544 195.29 23.0357C196.702 22.8467 197.215 22.2295 197.35 21.143C197.359 21.0762 197.382 21.0105 197.401 20.9448C197.46 20.7188 197.6 20.574 197.839 20.6069C198.066 20.6377 198.132 20.8195 198.123 21.0259C198.047 22.8005 198.043 24.5741 198.124 26.3476C198.133 26.5551 198.071 26.7338 197.846 26.7728C197.629 26.8108 197.495 26.6711 197.419 26.4822C197.375 26.3723 197.331 26.2562 197.319 26.1392C197.208 25.0906 196.55 24.5689 195.582 24.4149C193.837 24.1376 192.08 24.305 190.362 24.2598C190.207 24.4827 190.255 24.6768 190.255 24.8585C190.251 27.6909 190.252 30.5233 190.253 33.3556C190.254 33.5425 190.255 33.7315 190.28 33.9174C190.361 34.5079 190.579 34.7287 191.171 34.7677C191.665 34.8006 192.161 34.7934 192.655 34.7903C194.532 34.7811 196.41 34.7841 198.286 34.7472C199.572 34.7215 200.427 34.0529 200.865 32.8504C201.004 32.4653 201.128 32.076 201.26 31.6889C201.298 31.5759 201.333 31.4609 201.382 31.3531C201.495 31.1056 201.7 30.9813 201.961 31.0409C202.255 31.1076 202.226 31.3695 202.202 31.5862C202.094 32.569 201.972 33.5508 201.859 34.5325C201.822 34.855 201.805 35.1785 201.765 35.4999C201.72 35.8666 201.495 36.034 201.132 36.0216C195.996 35.8563 190.859 35.9877 185.723 35.9426C185.589 35.9415 185.446 35.9354 185.32 35.8953C184.997 35.7916 184.933 35.5256 185.209 35.3798C186.181 34.8653 186.166 33.9841 186.165 33.0814C186.159 27.2123 186.153 21.3432 186.161 15.4741C186.162 14.6967 186.051 14.0097 185.275 13.6122C185.143 13.5434 185.018 13.4181 185.071 13.2384C185.122 13.0679 185.275 13.0207 185.438 13.0145C185.642 13.0063 185.846 13.0012 186.051 13.0012C190.352 12.9961 194.653 12.994 198.953 12.9827C199.567 12.9807 200.181 12.9437 200.794 12.9088C201.256 12.8821 201.483 13.0659 201.522 13.5445C201.61 14.6156 201.736 15.6826 201.839 16.7517C201.864 17.0033 201.93 17.3073 201.589 17.3863C201.263 17.4623 201.09 17.2292 200.989 16.9519C200.821 16.4877 200.677 16.0143 200.494 15.5553C200.183 14.7727 199.591 14.3301 198.757 14.2305C198.352 14.1822 197.942 14.1483 197.533 14.1463C195.264 14.137 192.994 14.1391 190.724 14.1401C190.591 14.1401 190.457 14.1596 190.279 14.173" fill="#254F4A"/>
<path fill-rule="evenodd" clip-rule="evenodd" d="M159.892 32.0586C160.902 29.4333 161.843 26.9909 162.78 24.5473C163.842 21.774 164.876 18.9896 165.973 16.2313C166.575 14.7167 166.562 13.3089 165.623 11.9372C165.261 11.4099 164.996 10.8317 164.871 10.1875C164.59 8.7188 165.239 7.51624 166.46 7.29364C168.024 7.00761 169.367 7.9316 169.57 9.44257C169.752 10.8155 169.444 12.1188 168.944 13.3773C166.061 20.6386 163.16 27.8963 160.276 35.1588C160.098 35.6041 159.822 35.8739 159.379 36.0107C158.929 36.1487 158.485 36.3092 158.037 36.4547C157.309 36.691 157.206 36.6474 156.926 35.9436C155.891 33.337 154.862 30.7292 153.828 28.1213C151.633 22.5811 149.435 17.0422 147.24 11.502C146.853 10.5257 146.391 9.61916 145.318 9.21624C145.091 9.13167 144.877 8.94638 144.972 8.64045C145.061 8.35816 145.319 8.38427 145.54 8.39173C147.734 8.46759 149.926 8.4651 152.12 8.39049C152.345 8.38303 152.589 8.37557 152.68 8.65662C152.751 8.87176 152.631 9.03218 152.464 9.12048C151.636 9.55822 151.752 10.2323 152.012 10.9324C152.975 13.5452 153.945 16.1542 154.915 18.7633C156.452 22.8995 157.992 27.0344 159.533 31.1706C159.625 31.4156 159.73 31.6556 159.892 32.0586" fill="#254F4A"/>
<path fill-rule="evenodd" clip-rule="evenodd" d="M121.366 35.9448H114.387C114.25 35.9448 114.113 35.953 113.977 35.9407C113.762 35.9212 113.495 35.9571 113.422 35.684C113.356 35.4344 113.579 35.3163 113.75 35.2208C114.314 34.9066 114.489 34.4003 114.494 33.8036C114.502 32.3874 114.51 30.9702 114.51 29.554C114.509 24.8618 114.5 20.1686 114.508 15.4764C114.509 14.7 114.407 14.0078 113.619 13.6237C113.448 13.5406 113.364 13.3937 113.43 13.1996C113.491 13.0178 113.65 13.0004 113.808 13.0055C115.634 13.062 117.459 13.0692 119.285 13.0065C119.461 13.0004 119.638 13.0281 119.689 13.2397C119.732 13.4183 119.625 13.5477 119.483 13.6124C118.686 13.9729 118.607 14.6764 118.606 15.4168C118.602 18.9835 118.601 22.5501 118.599 26.1168C118.599 28.5733 118.597 31.0308 118.6 33.4883C118.602 34.543 118.84 34.7895 119.896 34.7885C121.603 34.7874 123.311 34.7843 125.017 34.7494C126.302 34.7227 127.16 34.0603 127.602 32.8598C127.767 32.4121 127.913 31.9571 128.074 31.5083C128.18 31.2156 128.354 30.9558 128.705 31.0441C129.073 31.1355 128.975 31.4601 128.945 31.726C128.812 32.9461 128.665 34.1651 128.542 35.3872C128.494 35.8575 128.258 36.0496 127.8 36.0208C125.515 35.8811 123.227 35.9797 121.366 35.9448" fill="#254F4A"/>
<path fill-rule="evenodd" clip-rule="evenodd" d="M133.894 24.4286C133.894 21.4422 133.886 18.4558 133.9 15.4694C133.903 14.692 133.792 14.0029 133.004 13.6198C132.854 13.5469 132.771 13.4165 132.809 13.2419C132.855 13.0263 133.028 12.9996 133.206 13.0047C135.031 13.0632 136.857 13.0684 138.684 13.0057C138.84 13.0006 139.003 13.0242 139.068 13.1967C139.143 13.396 139.029 13.5418 138.869 13.6157C138.095 13.967 138 14.6478 137.999 15.3729C137.995 21.4648 137.992 27.5558 137.995 33.6487C137.996 34.4795 138.252 34.7712 139.04 34.7784C140.831 34.7948 142.624 34.8318 144.415 34.7548C145.7 34.6983 146.556 34.0554 146.995 32.8539C147.154 32.4215 147.293 31.982 147.449 31.5496C147.558 31.2446 147.722 30.9488 148.103 31.0454C148.469 31.1388 148.365 31.4675 148.337 31.7324C148.202 32.9524 148.056 34.1715 147.933 35.3935C147.885 35.868 147.64 36.0498 147.185 36.02C145.259 35.8937 143.33 35.9563 141.402 35.9481C138.875 35.9368 136.349 35.945 133.824 35.945C133.67 35.945 133.514 35.9543 133.363 35.9399C133.148 35.9214 132.881 35.9553 132.813 35.678C132.752 35.4274 132.976 35.3124 133.148 35.2169C133.803 34.8554 133.892 34.2464 133.892 33.5922C133.893 30.5381 133.893 27.4828 133.893 24.4286H133.894Z" fill="#254F4A"/>
<path fill-rule="evenodd" clip-rule="evenodd" d="M176.086 13.0037C176.94 13.0037 177.792 13.0026 178.644 13.0047C178.862 13.0047 179.127 12.9585 179.194 13.2491C179.252 13.5048 179.015 13.6024 178.84 13.6886C178.338 13.9403 178.137 14.3572 178.12 14.8912C178.106 15.3174 178.081 15.7436 178.081 16.1698C178.077 21.6959 178.078 27.222 178.081 32.7491C178.081 33.1404 178.103 33.5327 178.11 33.925C178.121 34.5104 178.301 34.9889 178.87 35.2631C179.045 35.3473 179.274 35.4562 179.183 35.7201C179.1 35.9635 178.867 35.9522 178.663 35.9399C176.924 35.8372 175.186 35.8351 173.446 35.9389C173.229 35.9522 172.969 35.9779 172.897 35.6924C172.833 35.4367 173.047 35.3268 173.229 35.2405C173.741 34.9992 173.936 34.5792 173.954 34.0451C173.968 33.6703 173.998 33.2955 173.998 32.9206C174.001 27.2918 174.001 21.663 173.999 16.0353C173.999 15.7107 173.974 15.3872 173.97 15.0627C173.963 14.4394 173.783 13.9238 173.16 13.6507C172.983 13.5726 172.829 13.4442 172.904 13.2142C172.979 12.9811 173.189 13.0057 173.374 13.0047C174.279 13.0026 175.182 13.0037 176.086 13.0037" fill="#254F4A"/>
<path fill-rule="evenodd" clip-rule="evenodd" d="M104.402 13.0037C105.272 13.0037 106.143 13.0016 107.012 13.0057C107.21 13.0068 107.452 12.9575 107.523 13.2276C107.592 13.4894 107.377 13.5962 107.198 13.6825C106.69 13.9259 106.494 14.351 106.462 14.8789C106.439 15.2527 106.419 15.6286 106.419 16.0034C106.416 21.6517 106.417 27.3 106.419 32.9483C106.419 33.2893 106.434 33.6313 106.454 33.9712C106.485 34.5299 106.657 35.0033 107.215 35.2611C107.395 35.3443 107.606 35.4644 107.518 35.7242C107.434 35.9748 107.197 35.9512 106.997 35.9389C105.257 35.8362 103.518 35.8362 101.777 35.9389C101.578 35.9512 101.337 35.9779 101.252 35.7304C101.154 35.4459 101.387 35.3299 101.584 35.2354C102.094 34.991 102.284 34.5668 102.303 34.0349C102.305 33.9835 102.311 33.9322 102.311 33.8808C102.311 27.6009 102.31 21.3221 102.311 15.0422C102.311 14.4363 102.13 13.9372 101.531 13.6671C101.358 13.589 101.187 13.474 101.24 13.2409C101.303 12.9657 101.541 13.0057 101.74 13.0047C102.626 13.0006 103.515 13.0037 104.402 13.0037" fill="#254F4A"/>
</svg>
