<svg width="205" height="57" fill="none" xmlns="http://www.w3.org/2000/svg"><path d="M38.734 19.645c0 10.698-8.672 19.364-19.364 19.364-.192 0-.385 0-.57-.006a41.76 41.76 0 01-1.69-3.36c.349-.108.698-.228 1.046-.348 4.592-1.635 8.288-3.853 10.698-6.413 2.53-2.692 3.492-5.65 2.698-8.336a6.063 6.063 0 00-1.37-2.422 6.122 6.122 0 00-2.344-1.574c-1.154-.445-2.428-.577-3.792-.403.384-.835.673-1.67.865-2.5.475-2.062.325-4.015-.432-5.65a6.471 6.471 0 00-2.308-2.692 6.29 6.29 0 00-3.432-.992c-.865 0-1.689.157-2.452.463.168-.433.337-.86.517-1.292.457-1.076.962-2.14 1.514-3.18.349-.017.703-.03 1.058-.03C30.074.275 38.74 8.948 38.74 19.64m-27.345 8.33a43.663 43.663 0 01-.884-8.769c0-2.95.295-5.902.884-8.768a43.338 43.338 0 013.15-9.556C6.177 3.033 0 10.618 0 19.645c0 9.027 6.413 16.9 15.013 18.877a44.425 44.425 0 01-1.088-2.374 43.144 43.144 0 01-2.536-8.167m11.377 1.748c1.544-.931 2.824-1.935 3.816-2.986.914-.974 1.545-1.948 1.87-2.897.294-.854.33-1.671.107-2.422-.27-.92-.925-1.623-1.85-1.978-.692-.264-1.491-.336-2.375-.204-1.051.156-2.17.59-3.323 1.292a1.55 1.55 0 01-1.99-.318 1.564 1.564 0 01-.012-2.02c1.479-1.755 2.465-3.576 2.855-5.264.319-1.377.24-2.639-.222-3.636-.559-1.196-1.617-1.882-2.915-1.882-1.388 0-2.476.71-3.324 2.176-.546.938-.973 2.164-1.274 3.642-.138.68-.252 1.418-.336 2.2a41.166 41.166 0 00-.174 3.762c0 4.664.78 9.201 2.32 13.534a29.4 29.4 0 001.165-.384c2.11-.751 4.015-1.635 5.662-2.627m179.872-6.99c0 .53-.096 1.882-.096 1.882h-13.408c.204 1.226 1.382 4.255 5.469 4.255 2.83 0 5.481-1.67 5.481-1.67l1.749 3.894s-3.504 2.031-7.825 2.031c-6.785 0-10.415-4.814-10.415-10.049 0-5.643 3.804-10.042 9.802-10.042 5.998 0 9.231 4.471 9.231 9.7m-5.331-1.695c-.12-1.082-.817-3.756-3.894-3.756s-4.093 2.692-4.279 3.756h8.173zm-21.762-5.481l-.499-2.067h-4.441V32.65h5.487V22.602c0-2.633 1.448-5.331 4.423-5.331 1.293 0 2.356.463 2.356.463l.589-4.382s-1.088-.336-2.59-.336c-3.107 0-4.82 1.809-5.325 2.53m-7.717 13.018l.397 4.206s-1.611.337-2.747.337c-2.608 0-3.684-1.7-4.062-2.53-.794.985-2.849 2.53-5.986 2.53-4.694 0-6.93-3.233-6.93-6.154 0-5.523 5.559-6.485 8.865-6.485 1.058 0 1.941.108 3.041.313v-.577c0-1.317-.733-2.94-3.281-2.94-3.156 0-6.257 1.431-6.257 1.431l-1.442-3.978s3.852-1.701 8.27-1.701c5.451 0 8.107 3.54 8.107 7.26v7.506c0 .77.529 1.076.962 1.076.601 0 1.057-.294 1.057-.294m-7.506-4.508a12.196 12.196 0 00-2.753-.294c-3.467 0-4.201 1.7-4.201 2.758 0 .932.842 2.338 2.939 2.338 2.987 0 4.015-2.254 4.015-3.954v-.848zm-21.275-13.174c3.594 0 5.829 1.743 5.829 1.743l2.392-3.918s-3.359-2.53-8.864-2.53c-6.768 0-13.343 4.44-13.343 13.462 0 9.02 6.575 13.462 13.343 13.462 5.505 0 8.864-2.53 8.864-2.53l-2.392-3.919s-2.229 1.743-5.829 1.743c-5.163 0-8.246-3.78-8.246-8.756 0-4.976 3.083-8.757 8.246-8.757z" fill="#006AFF"/><path d="M95.793 13.49h5.487v19.166h-4.441l-.5-2.073c-.642.775-2.547 2.53-6.19 2.53-4.814 0-7.572-3.474-7.572-7.386V13.49h5.487v11.815c0 1.857 1.232 3.564 3.564 3.564s4.17-1.725 4.17-4.483v-10.89l-.005-.006zM80.425 28.577s-1.508.294-1.935.294c-1.088 0-1.568-.71-1.568-1.575l.048-20.662h-5.487v20.903c0 2.885 1.766 5.583 6.1 5.583 2.127 0 3.774-.463 3.774-.463l-.932-4.086v.006zm23.337-5.506c0-5.643 3.804-10.042 9.802-10.042 5.998 0 9.232 4.471 9.232 9.706 0 .529-.096 1.875-.096 1.875h-13.409c.205 1.226 1.383 4.255 5.469 4.255 2.831 0 5.481-1.67 5.481-1.67l1.749 3.894s-3.503 2.025-7.825 2.025c-6.785 0-10.415-4.814-10.415-10.049m5.535-2.031h8.174c-.12-1.082-.818-3.762-3.895-3.762s-4.092 2.692-4.279 3.762zM60.382 32.65H48.404V6.633h11.39c6.292 0 8.365 4.147 8.365 7.05 0 3.293-2.218 4.91-3.041 5.39 1.1.506 3.907 2.267 3.907 6.233 0 3.967-3.264 7.35-8.649 7.35m-6.49-15.38h5.222c2.65 0 3.564-1.784 3.564-3.16 0-1.377-.883-3.216-3.564-3.216h-5.223v6.383-.006zm5.72 11.125c2.741 0 3.86-1.977 3.86-3.714 0-2.993-2.579-3.654-3.86-3.654h-5.72v7.368h5.72zM49.428 42.757h-1.246v10.246h6.207v-.992h-4.96v-9.26.006zm7.12-.232c-.244 0-.445.073-.597.226a.794.794 0 00-.23.584.78.78 0 00.23.578c.152.153.353.226.596.226a.764.764 0 00.578-.226.776.776 0 00.225-.578.776.776 0 00-.225-.578.788.788 0 00-.578-.232zm-.609 10.478h1.204v-7.41h-1.204v7.41zm6.299-1.4l-2.341-6.01h-1.264l3.045 7.41h1.125l3.052-7.41h-1.277l-2.334 6.01h-.006zm10.317-5.15c.626.7.936 1.6.936 2.708 0 .195 0 .341-.012.439h-5.727c.055.785.334 1.424.845 1.911.504.487 1.149.731 1.92.731.718 0 1.466-.207 2.238-.621l.377.834c-.954.487-1.872.737-2.742.737-1.124 0-2.042-.366-2.766-1.096-.717-.73-1.076-1.662-1.076-2.8 0-1.14.334-2.07 1.003-2.795.669-.725 1.532-1.09 2.59-1.09.985 0 1.787.347 2.414 1.047m-.231 2.375c-.025-.731-.237-1.328-.639-1.784-.401-.457-.918-.688-1.544-.688-.663 0-1.21.225-1.648.676-.437.45-.686 1.047-.747 1.796h4.578zm8.22 3.372c-.28 0-.5-.079-.657-.243-.159-.158-.238-.378-.238-.652v-9.04h-1.203v9.138c0 .548.164.986.492 1.309.328.322.778.48 1.35.48a5.55 5.55 0 001.137-.14l-.146-.955a3.614 3.614 0 01-.736.103zm2.267.804h1.203V45.6h-1.203v7.41zm.608-10.478c-.243 0-.444.073-.596.226a.794.794 0 00-.231.584c0 .237.079.426.23.578.153.153.353.226.597.226a.764.764 0 00.577-.226.776.776 0 00.225-.578.776.776 0 00-.225-.578.788.788 0 00-.577-.232zm4.261.159c-.413.401-.614.919-.614 1.558v1.346h-1.538v.943h1.538v6.466h1.204v-6.466h2.085v-.943H88.27v-1.236c0-.384.122-.694.359-.926.237-.237.547-.353.924-.353.28 0 .626.049 1.052.152l.17-.943a5.976 5.976 0 00-1.478-.195c-.656 0-1.197.2-1.604.597m9.52 3.768c.626.7.936 1.601.936 2.71 0 .194 0 .34-.012.438H92.41c.055.785.335 1.424.84 1.911.504.487 1.148.731 1.92.731.718 0 1.465-.207 2.238-.621l.376.834c-.954.487-1.872.737-2.741.737-1.125 0-2.043-.365-2.76-1.096-.718-.73-1.076-1.662-1.076-2.8 0-1.14.334-2.07 1.003-2.795.668-.725 1.532-1.09 2.59-1.09.984 0 1.793.347 2.413 1.047m-.23 2.375c-.025-.73-.238-1.328-.64-1.784-.4-.457-.917-.688-1.544-.688-.662 0-1.21.225-1.647.676-.438.45-.687 1.047-.748 1.796h4.578zm8.912 2.782l-2.384-6.015h-1.264l3.064 7.354-.377.962c-.201.524-.419.895-.663 1.12-.243.226-.547.341-.924.341-.206 0-.456-.042-.754-.121l-.164.968a4.6 4.6 0 001.034.14c.59 0 1.088-.177 1.489-.536.408-.36.76-.925 1.07-1.705l3.441-8.53h-1.276l-2.298 6.016.006.006zm10.766-5.108c.706.73 1.058 1.662 1.058 2.794 0 1.133-.352 2.07-1.058 2.801-.705.73-1.611 1.096-2.717 1.096-1.107 0-2.012-.365-2.718-1.096-.705-.73-1.057-1.662-1.057-2.8 0-1.139.352-2.07 1.057-2.795.706-.73 1.611-1.09 2.718-1.09 1.106 0 2.012.365 2.717 1.09zm-.188 2.794c0-.852-.237-1.546-.711-2.088-.475-.542-1.083-.81-1.818-.81-.736 0-1.35.268-1.824.81-.468.542-.705 1.236-.705 2.088 0 .853.231 1.553.705 2.095.468.542 1.076.81 1.824.81s1.343-.268 1.818-.81c.474-.542.711-1.236.711-2.095zm8.378.481c0 .7-.213 1.279-.639 1.723-.425.445-.96.67-1.605.67-.571 0-1.039-.176-1.404-.536-.365-.353-.547-.816-.547-1.376V45.6h-1.204v4.835c0 .816.261 1.48.784 1.99.523.512 1.198.774 2.019.774.589 0 1.118-.134 1.586-.402a2.757 2.757 0 001.089-1.132l.139 1.345h.973V45.6h-1.204v4.183l.013.006zm5.526-3.896a2.29 2.29 0 00-.894 1.12l-.146-1.4h-.973v7.41h1.204v-4.025c0-.749.195-1.358.59-1.827.389-.462.906-.7 1.538-.7.231 0 .523.043.888.128l.139-.992a4.096 4.096 0 00-.93-.128c-.529 0-1.003.134-1.41.408m14.098 5.68l-1.824-5.966h-1.136l-1.824 5.997-1.836-5.997h-1.204l2.426 7.41h1.167l1.836-6.022 1.824 6.021h1.197l2.438-7.41h-1.246l-1.812 5.967h-.006zm11.345.633l.091.914a4.57 4.57 0 01-.791.079c-.401 0-.729-.11-.978-.335-.25-.22-.402-.524-.444-.907a3.06 3.06 0 01-1.125.913c-.45.22-.936.329-1.447.329-.735 0-1.349-.213-1.848-.64-.492-.426-.742-.955-.742-1.595 0-.779.298-1.382.9-1.814.602-.432 1.435-.651 2.493-.651a6.5 6.5 0 011.653.219v-.755c0-.469-.17-.853-.504-1.15-.335-.3-.772-.445-1.307-.445-.772 0-1.587.182-2.45.542l-.341-.883c1.046-.402 2.019-.603 2.931-.603.838 0 1.519.238 2.048.706.529.475.791 1.096.791 1.863v3.586c0 .213.06.378.176.5.122.121.28.182.492.182a3.1 3.1 0 00.396-.055m-2.232-2.74a6.947 6.947 0 00-1.52-.188c-.729 0-1.294.14-1.708.426-.413.286-.614.682-.614 1.187 0 .408.158.75.474 1.017.316.274.718.408 1.198.408.638 0 1.161-.207 1.568-.621.408-.414.608-.95.608-1.607v-.627l-.006.006zm8.317-3.86l-2.298 6.016-2.377-6.015h-1.265l3.065 7.354-.377.962c-.201.524-.42.895-.663 1.12-.243.226-.547.341-.924.341a3.04 3.04 0 01-.754-.121l-.164.968c.389.09.729.14 1.033.14.59 0 1.089-.177 1.49-.536.401-.36.76-.925 1.07-1.705l3.441-8.53h-1.277v.007z" fill="#002473"/></svg>