<svg width="122" height="65" viewBox="0 0 122 65" fill="none" xmlns="http://www.w3.org/2000/svg">
<path d="M82.2945 57.5908C82.2975 57.6735 82.3319 57.752 82.3909 57.8106C82.4499 57.8691 82.529 57.9034 82.6123 57.9064H84.6249C84.7082 57.9034 84.7873 57.8691 84.8463 57.8106C84.9053 57.752 84.9398 57.6735 84.9428 57.5908V48.7077H87.3393C87.4236 48.7077 87.5044 48.6744 87.5641 48.6152C87.6237 48.556 87.6572 48.4758 87.6572 48.3921V46.5785C87.6572 46.4948 87.6237 46.4146 87.5641 46.3554C87.5044 46.2962 87.4236 46.2629 87.3393 46.2629H79.9004C79.8159 46.2629 79.7348 46.2961 79.6748 46.3552C79.6148 46.4143 79.5807 46.4946 79.5801 46.5785V48.3921C79.5807 48.476 79.6148 48.5563 79.6748 48.6154C79.7348 48.6745 79.8159 48.7077 79.9004 48.7077H82.2945V57.5908Z" fill="black"/>
<path d="M70.6424 56.7921C71.0287 57.1756 72.2343 58.0739 74.4131 58.0739C76.8756 58.0739 78.3649 56.3429 78.3649 54.629C78.3649 52.3663 76.2887 51.3539 74.9805 50.8368C73.6722 50.3197 73.1562 49.839 73.1562 49.2224C73.1562 48.7733 73.6062 48.3751 74.2102 48.3751C75.2323 48.3751 76.455 49.2904 76.6066 49.3729C76.7583 49.4554 77.059 49.3389 77.1764 49.1568L78.0323 47.8774C78.0811 47.7908 78.0977 47.6899 78.0794 47.5924C78.0611 47.4948 78.009 47.4067 77.932 47.3433C76.8949 46.5657 75.639 46.1295 74.3398 46.0955C71.7599 46.0955 70.4688 47.7609 70.4688 49.4069C70.4688 51.4025 72.2783 52.5168 73.7187 53.0825C74.8582 53.5316 75.4451 54.0536 75.4451 54.7625C75.4451 55.3451 74.956 55.7603 74.2909 55.7603C73.1831 55.7603 71.9775 54.879 71.9115 54.845C71.8203 54.789 71.7114 54.7684 71.6058 54.7873C71.5001 54.8061 71.4053 54.863 71.3393 54.947L70.5592 56.3381C70.4247 56.5809 70.4736 56.6367 70.6424 56.8042" fill="black"/>
<path d="M65.8906 57.5908C65.8931 57.6737 65.9274 57.7526 65.9865 57.8112C66.0455 57.8699 66.125 57.9039 66.2085 57.9064H68.226C68.3095 57.9039 68.3889 57.8699 68.448 57.8112C68.5071 57.7526 68.5414 57.6737 68.5439 57.5908V46.5785C68.5414 46.4956 68.5071 46.4167 68.448 46.3581C68.3889 46.2994 68.3095 46.2654 68.226 46.2629H66.2159C66.1323 46.2654 66.0529 46.2994 65.9938 46.3581C65.9347 46.4167 65.9004 46.4956 65.898 46.5785L65.8906 57.5908Z" fill="black"/>
<path d="M57.6327 51.2398V48.6421H60.1123C60.4492 48.644 60.7718 48.7776 61.0102 49.0138C61.2487 49.2501 61.3838 49.5701 61.3863 49.9045C61.3862 50.2464 61.254 50.5751 61.017 50.8231C60.7799 51.0711 60.4562 51.2193 60.1123 51.2374L57.6327 51.2398ZM55.0015 57.5932C55.0015 57.6769 55.035 57.7572 55.0946 57.8163C55.1542 57.8755 55.2351 57.9088 55.3194 57.9088H57.3148C57.3981 57.9058 57.4772 57.8716 57.5362 57.813C57.5952 57.7545 57.6297 57.6759 57.6327 57.5932V53.3495H58.7894L61.0171 57.7558C61.0446 57.8022 61.084 57.8405 61.1312 57.867C61.1785 57.8934 61.2319 57.907 61.2861 57.9064H63.5138C63.5725 57.9102 63.6311 57.8977 63.683 57.8702C63.7348 57.8428 63.7779 57.8015 63.8074 57.751C63.8369 57.7005 63.8516 57.6428 63.8499 57.5845C63.8481 57.5261 63.83 57.4695 63.7975 57.4208L61.5037 53.1941C62.971 52.6115 63.9833 51.3806 63.9833 49.8511C63.9769 48.8943 63.5888 47.979 62.9041 47.3055C62.2194 46.6321 61.2938 46.2555 60.3299 46.2581H55.3194C55.2351 46.2581 55.1542 46.2913 55.0946 46.3505C55.035 46.4097 55.0015 46.49 55.0015 46.5737V57.5932Z" fill="black"/>
<path d="M80.0006 40.543C80.3845 40.9266 81.5925 41.8249 83.7689 41.8249C86.2339 41.8249 87.7255 40.0939 87.7255 38.3799C87.7255 36.1173 85.647 35.1049 84.3411 34.5878C83.0353 34.0707 82.512 33.59 82.512 32.9758C82.512 32.5242 82.9668 32.1261 83.5684 32.1261C84.5906 32.1261 85.8157 33.0413 85.9649 33.1239C86.114 33.2064 86.4173 33.0923 86.5346 32.9078L87.3881 31.6284C87.4405 31.5429 87.4605 31.4416 87.4443 31.3427C87.4282 31.2439 87.377 31.1541 87.3 31.0894C86.265 30.3133 85.0118 29.8771 83.7151 29.8416C81.1352 29.8416 79.8441 31.507 79.8441 33.153C79.8441 35.1486 81.6537 36.2629 83.0964 36.8286C84.236 37.2777 84.8204 37.8118 84.8204 38.5086C84.8204 39.0912 84.3314 39.5064 83.6638 39.5064C82.5585 39.5064 81.3529 38.6251 81.2844 38.5911C81.1941 38.5349 81.0858 38.5142 80.9809 38.533C80.8759 38.5519 80.7818 38.609 80.7171 38.6931L79.915 40.072C79.7805 40.3148 79.8319 40.3731 80.0006 40.5382" fill="black"/>
<path d="M70.73 41.3417C70.73 41.4254 70.7635 41.5057 70.8231 41.5649C70.8827 41.6241 70.9636 41.6573 71.0479 41.6573H77.9854C78.0272 41.6573 78.0685 41.6492 78.1071 41.6333C78.1457 41.6175 78.1807 41.5942 78.2102 41.5649C78.2397 41.5356 78.2632 41.5008 78.2791 41.4625C78.2951 41.4242 78.3033 41.3832 78.3033 41.3417V39.5282C78.3033 39.4868 78.2951 39.4457 78.2791 39.4074C78.2632 39.3691 78.2397 39.3344 78.2102 39.305C78.1807 39.2757 78.1457 39.2525 78.1071 39.2366C78.0685 39.2208 78.0272 39.2126 77.9854 39.2126H73.3392V36.967H77.1589C77.2434 36.967 77.3245 36.9338 77.3845 36.8747C77.4445 36.8155 77.4786 36.7353 77.4792 36.6514V34.8378C77.4762 34.7547 77.4414 34.6758 77.3819 34.6172C77.3224 34.5586 77.2427 34.5246 77.1589 34.5222H73.3441V32.4586H77.9903C78.0746 32.4586 78.1555 32.4254 78.2151 32.3662C78.2747 32.307 78.3082 32.2267 78.3082 32.143V30.3295C78.3082 30.2458 78.2747 30.1655 78.2151 30.1064C78.1555 30.0472 78.0746 30.0139 77.9903 30.0139H71.0479C70.9636 30.0139 70.8827 30.0472 70.8231 30.1064C70.7635 30.1655 70.73 30.2458 70.73 30.3295V41.3417Z" fill="black"/>
<path d="M58.5693 41.3417C58.5718 41.4247 58.6061 41.5035 58.6652 41.5622C58.7243 41.6209 58.8037 41.6549 58.8872 41.6573H60.89C60.932 41.6577 60.9736 41.6497 61.0124 41.634C61.0513 41.6183 61.0866 41.5951 61.1164 41.5658C61.1462 41.5364 61.1698 41.5015 61.1859 41.4631C61.202 41.4246 61.2103 41.3834 61.2103 41.3417V36.9718H66.0008V41.3417C66.0008 41.4254 66.0343 41.5057 66.094 41.5649C66.1536 41.6241 66.2344 41.6573 66.3187 41.6573H68.3142C68.3977 41.6549 68.4771 41.6209 68.5362 41.5622C68.5953 41.5035 68.6296 41.4247 68.6321 41.3417V30.3295C68.629 30.2468 68.5946 30.1682 68.5356 30.1097C68.4766 30.0511 68.3975 30.0169 68.3142 30.0139H66.3187C66.2344 30.0139 66.1536 30.0472 66.094 30.1064C66.0343 30.1655 66.0008 30.2458 66.0008 30.3295V34.5222H61.2006V30.3295C61.1999 30.2456 61.1659 30.1653 61.1059 30.1062C61.0459 30.0471 60.9648 30.0139 60.8802 30.0139H58.8872C58.8037 30.0164 58.7243 30.0504 58.6652 30.1091C58.6061 30.1677 58.5718 30.2466 58.5693 30.3295V41.3417Z" fill="black"/>
<path d="M46.731 35.8528C46.7297 36.6401 46.8854 37.4199 47.1893 38.1471C47.4931 38.8743 47.939 39.5346 48.5012 40.0899C49.0635 40.6451 49.7309 41.0843 50.465 41.3821C51.1991 41.68 51.9854 41.8305 52.7784 41.825C54.297 41.8414 55.7606 41.2611 56.85 40.2106C56.9089 40.1514 56.9433 40.0725 56.9465 39.9893C56.9497 39.9062 56.9213 39.8249 56.8671 39.7614L55.5612 38.3728C55.5025 38.3183 55.4259 38.2865 55.3456 38.2834C55.2652 38.2803 55.1864 38.306 55.1235 38.3558C54.4914 38.8731 53.6979 39.1563 52.8787 39.1569C50.9859 39.1569 49.5798 37.625 49.5798 35.7775C49.5798 33.93 50.9688 32.352 52.8615 32.352C53.6948 32.3513 54.4995 32.6535 55.1235 33.2017C55.1797 33.2563 55.2552 33.2868 55.3338 33.2868C55.4124 33.2868 55.4879 33.2563 55.5441 33.2017L56.85 31.8543C56.8826 31.8242 56.9083 31.7874 56.9253 31.7465C56.9424 31.7056 56.9504 31.6616 56.9488 31.6174C56.9471 31.5731 56.9359 31.5298 56.9159 31.4902C56.8959 31.4507 56.8676 31.4159 56.8328 31.3882C56.2942 30.876 55.6584 30.4753 54.9623 30.2094C54.2663 29.9435 53.5239 29.8177 52.7784 29.8393C51.9836 29.8377 51.1963 29.992 50.4617 30.2933C49.7271 30.5946 49.0597 31.037 48.4978 31.595C47.9359 32.1531 47.4905 32.8159 47.1873 33.5453C46.8841 34.2747 46.729 35.0564 46.731 35.8455" fill="black"/>
<path d="M42.6353 57.5932C42.6377 57.6761 42.672 57.755 42.7311 57.8137C42.7902 57.8723 42.8696 57.9064 42.9532 57.9088H44.9486C45.0329 57.9088 45.1138 57.8756 45.1734 57.8164C45.233 57.7572 45.2665 57.6769 45.2665 57.5932V53.2233H50.0594V57.5932C50.0594 57.6769 50.0929 57.7572 50.1525 57.8164C50.2122 57.8756 50.293 57.9088 50.3773 57.9088H52.3703C52.4539 57.9064 52.5333 57.8723 52.5924 57.8137C52.6515 57.755 52.6858 57.6761 52.6882 57.5932V46.581C52.6858 46.4981 52.6515 46.4192 52.5924 46.3605C52.5333 46.3019 52.4539 46.2678 52.3703 46.2654H50.3749C50.2906 46.2654 50.2097 46.2986 50.1501 46.3578C50.0905 46.417 50.057 46.4973 50.057 46.581V50.7737H45.264V46.581C45.264 46.4973 45.2305 46.417 45.1709 46.3578C45.1113 46.2986 45.0305 46.2654 44.9461 46.2654H42.9507C42.8674 46.2684 42.7883 46.3026 42.7293 46.3612C42.6703 46.4197 42.6358 46.4982 42.6328 46.581L42.6353 57.5932Z" fill="black"/>
<path d="M30.8389 52.1038C30.8376 52.8914 30.9934 53.6713 31.2974 54.3987C31.6014 55.1261 32.0475 55.7865 32.61 56.3418C33.1725 56.8971 33.8402 57.3362 34.5746 57.6339C35.309 57.9316 36.0955 58.0819 36.8888 58.0761C38.4074 58.0925 39.8709 57.5121 40.9603 56.4616C41.0192 56.4025 41.0537 56.3235 41.0568 56.2404C41.06 56.1572 41.0317 56.0759 40.9774 56.0125L39.6692 54.6384C39.611 54.5836 39.5348 54.5516 39.4547 54.5485C39.3746 54.5454 39.2961 54.5713 39.2339 54.6214C38.6015 55.1384 37.8081 55.4215 36.989 55.4226C35.0963 55.4226 33.6878 53.8907 33.6878 52.0432C33.6878 50.1956 35.0792 48.6176 36.9719 48.6176C37.8052 48.6169 38.6098 48.9191 39.2339 49.4673C39.2894 49.5223 39.3645 49.5532 39.443 49.5532C39.5214 49.5532 39.5966 49.5223 39.652 49.4673L40.9603 48.1199C40.9929 48.0898 41.0187 48.053 41.0357 48.0121C41.0527 47.9713 41.0607 47.9272 41.0591 47.883C41.0575 47.8388 41.0463 47.7954 41.0263 47.7559C41.0063 47.7163 40.9779 47.6815 40.9432 47.6538C40.4046 47.1417 39.7687 46.741 39.0727 46.475C38.3766 46.2091 37.6343 46.0833 36.8888 46.1049C36.0937 46.103 35.3062 46.257 34.5713 46.5582C33.8364 46.8594 33.1687 47.3017 32.6065 47.8598C32.0444 48.4179 31.5988 49.0808 31.2955 49.8104C30.9921 50.54 30.8369 51.3218 30.8389 52.1111" fill="black"/>
<path d="M39.1478 34.9883V32.3931H41.6274C41.9641 32.3956 42.2863 32.5294 42.5247 32.7655C42.763 33.0016 42.8983 33.3212 42.9015 33.6555C42.9013 33.9973 42.7691 34.3261 42.5321 34.5741C42.2951 34.822 41.9713 34.9703 41.6274 34.9883H39.1478ZM36.5166 41.3417C36.5166 41.3834 36.5249 41.4246 36.541 41.4631C36.5572 41.5015 36.5808 41.5364 36.6106 41.5657C36.6404 41.5951 36.6757 41.6183 36.7145 41.634C36.7534 41.6497 36.795 41.6576 36.8369 41.6573H38.8299C38.9135 41.6549 38.9929 41.6208 39.052 41.5622C39.1111 41.5035 39.1454 41.4246 39.1478 41.3417V37.1005H40.3045L42.5322 41.5092C42.5603 41.555 42.5998 41.5927 42.647 41.6187C42.6941 41.6446 42.7473 41.6579 42.8012 41.6573H45.029C45.0878 41.6616 45.1467 41.6495 45.199 41.6222C45.2513 41.595 45.2948 41.5537 45.3246 41.5031C45.3544 41.4526 45.3693 41.3947 45.3676 41.3361C45.3659 41.2775 45.3477 41.2206 45.3151 41.1718L43.0189 36.9451C44.4861 36.3624 45.4985 35.1316 45.4985 33.6021C45.492 32.6457 45.1043 31.7307 44.4201 31.0574C43.7359 30.384 42.8109 30.0071 41.8475 30.009H36.8369C36.7524 30.009 36.6713 30.0422 36.6113 30.1013C36.5513 30.1604 36.5172 30.2407 36.5166 30.3246V41.3417Z" fill="black"/>
<path d="M25.0796 37.2C25.097 38.4377 25.6065 39.6183 26.4969 40.4846C27.3874 41.3509 28.5867 41.8327 29.8334 41.8249C32.4818 41.8249 34.6264 39.7273 34.6264 37.2V30.3295C34.6233 30.2468 34.5889 30.1682 34.5299 30.1097C34.4709 30.0511 34.3918 30.0169 34.3085 30.0139H32.247C32.2053 30.0139 32.1639 30.0221 32.1254 30.0379C32.0868 30.0538 32.0517 30.077 32.0222 30.1064C31.9927 30.1357 31.9693 30.1705 31.9533 30.2087C31.9373 30.247 31.9291 30.2881 31.9291 30.3295V37.0665C31.9291 37.6138 31.7101 38.1387 31.3203 38.5257C30.9305 38.9127 30.4018 39.1301 29.8505 39.1301C29.2993 39.1301 28.7706 38.9127 28.3808 38.5257C27.991 38.1387 27.772 37.6138 27.772 37.0665V30.3295C27.7713 30.2456 27.7373 30.1653 27.6773 30.1062C27.6173 30.0471 27.5362 30.0139 27.4516 30.0139H25.3926C25.3088 30.0163 25.2291 30.0503 25.1696 30.1089C25.1101 30.1675 25.0753 30.2464 25.0723 30.3295L25.0796 37.2Z" fill="black"/>
<path d="M13.0435 41.3417C13.0459 41.4247 13.0802 41.5035 13.1393 41.5622C13.1984 41.6209 13.2778 41.6549 13.3614 41.6573H15.3543C15.4387 41.6573 15.5195 41.6241 15.5791 41.5649C15.6387 41.5057 15.6722 41.4254 15.6722 41.3417V36.9718H20.4652V41.3417C20.4652 41.4254 20.4987 41.5057 20.5583 41.5649C20.6179 41.6241 20.6988 41.6573 20.7831 41.6573H22.7785C22.862 41.6549 22.9415 41.6209 23.0006 41.5622C23.0597 41.5035 23.094 41.4247 23.0964 41.3417V30.3295C23.0934 30.2468 23.0589 30.1682 22.9999 30.1097C22.941 30.0511 22.8619 30.0169 22.7785 30.0139H20.7855C20.7012 30.0139 20.6204 30.0472 20.5607 30.1064C20.5011 30.1655 20.4676 30.2458 20.4676 30.3295V34.5222H15.6722V30.3295C15.6722 30.2458 15.6387 30.1655 15.5791 30.1064C15.5195 30.0472 15.4387 30.0139 15.3543 30.0139H13.3614C13.2778 30.0164 13.1984 30.0504 13.1393 30.1091C13.0802 30.1677 13.0459 30.2466 13.0435 30.3295V41.3417Z" fill="black"/>
<path d="M1.08109 35.8526C1.07978 36.6399 1.23554 37.4197 1.53938 38.1469C1.84323 38.8742 2.28913 39.5345 2.85137 40.0897C3.4136 40.645 4.08103 41.0842 4.81514 41.382C5.54925 41.6798 6.3355 41.8303 7.12852 41.8249C8.64787 41.8414 10.1122 41.2611 11.2025 40.2104C11.2606 40.1507 11.2942 40.0716 11.297 39.9886C11.2997 39.9057 11.2712 39.8246 11.2172 39.7613L9.91136 38.3726C9.85325 38.3178 9.77704 38.2858 9.69695 38.2827C9.61685 38.2796 9.53835 38.3055 9.47608 38.3556C8.84281 38.8726 8.04865 39.1557 7.22878 39.1568C5.33606 39.1568 3.92996 37.6249 3.92996 35.7774C3.92996 33.9299 5.31894 32.3518 7.21411 32.3518C8.04712 32.3524 8.85133 32.6545 9.47608 33.2015C9.53156 33.2565 9.60676 33.2874 9.68516 33.2874C9.76357 33.2874 9.83877 33.2565 9.89424 33.2015L11.2025 31.8541C11.2344 31.8236 11.2595 31.7867 11.2761 31.7459C11.2927 31.7051 11.3004 31.6613 11.2988 31.6173C11.2972 31.5733 11.2863 31.5301 11.2667 31.4906C11.2472 31.4511 11.2195 31.4162 11.1854 31.388C10.6465 30.8756 10.0103 30.4747 9.31376 30.2088C8.61726 29.9429 7.87442 29.8172 7.12852 29.8391C6.33308 29.8375 5.54517 29.992 4.8101 30.2938C4.07502 30.5955 3.40728 31.0386 2.84528 31.5974C2.28327 32.1563 1.83809 32.8199 1.53532 33.5502C1.23256 34.2805 1.07819 35.0629 1.08109 35.8526Z" fill="black"/>
<path d="M22.478 57.5907C22.4805 57.6736 22.5148 57.7525 22.5739 57.8111C22.633 57.8698 22.7124 57.9038 22.7959 57.9063H24.2632C24.3463 57.9032 24.4251 57.8689 24.4837 57.8103C24.5422 57.7517 24.5762 57.6732 24.5786 57.5907V52.6964H26.2513C26.2929 52.6964 26.3341 52.6882 26.3725 52.6723C26.411 52.6564 26.4459 52.6331 26.4752 52.6038C26.5045 52.5744 26.5277 52.5396 26.5434 52.5014C26.5591 52.4631 26.567 52.4221 26.5667 52.3808V51.2689C26.5684 51.2272 26.5614 51.1856 26.5462 51.1467C26.531 51.1078 26.5079 51.0724 26.4783 51.0428C26.4487 51.0132 26.4132 50.9899 26.3742 50.9745C26.3351 50.9591 26.2933 50.9519 26.2513 50.9533H24.5786V49.4699C24.5786 48.4988 24.9821 47.9599 25.6986 47.9599C26.0477 47.9869 26.3842 48.1014 26.6767 48.2925C26.7084 48.3136 26.744 48.3283 26.7814 48.3356C26.8189 48.343 26.8574 48.3428 26.8948 48.3351C26.9322 48.3274 26.9676 48.3124 26.999 48.2909C27.0305 48.2694 27.0572 48.2418 27.0778 48.2099L27.6476 47.1466C27.6783 47.0842 27.6885 47.0138 27.6766 46.9454C27.6648 46.877 27.6315 46.814 27.5815 46.7654C27.0077 46.3499 26.3134 46.1309 25.6032 46.1415C23.8328 46.1415 22.478 47.3019 22.478 49.4918V50.9751H20.9448C20.9027 50.9738 20.8607 50.981 20.8215 50.9964C20.7823 51.0118 20.7468 51.035 20.717 51.0645C20.6872 51.0941 20.6638 51.1294 20.6483 51.1683C20.6328 51.2073 20.6255 51.2489 20.6269 51.2907V52.4026C20.6269 52.4863 20.6604 52.5666 20.72 52.6258C20.7796 52.685 20.8605 52.7182 20.9448 52.7182H22.478V57.5907ZM15.0661 54.573C15.054 54.3565 15.0866 54.1398 15.1618 53.9361C15.2369 53.7325 15.3532 53.5462 15.5033 53.3887C15.6534 53.2312 15.8344 53.1057 16.035 53.02C16.2357 52.9342 16.4518 52.89 16.6703 52.89C16.8887 52.89 17.1049 52.9342 17.3055 53.02C17.5061 53.1057 17.6871 53.2312 17.8372 53.3887C17.9874 53.5462 18.1036 53.7325 18.1787 53.9361C18.2539 54.1398 18.2865 54.3565 18.2744 54.573C18.2917 54.7926 18.2631 55.0134 18.1903 55.2215C18.1175 55.4295 18.0022 55.6204 17.8515 55.7821C17.7009 55.9438 17.5182 56.0729 17.3149 56.1611C17.1116 56.2494 16.8921 56.2949 16.6703 56.2949C16.4484 56.2949 16.2289 56.2494 16.0256 56.1611C15.8223 56.0729 15.6396 55.9438 15.489 55.7821C15.3383 55.6204 15.223 55.4295 15.1502 55.2215C15.0774 55.0134 15.0488 54.7926 15.0661 54.573ZM13.1611 54.573C13.1746 55.2422 13.3868 55.8925 13.7711 56.4424C14.1554 56.9923 14.6946 57.4174 15.3213 57.6642C15.9479 57.9111 16.634 57.9688 17.2935 57.8301C17.9531 57.6913 18.5567 57.3624 19.0286 56.8845C19.5006 56.4065 19.8199 55.8009 19.9466 55.1435C20.0732 54.4861 20.0015 53.8062 19.7405 53.1891C19.4795 52.572 19.0408 52.0452 18.4794 51.6746C17.918 51.3041 17.2588 51.1063 16.5847 51.1062C15.6709 51.1252 14.8009 51.4987 14.161 52.1467C13.5211 52.7946 13.1622 53.6656 13.1611 54.573Z" fill="black"/>
<path d="M106.039 25.9694C114.556 26.7196 120.557 26.8992 120.618 26.9016C120.679 26.9031 120.739 26.8859 120.789 26.8525C120.839 26.819 120.878 26.7709 120.9 26.7147C120.913 26.6815 120.92 26.646 120.919 26.6103C120.92 26.5678 120.911 26.5257 120.893 26.4868C120.876 26.4478 120.851 26.413 120.819 26.3845C116.823 23.0464 111.862 20.9221 106.064 20.0554C106.182 22.0252 106.174 24.0006 106.039 25.9694Z" fill="#6B9E9B"/>
<path d="M104.714 25.9695C104.1 37.7124 100.261 50.4386 93.267 63.7985C93.237 63.8572 93.1878 63.9041 93.1275 63.9315C93.0673 63.9589 92.9994 63.9653 92.935 63.9495C92.8706 63.9337 92.8135 63.8968 92.773 63.8447C92.7325 63.7925 92.7109 63.7284 92.7119 63.6625C92.7119 63.6455 92.7119 63.6285 92.7119 63.6115C92.7486 63.41 96.402 43.437 98.3363 25.3431C92.3867 24.6949 86.7427 23.9059 81.5585 22.9882C81.494 22.9781 81.4349 22.9467 81.3905 22.8992C81.3462 22.8516 81.3192 22.7906 81.314 22.726V22.7017C81.3137 22.6421 81.3318 22.5839 81.3659 22.5348C81.4 22.4858 81.4485 22.4483 81.5047 22.4274C81.5854 22.3983 89.4938 19.5433 98.8889 19.6088C99.3144 14.6975 99.532 10.5024 99.532 7.07197C99.5541 5.16876 99.4709 3.26578 99.2826 1.37165V1.33766C99.2821 1.27834 99.2999 1.22028 99.3336 1.17126C99.3672 1.12224 99.4151 1.08458 99.4709 1.06332C99.5334 1.04054 99.6018 1.03916 99.6651 1.05939C99.7285 1.07963 99.7832 1.12032 99.8206 1.175C99.8646 1.24055 104.188 7.78087 104.748 20.0555C104.855 22.0257 104.847 24.0003 104.724 25.9695" fill="#6B9E9B"/>
<path d="M107.093 13.4543C106.499 15.7194 107.032 17.8243 108.284 18.1447C109.536 18.4652 111.035 16.892 111.624 14.6245C112.214 12.357 111.688 10.2546 110.436 9.93411C109.184 9.61365 107.687 11.182 107.093 13.4543Z" fill="#6B9E9B"/>
</svg>
