<svg xmlns="http://www.w3.org/2000/svg" xmlns:xlink="http://www.w3.org/1999/xlink" viewBox="0 0 42.08145 10.47386"><defs><style>.a{fill:#552850;}.b{fill:#f26b24;}.c{fill:url(#a);}.d{fill:#fcb833;}.e{fill:url(#b);}</style><linearGradient id="a" x1="1509.67924" y1="142.38967" x2="1515.66645" y2="142.38967" gradientTransform="matrix(1.05, -0.6, -0.35, -0.61, -1532.45215, 998.18877)" gradientUnits="userSpaceOnUse"><stop offset="0" stop-color="#ffd446"/><stop offset="1" stop-color="#f7991c"/></linearGradient><linearGradient id="b" x1="0.78844" y1="4.5482" x2="9.62594" y2="9.65054" gradientUnits="userSpaceOnUse"><stop offset="0" stop-color="#c82c22"/><stop offset="0.07323" stop-color="#cd3122"/><stop offset="0.16248" stop-color="#dc3f22"/><stop offset="0.22891" stop-color="#ec4e22"/><stop offset="0.44801" stop-color="#ea4b23"/><stop offset="0.59558" stop-color="#e44226"/><stop offset="0.61" stop-color="#e34127"/><stop offset="0.80483" stop-color="#ac1d1a"/><stop offset="1" stop-color="#9b1b20"/></linearGradient></defs><title>ARRCS_LOGO</title><path class="a" d="M29.34132,5.23707l-.03324-.25335H29.119l-.03915.25335H28.8915l.21568-1.29775h.22823l.21568,1.29775Zm-.12113-.95355-.07386.52958h.14033Z" transform="translate(-0.09228)"/><path class="a" d="M30.009,5.26a.28732.28732,0,0,1-.30532-.26812q-.00089-.01365-.00047-.02733V3.93932h.21125V4.97338a.09971.09971,0,1,0,.19869,0V3.93932h.2009V4.96821A.28363.28363,0,0,1,30.009,5.26Z" transform="translate(-0.09228)"/><path class="a" d="M30.80083,5.26a.27918.27918,0,0,1-.30357-.29545V4.84708h.18834v.11079c0,.082.03693.12926.10932.12926a.103.103,0,0,0,.10931-.11744.44864.44864,0,0,0-.16618-.3117.672.672,0,0,1-.23267-.424.29505.29505,0,0,1,.30135-.31761.27628.27628,0,0,1,.28659.29545v.1167h-.18687V4.21409c0-.07387-.03324-.1204-.09972-.1204a.096.096,0,0,0-.10119.10488c0,.127.05688.18909.17727.31761a.64341.64341,0,0,1,.22159.4247.29546.29546,0,0,1-.30357.31909Z" transform="translate(-0.09228)"/><path class="a" d="M31.63546,4.12841V5.23633h-.20607V4.12841h-.20091V3.93932h.60641v.18909Z" transform="translate(-0.09228)"/><path class="a" d="M32.49964,5.24372c-.07977,0-.11153-.0783-.11153-.17949V4.785c0-.05245-.02659-.09529-.08346-.09529H32.2042v.54732h-.20681V3.93932H32.329a.23416.23416,0,0,1,.25483.25556v.22971a.1795.1795,0,0,1-.12261.18318.1817.1817,0,0,1,.1263.17874v.26517a.206.206,0,0,0,.03915.13221v.05983Zm-.11891-1.04219c0-.05466-.02142-.0842-.07017-.0842H32.2042v.41141h.099c.051,0,.07829-.02955.07829-.09159Z" transform="translate(-0.09228)"/><path class="a" d="M33.188,5.23707l-.03323-.25335h-.18909l-.03841.25335h-.18908l.21641-1.29775h.22749l.21642,1.29775Zm-.12113-.95355L32.993,4.8131h.1396Z" transform="translate(-0.09228)"/><path class="a" d="M33.55586,5.23707V3.93932h.20681V5.04724h.29545v.18761Z" transform="translate(-0.09228)"/><path class="a" d="M34.2317,5.23707V3.93932h.20681V5.23707Z" transform="translate(-0.09228)"/><path class="a" d="M35.04787,5.23707l-.03324-.25335h-.18835l-.03693.25335h-.18908l.21641-1.29775h.22749l.21642,1.29775Zm-.1204-.95355-.07386.52958H34.994Z" transform="translate(-0.09228)"/><path class="a" d="M35.89137,5.23707l-.21789-.59089-.07387-.19869v.78958h-.18687V3.93932h.18318l.20238.59089.06648.20017V3.93932h.18465V5.23707Z" transform="translate(-0.09228)"/><path class="b" d="M29.458,6.97725c-.07977,0-.11079-.0783-.11079-.17949V6.51931a.08421.08421,0,0,0-.074-.09326L29.263,6.4255h-.10119v.54732h-.20755V5.67433h.3309a.23412.23412,0,0,1,.26.25482v.22971a.17949.17949,0,0,1-.12261.18318.18316.18316,0,0,1,.12261.17948v.26516a.20752.20752,0,0,0,.03915.13222v.05835Zm-.11891-1.04219c0-.05466-.02142-.08346-.07017-.08346h-.1071v.41067h.09971c.05023,0,.07386-.02881.07386-.09159Z" transform="translate(-0.09228)"/><path class="b" d="M29.7579,6.97134v-1.297h.517v.18318h-.311v.35823h.21567v.17135H29.964v.39516h.311v.18909Z" transform="translate(-0.09228)"/><path class="b" d="M30.95815,6.97134l-.03176-.0879A.2068.2068,0,0,1,30.727,6.995a.27144.27144,0,0,1-.27845-.29544V5.94909a.29544.29544,0,0,1,.295-.29589q.00835,0,.01669.00045a.28214.28214,0,0,1,.29545.2682c.00044.00907.00044.01817,0,.02724v.17284h-.195V5.93728a.09457.09457,0,0,0-.1034-.09972.09676.09676,0,0,0-.10328.08977l-.00013.01142v.77186a.09824.09824,0,0,0,.09341.10284.09948.09948,0,0,0,.01221-.00017.09679.09679,0,0,0,.10489-.10267V6.47868h-.10119V6.32283h.30209v.64851Z" transform="translate(-0.09228)"/><path class="b" d="M31.27132,6.97134v-1.297h.20682v1.297Z" transform="translate(-0.09228)"/><path class="b" d="M31.9996,6.995a.29538.29538,0,0,1-.31243-.308V5.9587a.31022.31022,0,0,1,.6197,0V6.687a.29544.29544,0,0,1-.28237.308Q32.012,6.99548,31.9996,6.995Zm.10119-1.05178a.10119.10119,0,1,0-.20238-.00054v.75983a.10119.10119,0,0,0,.20238.00054V5.94319Z" transform="translate(-0.09228)"/><path class="b" d="M32.99525,6.97134l-.21789-.59089-.07386-.19869v.78958h-.18687v-1.297h.18318l.20238.59089.06647.20091v-.7918h.18466v1.297Z" transform="translate(-0.09228)"/><path class="b" d="M33.76268,6.97134,33.72944,6.721h-.18909l-.0384.25334h-.18983l.21641-1.297h.22676l.22159,1.29406Zm-.12114-.9602-.07386.53032H33.708Z" transform="translate(-0.09228)"/><path class="b" d="M34.13051,6.97134v-1.297h.20681V6.78225h.29544v.18687Z" transform="translate(-0.09228)"/><path class="b" d="M35.80938,6.995a.257.257,0,0,1-.17727-.09158.32867.32867,0,0,1-.2297.09158.29686.29686,0,0,1-.28437-.32351.51038.51038,0,0,1,.21272-.4055.82434.82434,0,0,1-.06278-.28954c0-.2009.10562-.32573.26738-.32573s.22749.11892.22749.277a.486.486,0,0,1-.226.38555,2.20978,2.20978,0,0,0,.113.30948.73854.73854,0,0,0,.07829-.31539h.15142a.94023.94023,0,0,1-.13812.46164.1071.1071,0,0,0,.082.05466c.03324,0,.05023-.02585.05023-.06648v-.082h.1034v.10932C35.97705,6.92259,35.915,6.995,35.80938,6.995Zm-.41879-.55174a.2903.2903,0,0,0-.08421.20386c0,.1071.04654.16766.13.16766a.116.116,0,0,0,.0879-.03914,1.54261,1.54261,0,0,1-.13369-.33238Zm.14033-.61527c-.05244,0-.08346.051-.08346.13664a.7843.7843,0,0,0,.03471.20239.32794.32794,0,0,0,.11966-.22971c0-.068-.02216-.10932-.07386-.10932Z" transform="translate(-0.09228)"/><path class="b" d="M36.9823,6.97725c-.07977,0-.11079-.0783-.11079-.17949V6.51931a.0842.0842,0,0,0-.074-.09326l-.01015-.00055h-.10119v.54732H36.48V5.67433h.3309a.23414.23414,0,0,1,.25483.25482v.22971a.17876.17876,0,0,1-.12261.18318.18317.18317,0,0,1,.127.17948v.26516a.20755.20755,0,0,0,.03841.13222v.05835Zm-.11891-1.04219c0-.05466-.02142-.08346-.07386-.08346h-.1071v.41067h.10119c.05022,0,.07755-.02881.07755-.09159Z" transform="translate(-0.09228)"/><path class="b" d="M37.28218,6.97134v-1.297h.517v.18318h-.311v.35823h.21568v.17135h-.21568v.39516h.311v.18909Z" transform="translate(-0.09228)"/><path class="b" d="M38.64345,6.97134v-.9602l-.04062.26664-.1204.69356h-.15584l-.11523-.69356-.03915-.27255v.9602H37.989V5.67433h.27846l.113.65589.03545.25187.03693-.25187.11079-.65589h.27477v1.297Z" transform="translate(-0.09228)"/><path class="b" d="M39.35843,6.995a.29545.29545,0,0,1-.30942-.28078q-.00064-.01361-.00006-.02722V5.9587a.30948.30948,0,0,1,.619,0V6.687a.29544.29544,0,0,1-.28226.30807Q39.372,6.99564,39.35843,6.995Zm.10119-1.05178a.10119.10119,0,1,0-.20238-.00054v.75983a.10119.10119,0,1,0,.20238.00054V5.94319Z" transform="translate(-0.09228)"/><path class="b" d="M40.22335,5.86341V6.97134h-.20607V5.86341h-.2009V5.67433h.60345v.18908Z" transform="translate(-0.09228)"/><path class="b" d="M40.58749,6.97134v-1.297h.517v.18318H40.7943v.35823H41.01v.17135H40.7943v.39516H41.106v.18909Z" transform="translate(-0.09228)"/><path class="a" d="M29.25564,8.72925a.29547.29547,0,0,1-.31391-.30949V7.69518a.29543.29543,0,0,1,.31391-.30948.27477.27477,0,0,1,.29545.29545V7.868h-.18318V7.68115a.1071.1071,0,0,0-.2142,0v.76a.1071.1071,0,0,0,.2142,0V8.2425h.18318v.18908a.27477.27477,0,0,1-.29545.29767Z" transform="translate(-0.09228)"/><path class="a" d="M30.04227,8.72925a.29546.29546,0,0,1-.30942-.28079q-.00066-.01361-.00006-.02722V7.693a.30948.30948,0,0,1,.619,0v.72679a.29546.29546,0,0,1-.28071.30949Q30.05666,8.72994,30.04227,8.72925Zm.10119-1.0481a.10119.10119,0,1,0-.20238-.00054v.76057a.10119.10119,0,1,0,.20238.00054V7.68115Z" transform="translate(-0.09228)"/><path class="a" d="M31.21667,8.70561V7.74172l-.04063.27254-.12113.69135h-.15585l-.11448-.69135-.03915-.27254v.96389h-.18318V7.4086h.27846l.113.65663.03545.25113.03694-.25113.11079-.65663h.27476v1.297Z" transform="translate(-0.09228)"/><path class="a" d="M32.28766,8.70561V7.74172l-.04062.27254-.1167.69135h-.15585l-.11523-.69135-.03914-.27254v.96389h-.18244V7.4086h.27846l.113.65663.03471.25113.03693-.25113.11079-.65663h.27477v1.297Z" transform="translate(-0.09228)"/><path class="a" d="M33.00707,8.72925a.28662.28662,0,0,1-.30579-.29545V7.4086h.20829V8.44266a.09085.09085,0,0,0,.0975.10341.09233.09233,0,0,0,.10119-.10341V7.4086h.20386V8.43749a.28371.28371,0,0,1-.30505.29176Z" transform="translate(-0.09228)"/><path class="a" d="M34.002,8.70561l-.21789-.59089L33.71023,7.916v.78662h-.18687V7.4086h.18318l.20238.59089.06648.20017V7.4086h.18465v1.297Z" transform="translate(-0.09228)"/><path class="a" d="M34.38385,8.70561V7.4086h.20681v1.297Z" transform="translate(-0.09228)"/><path class="a" d="M35.16531,7.59769V8.70561H34.9585V7.59769h-.20017V7.4086h.60345v.18909Z" transform="translate(-0.09228)"/><path class="a" d="M35.9054,8.18415v.52146h-.20681V8.18415l-.2334-.77555h.2105l.13812.54362.13443-.54362h.2046Z" transform="translate(-0.09228)"/><path class="a" d="M36.90253,8.72925A.27993.27993,0,0,1,36.599,8.4338V8.31636h.18835v.11079c0,.082.03693.12852.10931.12852a.10194.10194,0,0,0,.10932-.1167.44866.44866,0,0,0-.16619-.3117.66991.66991,0,0,1-.23119-.4247.29408.29408,0,0,1,.30136-.31687.27619.27619,0,0,1,.28658.29545v.1167h-.18687v-.1167c0-.07386-.03324-.1204-.09971-.1204a.096.096,0,0,0-.10119.10489c0,.1263.05688.18908.17727.3176a.64341.64341,0,0,1,.22159.42471.29549.29549,0,0,1-.30506.3213Z" transform="translate(-0.09228)"/><path class="a" d="M37.39741,8.70561V7.4086h.517v.18318h-.311V7.95h.2142v.17431h-.2142v.3959h.31169v.18834Z" transform="translate(-0.09228)"/><path class="a" d="M38.60652,8.71521c-.07977,0-.11079-.07386-.11079-.17874V8.258c0-.05318-.02733-.096-.08347-.096h-.10193V8.7093h-.20607V7.4086h.3309a.23488.23488,0,0,1,.25556.25556v.22971a.18022.18022,0,0,1-.12261.18318.18169.18169,0,0,1,.12631.17874v.26516a.2031.2031,0,0,0,.03915.13222v.062ZM38.4876,7.67376c0-.05465-.02141-.0842-.06943-.0842h-.10784V8.001h.09824c.051,0,.07756-.02955.07756-.09159Z" transform="translate(-0.09228)"/><path class="a" d="M39.27866,8.70561h-.2009l-.2334-1.297h.212l.127.90776.13443-.90776h.19869Z" transform="translate(-0.09228)"/><path class="a" d="M39.67382,8.70561V7.4086h.20681v1.297Z" transform="translate(-0.09228)"/><path class="a" d="M40.40283,8.72925a.29551.29551,0,0,1-.31317-.30949V7.69518a.29548.29548,0,0,1,.31317-.30948.274.274,0,0,1,.29545.29545V7.868h-.18244V7.68115a.1071.1071,0,0,0-.2142,0v.76a.1071.1071,0,1,0,.2142,0V8.2425h.18244v.18908a.27477.27477,0,0,1-.29545.29767Z" transform="translate(-0.09228)"/><path class="a" d="M40.89328,8.70561V7.4086h.517v.18318h-.3117V7.95H41.315v.17431h-.21642v.3959h.3117v.18834Z" transform="translate(-0.09228)"/><path class="a" d="M41.86751,8.72925a.27992.27992,0,0,1-.30431-.29545V8.31636h.18909v.11079c0,.082.03693.12852.10931.12852a.1019.1019,0,0,0,.10931-.1167.44864.44864,0,0,0-.16618-.3117.66991.66991,0,0,1-.23119-.4247.29408.29408,0,0,1,.30136-.31687.27628.27628,0,0,1,.28658.29545v.1167h-.18687v-.1167c0-.07386-.03324-.1204-.09971-.1204a.096.096,0,0,0-.10119.10489c0,.1263.05687.18908.17727.3176a.64344.64344,0,0,1,.22158.42471.29549.29549,0,0,1-.305.3213Z" transform="translate(-0.09228)"/><path class="a" d="M15.55948,8.71521h-.98309l-.13-1.02077H13.41676l-.12113,1.02077h-.9181l.9277-6.49982h1.31991ZM13.52755,6.814h.80731L13.936,3.5641Z" transform="translate(-0.09228)"/><path class="a" d="M24.6452,6.20392V7.5674A1.06386,1.06386,0,0,1,23.439,8.77356h-.49192A1.06357,1.06357,0,0,1,21.741,7.5674V3.37206A1.06387,1.06387,0,0,1,22.94712,2.1659h.48232a1.05114,1.05114,0,0,1,1.1973,1.1973V4.545H23.6525V3.4186c0-.26-.12113-.38039-.36931-.38039h-.16693a.33156.33156,0,0,0-.38038.38039V7.51939a.33184.33184,0,0,0,.38038.38039h.1854c.25113,0,.36931-.12113.36931-.38039V6.20392Z" transform="translate(-0.09228)"/><path class="a" d="M27.98891,6.50823v1.057a1.06357,1.06357,0,0,1-1.20615,1.20616H26.347a1.05383,1.05383,0,0,1-1.19656-1.19656V6.20392h.96464V7.54007c0,.25039.12039.36931.38038.36931h.13c.25926,0,.38039-.12039.38039-.36931v-.893a.57167.57167,0,0,0-.27846-.52885l-1.0023-.73271a1.19637,1.19637,0,0,1-.57465-1.1227V3.37206A1.06387,1.06387,0,0,1,26.35657,2.1659h.41732a1.058,1.058,0,0,1,1.19656,1.1973V4.545h-.97424V3.39718a.32373.32373,0,0,0-.3693-.36931h-.12114a.32373.32373,0,0,0-.36931.36931V4.121a.56284.56284,0,0,0,.27551.5318l1.00156.73271A1.18578,1.18578,0,0,1,27.98891,6.50823Z" transform="translate(-0.09228)"/><path class="b" d="M18.84559,6.50823v2.207h-.9927V6.52669c0-.28806-.13-.418-.41732-.418H16.9924V8.71521h-.99492V2.222h1.63308A1.06335,1.06335,0,0,1,18.836,3.4282V4.65282a.92848.92848,0,0,1-.56578,1.00157C18.67866,5.76592,18.84559,6.01631,18.84559,6.50823ZM17.4725,3.10173h-.48379v2.142h.44317c.27846,0,.40771-.12926.40771-.39886V3.471A.32134.32134,0,0,0,17.4725,3.10173Z" transform="translate(-0.09228)"/><path class="b" d="M20.6456,5.65439a.92832.92832,0,0,0,.56652-1.00157V3.4282A1.06387,1.06387,0,0,0,20.006,2.222h-.64038v.87969h.48231a.32373.32373,0,0,1,.36931.36931v1.376c0,.26959-.13.39885-.40846.39885h-.44316v.86271h.44316c.28733,0,.41732.13.41732.41805V8.71521H21.221v-2.207C21.221,6.01631,21.0511,5.76592,20.6456,5.65439Z" transform="translate(-0.09228)"/><path class="c" d="M9.34182,5.72382c-2.19.8206-2.89095,1.625-4.4088,1.44768A2.9392,2.9392,0,0,1,2.44979,3.38757c.517,1.66411,1.14559,3.86518,4.8047,2.905A20.647,20.647,0,0,1,9.34182,5.72382Zm1.44251-.47346C9.946,3.64757,7.87936,4.48,7.28108,4.65356a4.56034,4.56034,0,0,1-4.04245-.0842C4.82149,7.71586,8.13418,4.88253,10.78433,5.25036Zm-1.08355-1.201c.06279.02069-1.29184-1.68847-4.77072-.37964-.93656.35232-1.492.29544-1.59762-.30653s.06573-1.53115.64407-1.24235,1.22758.48527,1.20025.37743a1.65362,1.65362,0,0,1-.6426-1.05474C4.23724.45527,3.51044.74111,2.9875,1.36968a1.99125,1.99125,0,0,0-.18539,2.13016c.277.50448,1.30883,1.86353,3.80166.97128A5.79429,5.79429,0,0,1,9.70078,4.04937ZM7.53442,1.84608a1.39684,1.39684,0,0,0-.88634-1.297,2.29666,2.29666,0,0,1-.9602,2.59033S7.53442,2.89566,7.53442,1.84608ZM6.94353,2.96952c-.18465.08642,1.25122-.54067.88634-1.38048.2659.2046.66475.43874.5968.90038s-1.48314.4764-1.48314.4764Z" transform="translate(-0.09228)"/><path class="d" d="M6.61115.14727C6.58087.165,6.58309.1842,6.58973.20857s.01256.04579.04284.02881.06057-.051.04358-.08125S6.64217.13249,6.61115.14727Z" transform="translate(-0.09228)"/><path class="d" d="M6.558.08965c-.01846,0-.02216.01034-.02511.0229S6.527.13693,6.54542.13619,6.586.12806,6.5853.1096,6.57422.08892,6.558.08965Z" transform="translate(-0.09228)"/><path class="d" d="M6.48116.0121a.03988.03988,0,0,0-.02659.04875c0,.01994.00517.03693.034.02363s.05983-.03988.048-.06426S6.51-.00046,6.48116.0121Z" transform="translate(-0.09228)"/><path class="d" d="M6.41837.00324A.01329.01329,0,0,0,6.409.01956L6.40951.021c0,.00739,0,.0133.01182.00813s.02142-.014.017-.0229S6.4265-.00046,6.41837.00324Z" transform="translate(-0.09228)"/><path class="d" d="M6.32531.17607a.17506.17506,0,0,0-.08141.2338l.0009.00182c.07386.15437.11448,0,.20164-.03989s.18687.03177.11523-.11522a.2955.2955,0,0,0-.09824-.1263C6.41837.11033,6.37332.15244,6.32531.17607Z" transform="translate(-0.09228)"/><path class="e" d="M8.22946,10.47386a.829.829,0,0,1-.05318-1.04515.84173.84173,0,0,0,.64186.35085A5.0348,5.0348,0,0,0,8.095,9.03429a4.14368,4.14368,0,0,0-2.57481-.86787A4.02,4.02,0,0,0,2.13,9.9391c-3.24991-2.12057-2.12648-5.3498,0-6.60618C1.10846,6.38562,3.97651,7.9404,6.01878,7.46917,7.91333,7.03043,9.40386,5.87376,10.901,5.77035A4.63047,4.63047,0,0,1,8.97546,9.92211C8.96143,9.92876,8.50349,10.28994,8.22946,10.47386Z" transform="translate(-0.09228)"/></svg>