<svg width="166" height="57" viewBox="0 0 166 57" fill="none" xmlns="http://www.w3.org/2000/svg">
<path d="M128.964 43.7521L129.207 43.2751L127.459 42.308L127.217 42.785L127.839 43.1313L125.96 46.7839L126.49 47.0714L128.369 43.4188L128.964 43.7455V43.7521ZM129.953 46.3265L130.149 45.8234L129.311 45.4705L129.842 44.1049L130.778 44.497L130.974 43.9938L129.482 43.3666L127.786 47.6986L129.279 48.3259L129.475 47.8228L128.539 47.4307L129.115 45.9606L129.953 46.3134V46.3265ZM132.126 45.7254C132.008 46.1827 131.786 46.4245 131.354 46.2742L131.74 44.7845L131.832 44.8106C132.277 44.9217 132.231 45.2941 132.12 45.7254M131.982 44.3075L131.288 44.1114L130.117 48.6265L130.693 48.7898L131.269 46.5813H131.282L131.498 49.012L132.1 49.1819L131.864 46.7577C132.368 46.8035 132.656 46.1893 132.768 45.7646C133.062 44.6342 132.408 44.4251 131.982 44.3075M134.836 46.5813L134.725 48.4566L134.712 48.4697L134.149 44.7975L133.579 44.7126L132.951 49.3452L133.547 49.4302L133.776 47.7313L133.9 46.1631V45.856L133.92 45.843L134.483 49.5609L135.033 49.6393L135.661 45.0066L135.065 44.9217L134.843 46.5748L134.836 46.5813ZM118.975 28.4297C118.622 27.2862 117.797 26.9922 117.797 26.9922C118.72 28.8152 118.059 30.0436 118.059 30.0436C118.059 30.0436 119.041 30.1612 119.649 29.6385C120.134 28.1161 119.028 26.8354 119.028 26.8354C119.172 27.5345 118.982 28.4297 118.982 28.4297M126.785 41.8507L125.862 43.2163L124.939 44.8367H124.919L126.025 41.3018L125.554 40.962L122.962 44.791L123.453 45.1504L124.402 43.7455L125.2 42.4061L125.338 42.1382H125.358L124.225 45.7123L124.683 46.0455L127.276 42.2166L126.785 41.8637V41.8507ZM124.664 40.1387L121.639 43.6149L122.085 44.033L125.109 40.5569L124.664 40.1387ZM156.255 27.1164C156.235 27.2209 156.779 27.345 157.466 27.7828C158.134 28.2075 158.932 28.9328 159.829 29.7365C159.908 29.7953 159.816 29.9195 159.796 29.8999C157.427 27.9984 155.103 27.7175 155.129 28.0311C155.142 28.1553 155.666 28.1618 156.327 28.4166C157.289 28.7891 158.605 29.4882 159.58 30.22C159.646 30.2658 159.574 30.3376 159.528 30.3311C156.792 29.3314 154.304 28.7564 154.337 29.1027C154.35 29.2465 155.129 29.2661 156.078 29.5405C157.401 29.926 159.129 30.6121 160.274 31.0564C160.307 31.0433 160.464 31.1021 160.798 30.8081C161.066 30.5533 161.027 30.4226 161.027 30.4226C158.448 27.5215 156.327 26.7831 156.262 27.1229M136.957 51.5407H136.839V51.1356C136.879 51.1225 136.938 51.116 136.99 51.116C137.186 51.116 137.239 51.1944 137.245 51.3185C137.245 51.4753 137.167 51.5276 136.957 51.5341M137.278 51.704C137.415 51.6452 137.52 51.5145 137.52 51.3185C137.52 51.0441 137.317 50.8611 136.983 50.8611C136.846 50.8611 136.708 50.8873 136.584 50.9461L136.564 50.9591V52.4032H136.839V51.789H136.918C137.01 51.789 137.049 51.8216 137.088 51.9131L137.317 52.4032H137.625L137.363 51.8478C137.337 51.7955 137.311 51.7498 137.278 51.7106M140.342 44.7191L141.206 49.306L141.795 49.1884L140.931 44.6015L140.342 44.7191ZM147.647 42.6413L148.734 43.935L149.192 44.4316L148.59 44.8367L147.64 42.6413H147.647V42.6413ZM146.973 42.0075L148.609 46.4833L149.1 46.1501L148.76 45.2876L149.513 44.7845L150.134 45.4575L150.638 45.1177L147.365 41.7396L146.966 42.0075H146.973ZM116.429 23.3462C116.311 25.7965 118.288 24.9797 118.288 24.9797C117.031 24.5485 116.429 23.3462 116.429 23.3462ZM143.772 48.1038C143.32 48.254 143.012 47.4896 142.718 46.5486C142.423 45.6077 142.24 44.7975 142.692 44.6472C143.143 44.497 143.451 45.2614 143.745 46.2023C144.04 47.1432 144.223 47.9535 143.772 48.1038ZM142.515 44.0918C141.409 44.4643 141.86 45.9475 142.115 46.7512C142.364 47.5549 142.842 49.0316 143.948 48.6592C145.055 48.2867 144.603 46.8035 144.348 45.9998C144.099 45.1961 143.621 43.7194 142.515 44.0918ZM137.01 52.7037C136.46 52.7037 136.015 52.2463 136.015 51.6779C136.015 51.1094 136.46 50.652 137.01 50.652C137.559 50.652 137.998 51.1094 138.005 51.6779C138.005 52.2463 137.559 52.7037 137.01 52.7037ZM137.01 50.3711C136.316 50.3711 135.753 50.9526 135.753 51.6714C135.753 52.3901 136.316 52.9716 137.01 52.9716C137.703 52.9716 138.266 52.3901 138.266 51.6714C138.266 50.9526 137.703 50.3711 137.01 50.3711ZM139.903 44.7845L137.933 45.0327L137.998 45.5685L138.698 45.4771L139.183 49.5805L139.779 49.502L139.294 45.3987L139.968 45.3137L139.903 44.7779V44.7845ZM137.396 48.2867L136.676 48.2998L136.996 45.9148H137.01L137.265 47.6072L137.396 48.2802V48.2867ZM136.761 45.0197L135.857 49.7111L136.447 49.6981L136.597 48.7833L137.494 48.7702L137.677 49.6785L138.279 49.6654L137.232 45.0066H136.761V45.0197ZM151.404 43.7651L148.832 40.5961L148.374 40.9947L151.28 44.5754L152.511 43.5038L152.177 43.0921L151.404 43.7586V43.7651ZM113.791 30.3507C113.791 30.3507 113.398 30.6774 113.418 30.8277C113.463 31.1152 113.778 30.9257 113.863 30.8408C115.231 29.3771 117.725 28.4558 117.699 28.3056C117.672 28.1553 115.538 28.7956 113.791 30.3507M144.636 34.5979H131.603V32.8075H132.185C132.827 32.8075 133.331 32.2652 133.331 31.6053L133.318 20.0204C133.318 19.3604 132.8 18.8246 132.159 18.8246H131.616V17.4655H139.183V18.8312H138.581C137.939 18.8312 137.415 19.38 137.415 20.04V32.422H141.186C141.703 32.422 142.168 31.9058 142.122 31.3635C142.109 31.2001 142.089 30.9584 142.089 30.782C142.089 29.7496 142.665 28.8479 143.529 28.3905L144.38 29.2726C143.935 29.6973 143.654 30.2984 143.654 30.9714C143.654 31.7686 144.04 32.4677 144.636 32.8794V34.5913V34.5979ZM137.01 12.8394C129.711 12.8394 123.793 18.9618 123.793 26.5152C123.793 34.0686 129.711 40.191 137.01 40.191C144.308 40.191 150.226 34.0686 150.226 26.5152C150.226 18.9618 144.308 12.8394 137.01 12.8394ZM164.333 28.6061C164.333 28.6453 164.326 28.6715 164.32 28.7041L163.842 28.299L163.587 28.5669C162.395 27.5084 161.413 27.7698 161.413 27.7698L160.222 28.5669C161.839 28.6715 162.205 29.8541 162.232 30.8212C162.114 30.9257 161.996 31.0368 161.878 31.1413L161.839 31.174C161.727 31.272 161.623 31.3766 161.511 31.4811L161.479 31.5072C161.367 31.6118 161.263 31.7163 161.165 31.8274C161.138 31.847 161.119 31.8731 161.099 31.8993C160.994 32.0104 160.896 32.1214 160.798 32.2325C160.602 32.4612 160.399 32.5331 160.163 32.5396C159.81 32.5396 159.377 32.3305 158.965 32.0561C158.867 31.9908 158.775 31.9254 158.677 31.8535C158.173 31.4811 157.754 31.0891 157.433 30.9453C157.086 30.8016 156.216 30.5794 155.162 30.5794C155.096 30.5794 155.031 30.5794 154.959 30.5794C154.926 30.5794 154.893 30.5794 154.861 30.5794C154.828 30.5794 154.789 30.5794 154.756 30.5794C154.71 30.5794 154.671 30.5794 154.625 30.5859C154.599 30.5859 154.579 30.5859 154.553 30.5859C154.501 30.5859 154.448 30.599 154.396 30.599H154.35C154.291 30.6121 154.232 30.6186 154.173 30.6317H154.141C154.075 30.6447 154.016 30.6578 153.951 30.6709H153.938C153.25 30.8081 152.543 31.0695 151.921 31.5464C151.994 31.3243 152.059 31.0956 152.118 30.8604C152.982 30.4226 154.396 29.9652 156.353 30.1874C156.353 30.1874 155.142 29.7888 153.316 29.9064L153.002 29.5209C153.002 29.5209 152.707 29.6777 152.334 29.9783C152.373 29.8084 152.406 29.6385 152.432 29.4686C152.89 29.168 153.388 29.0439 153.388 29.0439L153.728 27.8939C153.623 27.8874 153.231 27.6848 152.674 27.3777C152.687 27.1752 152.687 26.9661 152.694 26.7635C153.466 27.1164 154.114 27.4104 154.37 27.5476C154.37 27.5476 154.114 26.7112 155.561 26.5348C155.561 26.5348 154.219 26.2996 152.687 25.986C152.687 25.8683 152.681 25.7507 152.674 25.6331C154.599 25.8749 156.517 25.7965 157.695 24.9013C157.695 24.9013 156.674 25.1235 155.522 25.032C155.522 25.032 156.635 24.6791 157.525 23.5749C157.525 23.5749 156.504 24.1041 154.965 23.9735C154.965 23.9735 156.504 23.1763 156.969 22.4706C156.969 22.4706 155.136 23.2221 153.853 23.2221C153.853 23.2221 155.051 22.7385 155.561 22.2093L153.997 22.3465L154.416 21.6865C154.416 21.6865 152.36 21.0658 151.935 19.3016L152.694 19.3996C152.694 19.3996 152.066 17.0212 153.421 16.3417C153.25 16.1587 152.033 15.8059 152.033 15.8059C152.033 15.8059 153.44 15.7144 154.082 15.9758C154.082 15.9758 153.964 15.7471 153.65 15.5053C153.335 15.2636 152.916 15.1133 152.916 15.1133C152.916 15.1133 154.494 15.0218 154.965 15.5119C154.965 15.5119 154.494 14.6298 154.114 14.3227C154.114 14.3227 155.051 14.6298 155.607 15.2962L155.993 15.2505C155.993 15.2505 155.908 14.3227 155.483 13.5712C155.483 13.5712 156.334 14.2312 156.72 15.2897C156.72 15.2897 157.027 15.734 157.852 15.6425L157.839 15.6948L157.865 15.7602C157.865 15.7602 157.99 16.0803 158.186 16.4462C158.376 16.7925 158.625 17.178 158.952 17.4067C158.998 17.5309 159.096 17.7988 159.253 18.0993C159.449 18.4718 159.724 18.903 160.117 19.1513V19.1709C160.117 19.3996 160.124 19.857 160.176 20.3209C160.235 20.7848 160.314 21.2488 160.549 21.5493C160.955 22.0525 162.69 24.738 163.94 27.2078C164.202 27.7306 164.359 28.1618 164.359 28.5081C164.359 28.5408 164.359 28.5734 164.359 28.6127M158.153 33.5132C158.343 33.2976 158.579 32.9578 158.821 32.4351C159.122 32.6311 159.436 32.8075 159.764 32.8925C159.417 33.1473 158.906 33.3891 158.153 33.5197M155.541 36.5123C155.541 36.5123 154.442 36.2575 153.839 35.114C153.237 33.9771 154.141 33.8203 153.44 33.3041C152.74 32.7879 152.615 32.1018 153.191 31.9058C153.493 31.8013 153.741 31.8535 154.239 32.1672C154.736 32.4808 154.638 32.997 154.69 34.4998C154.743 36.0027 155.574 36.4862 155.541 36.5189M157.113 37.695C157.289 37.695 157.466 37.6819 157.623 37.6493C157.675 37.7473 157.747 37.8976 157.819 38.1132C157.937 38.6163 157.728 38.6555 157.61 38.7078C156.379 39.2174 156.34 40.8771 155.627 40.57C154.776 40.2041 155.803 37.7734 155.803 37.7734C155.803 37.7734 154.141 38.4137 153.787 38.1393C153.434 37.8649 154.088 37.1004 154.088 37.1004C154.088 37.1004 152.642 37.4794 152.347 37.2637C152.052 37.0481 152.563 36.2836 152.563 36.2836C152.563 36.2836 151.575 36.7672 151.136 36.5254C150.697 36.2836 151.555 35.4277 151.555 35.4277C151.555 35.4277 150.612 35.8328 150.318 35.591C150.246 35.5322 150.233 35.4407 150.239 35.3297C150.638 34.6893 150.998 34.0163 151.306 33.3172C151.293 33.3891 151.287 33.4544 151.273 33.5197C151.241 33.7419 151.221 33.964 151.221 34.1797C151.221 34.5848 151.287 34.9768 151.529 35.2578C151.882 35.6629 152.779 36.2444 153.846 36.7606C154.913 37.2703 156.137 37.695 157.119 37.695M157.767 35.2709C157.905 35.6629 157.95 36.0157 157.95 36.3032C157.95 36.6495 157.885 36.9174 157.819 37.1069C157.813 37.1265 157.806 37.1461 157.8 37.1657L157.662 37.2115C157.518 37.2572 157.263 37.2899 157.145 37.2899C157.027 37.2899 156.896 37.2638 156.785 37.2376C157.309 36.6757 157.617 35.8001 157.761 35.2774M154.795 44.4055C154.762 44.4512 154.69 44.5362 154.664 44.5754C150.527 49.0055 144.891 51.4492 139.085 51.9066C139 53.0108 138.116 53.8733 137.029 53.8799C135.949 53.8799 135.059 53.0108 134.974 51.9066C129.174 51.4492 123.531 49.0055 119.394 44.5754C119.368 44.5362 119.296 44.4512 119.263 44.4055C119.152 44.2617 119.126 44.1114 119.126 43.9154C119.126 43.6149 119.342 43.3731 119.499 43.2032C119.656 43.0333 119.865 42.8242 119.865 42.8242C119.865 42.8242 119.944 42.7197 119.977 42.6217C120.009 42.5171 119.99 42.4257 119.977 42.3865C119.911 42.1382 119.879 41.8768 119.879 41.6089C119.879 39.8839 121.22 38.4856 122.89 38.4856C123.152 38.4856 123.4 38.5183 123.636 38.5836C123.682 38.5967 123.728 38.6032 123.865 38.5836C124.022 38.5575 124.061 38.4791 124.101 38.4333C124.14 38.3941 124.356 38.1393 124.552 37.9629C124.749 37.7799 124.932 37.6297 125.2 37.6297C125.502 37.6297 125.718 37.8061 125.921 38.0413C127.334 39.5637 129.03 40.7072 130.869 41.4848C132.761 42.3211 134.843 42.785 137.029 42.785C139.216 42.785 141.291 42.3211 143.176 41.4913C145.022 40.7137 146.717 39.5637 148.131 38.0413C148.334 37.8061 148.544 37.6297 148.851 37.6297C149.12 37.6297 149.27 37.7473 149.499 37.9629C149.729 38.172 149.892 38.368 149.951 38.4333C150.01 38.4987 150.036 38.551 150.193 38.5836C150.292 38.6032 150.377 38.5967 150.416 38.5836C150.658 38.5183 150.907 38.4856 151.162 38.4856C152.825 38.4856 154.173 39.8904 154.173 41.6089C154.173 41.8768 154.141 42.1382 154.075 42.3865C154.069 42.4257 154.049 42.5171 154.075 42.6217C154.101 42.7197 154.186 42.8242 154.186 42.8242C154.186 42.8242 154.409 43.0529 154.553 43.2032C154.697 43.3535 154.926 43.6149 154.926 43.9154C154.926 44.1114 154.9 44.2617 154.789 44.4055M117.306 19.7067C117.306 19.7067 117.326 19.7002 117.352 19.6871C117.437 19.7133 117.509 19.7459 117.555 19.7655C117.666 20.6476 117.509 21.0723 117.149 21.1834C116.763 21.2945 116.088 20.8437 115.892 19.7982C115.984 19.7655 116.075 19.7394 116.167 19.7133C116.291 20.1184 116.573 20.7587 116.952 20.9874C116.952 20.9874 117.031 20.9417 117.024 20.8371C117.005 20.53 116.92 19.8766 117.306 19.7133M119.761 31.7359C119.892 31.5922 120.212 31.5726 120.35 31.6837C120.671 31.945 120.428 32.1802 120.18 32.6703C119.767 33.474 120.317 34.0229 119.918 34.8265C119.518 35.6302 119.021 35.8589 118.838 35.7152C118.569 35.4996 118.962 35.0618 119.1 34.7024C119.388 33.9379 118.746 32.8467 119.767 31.7294M118.497 38.1001C118.497 38.1001 118.412 38.27 118.458 38.5771C118.458 38.5771 117.705 38.4464 117.535 38.1458C117.535 38.1458 117.574 38.8842 117.705 39.4461C117.705 39.4461 116.697 38.3223 116.573 37.976C116.573 37.976 116.658 39.4069 117.077 40.1845C117.077 40.1845 116.095 39.4396 116.173 37.4075C116.285 37.4728 116.396 37.512 116.507 37.5382C116.56 37.5512 116.612 37.5578 116.664 37.5643H116.691C116.736 37.5709 116.789 37.5774 116.835 37.5774C117.26 37.5774 117.6 37.401 117.738 37.3095C117.823 37.3226 117.902 37.3226 117.974 37.3226C118.406 37.3226 118.7 37.1331 118.864 36.937C118.929 36.8652 118.969 36.7868 119.001 36.7214C119.158 36.7541 119.309 36.7672 119.453 36.7672C120.088 36.7672 120.546 36.4927 120.828 36.2248C121.018 36.0419 121.129 35.8655 121.188 35.7609C122.307 35.4865 122.582 34.5325 122.589 34.5064V34.4737V34.441C122.418 31.8274 121.299 30.6905 121.273 30.6643L121.234 30.6251L121.181 30.6121C120.677 30.4945 120.18 30.4422 119.689 30.4422C119.571 30.4422 119.46 30.4422 119.348 30.4487C119.322 30.4487 119.289 30.4487 119.263 30.4487C119.152 30.4487 119.041 30.4618 118.929 30.4749C118.818 30.4879 118.707 30.501 118.595 30.5141C118.569 30.5141 118.543 30.5206 118.51 30.5271C118.406 30.5402 118.294 30.5598 118.19 30.5794C118.085 30.599 117.98 30.6251 117.875 30.6513C117.849 30.6513 117.823 30.6643 117.797 30.6709C117.699 30.697 117.594 30.7232 117.496 30.7493C117.398 30.7754 117.293 30.8081 117.195 30.8408C117.168 30.8473 117.149 30.8538 117.123 30.8669C117.031 30.8996 116.933 30.9257 116.841 30.9584C116.749 30.9911 116.658 31.0237 116.566 31.0629C116.547 31.0695 116.52 31.0825 116.501 31.0891C116.416 31.1217 116.324 31.1544 116.245 31.1936C116.16 31.2328 116.075 31.2655 115.997 31.3047C115.977 31.3112 115.957 31.3243 115.938 31.3308C115.859 31.3635 115.781 31.4027 115.709 31.4354C115.63 31.4746 115.558 31.5138 115.486 31.5464L115.434 31.5726C115.368 31.6053 115.303 31.6379 115.237 31.6771H115.224C115.159 31.7163 115.1 31.749 115.041 31.7817L114.989 31.8078C114.936 31.8405 114.884 31.8666 114.838 31.8928H114.825C114.498 32.0953 114.269 32.2456 114.164 32.324L113.339 32.2195C113.293 32.128 113.254 32.0365 113.202 31.945L113.175 31.8928C113.13 31.8078 113.084 31.7229 113.031 31.6379L113.005 31.5922C112.953 31.5138 112.907 31.4354 112.855 31.357V31.3439C112.789 31.2655 112.737 31.1871 112.678 31.1087L112.645 31.0695C112.586 30.9911 112.534 30.9192 112.475 30.8473L112.455 30.8277C112.396 30.7558 112.337 30.6905 112.279 30.6186L112.265 30.6055C112.207 30.5337 112.141 30.4683 112.082 30.403L112.056 30.3768C111.99 30.3115 111.932 30.2462 111.866 30.1874L112.187 30.0632C112.606 28.6323 114.033 28.5865 114.033 28.5865C113.863 27.5019 114.282 26.6328 114.282 26.6328L113.529 27.3254C111.663 27.4823 110.603 28.1291 110.014 28.7041C109.883 28.5212 109.804 28.3513 109.765 28.1879V28.1487C109.765 28.1487 109.745 28.103 109.745 28.0834C109.745 28.0638 109.745 28.0442 109.739 28.0246V27.9788C109.732 27.9396 109.726 27.907 109.726 27.8743C109.726 27.5999 109.811 27.3516 109.902 27.1752C109.948 27.0837 109.994 27.0183 110.027 26.9661C110.059 26.9203 110.079 26.9007 110.079 26.9007L110.105 26.8746L110.118 26.8419C110.544 25.6854 111.604 24.0192 112.56 22.6536C113.516 21.288 114.36 20.2229 114.36 20.2164L114.419 20.1445L114.406 20.053C114.367 19.7786 114.347 19.5172 114.347 19.2755C114.347 18.1255 114.773 17.3283 115.192 16.8056C115.401 16.5442 115.617 16.3548 115.774 16.2306C115.853 16.1653 115.918 16.1261 115.964 16.0934C116.01 16.0673 116.029 16.0542 116.029 16.0542L116.141 15.9888L116.049 14.7474C116.71 13.5582 117.227 12.1141 117.352 11.7678C117.463 11.709 117.574 11.6437 117.679 11.5849C117.712 11.5653 117.744 11.5457 117.777 11.5261C117.849 11.4869 117.915 11.4411 117.98 11.4019C118.019 11.3758 118.052 11.3562 118.085 11.3366C118.144 11.2974 118.203 11.2582 118.262 11.219C118.294 11.1994 118.327 11.1732 118.36 11.1536C118.412 11.1144 118.471 11.0752 118.523 11.0426C118.55 11.023 118.576 11.0034 118.602 10.9838C118.654 10.9446 118.707 10.9053 118.759 10.8661C118.779 10.8531 118.798 10.84 118.818 10.8204C118.949 10.7224 119.06 10.6375 119.152 10.5656L119.27 10.6897C119.217 10.9446 119.191 11.2059 119.191 11.4738C118.759 11.7156 118.281 11.9312 117.771 12.1272L116.972 13.7542C116.972 13.7542 117.98 13.6693 118.268 15.1394C118.268 15.1394 118.884 14.2443 119.865 13.7215C119.911 13.7869 119.957 13.8457 120.003 13.911C119.571 14.2247 119.132 14.6951 118.942 15.3616L119.322 15.538C119.322 15.538 119.983 14.9891 120.756 14.669C120.9 14.78 121.057 14.8781 121.214 14.9695C120.736 15.244 120.219 15.5837 120.029 15.8908L120.278 16.1522C120.278 16.1522 121.41 15.4988 121.62 16.7599C121.829 18.0144 120.533 18.2366 120.153 18.2366C120.153 18.2366 120.193 18.7136 120.657 19.1905C120.657 19.1905 119.649 20.0138 118.229 19.1905C116.802 18.3672 116.317 18.4653 115.1 18.7658C115.1 18.7658 114.655 19.4192 114.923 20.1902C114.648 20.4647 114.504 20.4385 114.203 21.2814C114.079 21.8303 113.535 22.2223 113.535 22.2223C113.535 22.2223 115.002 22.353 116.219 20.9613C116.219 20.9613 117.142 22.0002 118.523 20.2229C118.523 20.2229 119.61 21.2226 121.371 20.0922C121.371 20.0922 120.533 21.0462 119.067 21.0005C119.067 21.0005 119.78 21.6931 120.029 22.3857C120.029 22.3857 119.486 21.863 118.183 21.7388C118.183 21.7388 118.347 22.7385 118.936 23.3462C118.936 23.3462 118.183 22.6928 116.802 22.9542C116.802 22.9542 118.019 24.7772 119.859 24.947C119.859 24.947 119.145 25.2084 118.811 25.6005C118.811 25.6005 119.525 26.0774 120.612 25.6854C120.612 25.6854 119.479 26.3388 118.975 26.5544C118.975 26.5544 119.728 26.8158 121.364 26.2931C121.364 26.3715 121.364 26.4564 121.364 26.5348C121.364 26.6002 121.364 26.672 121.364 26.7374C121.345 27.0445 121.273 27.4561 121.07 27.8547C121.07 27.8547 120.317 27.1621 119.564 26.9857C119.564 26.9857 120.448 28.2402 119.944 29.6712C119.944 29.6712 120.258 30.1743 121.495 30.122C121.594 30.122 121.679 30.122 121.751 30.122C122.117 31.8209 122.746 33.4152 123.584 34.8657C123.309 34.9638 123.066 35.0356 122.916 35.0552L123.669 35.4865C123.669 35.4865 122.451 35.9177 121.908 36.0092C121.908 36.0092 122.202 36.3163 122.451 36.4862C122.451 36.4862 120.985 37.1788 120.396 37.1396C120.396 37.1396 120.729 37.4859 120.9 37.5316C120.9 37.5316 119.937 37.793 119.643 37.6166L119.558 38.3092C119.558 38.3092 118.72 38.3941 118.51 38.0936M116.553 34.8788C116.697 35.4081 116.998 36.3163 117.509 36.9697C117.384 37.0416 117.123 37.1592 116.835 37.1592C116.717 37.1592 116.599 37.1396 116.481 37.0939C116.403 36.8848 116.311 36.5581 116.311 36.1334C116.311 35.7805 116.37 35.3623 116.547 34.8854M115.512 33.389C114.864 33.2976 114.485 33.0493 114.255 32.8206C114.236 32.801 114.236 32.7945 114.216 32.7748L114.301 32.716C114.301 32.716 114.452 32.605 114.733 32.4285C114.792 32.3893 114.864 32.3501 114.936 32.3044C115.146 32.8402 115.342 33.18 115.512 33.389ZM151.561 26.5479C151.561 30.697 149.938 34.4541 147.307 37.1723C144.675 39.8904 141.048 41.5762 137.042 41.5762C133.036 41.5762 129.403 39.897 126.772 37.1723C124.14 34.4541 122.517 30.697 122.517 26.5479C122.517 22.3988 124.14 18.6417 126.772 15.9235C129.403 13.2053 133.03 11.5195 137.042 11.5195C141.055 11.5195 144.682 13.1988 147.307 15.9235C149.938 18.6417 151.561 22.3988 151.561 26.5479ZM151.038 16.5769C151.038 16.5769 151.071 17.9621 152.013 18.511C151.66 18.5045 150.409 18.707 151.038 16.5769ZM119.42 8.55309L119.46 8.51388C123.996 3.9335 130.189 1.11732 137.029 1.11732H137.055C143.889 1.11732 150.089 3.94004 154.618 8.51388L154.664 8.55309C154.821 8.7099 154.913 8.92553 154.913 9.16729C154.913 9.40905 154.828 9.61814 154.664 9.77496L154.193 10.2585C154.101 10.3565 154.049 10.4872 154.049 10.6375C154.049 10.6767 154.049 10.7159 154.062 10.7551C154.121 10.9903 154.147 11.2386 154.147 11.4999C154.147 13.2445 152.779 14.6559 151.097 14.6559C150.874 14.6559 150.652 14.6298 150.442 14.584H150.422C150.383 14.571 150.344 14.5644 150.298 14.5644C150.154 14.5644 150.03 14.6232 149.938 14.7278H149.931L149.513 15.1721C149.362 15.3354 149.153 15.4465 148.91 15.4465C148.668 15.4465 148.459 15.342 148.308 15.1721C146.685 13.4928 144.708 12.173 142.508 11.3366C140.806 10.6832 138.967 10.3238 137.049 10.3238C135.131 10.3238 133.291 10.6832 131.596 11.3301C129.39 12.1664 127.413 13.4863 125.79 15.1656C125.632 15.3354 125.423 15.44 125.187 15.44C124.952 15.44 124.736 15.3289 124.585 15.1656L124.166 14.7278H124.16C124.068 14.6167 123.937 14.5644 123.793 14.5644C123.747 14.5644 123.708 14.5644 123.669 14.584H123.649H123.642C123.433 14.6298 123.217 14.6559 122.988 14.6559C121.306 14.6559 119.937 13.2445 119.937 11.4999C119.937 11.2451 119.97 10.9968 120.023 10.7551C120.029 10.7224 120.036 10.6832 120.036 10.6375C120.036 10.4872 119.996 10.363 119.892 10.2585L119.42 9.77496C119.263 9.6116 119.172 9.40251 119.172 9.16729C119.172 8.93206 119.27 8.70337 119.427 8.55309M165.053 28.5342C165.053 27.9854 164.837 27.4692 164.562 26.9138C163.292 24.4047 161.597 21.778 161.106 21.1508C161.021 21.0005 160.909 20.6607 160.877 20.2752C160.831 19.857 160.844 19.4323 160.818 19.1775C160.785 18.9357 160.66 18.7724 160.523 18.5633C160.379 18.3607 160.202 18.132 160.019 17.8707C159.757 17.4917 159.469 17.0735 159.247 16.7403C159.024 16.4136 158.847 16.1391 158.834 16.113C158.729 15.9235 158.625 15.7732 158.598 15.7079L158.579 15.6687C158.612 15.4988 158.657 15.2113 158.657 14.8585V14.8323C158.657 13.8391 158.278 12.2579 156.53 11.2255C156.118 10.9772 155.751 10.7485 155.417 10.5394C155.757 10.1931 155.96 9.70308 155.96 9.19342V9.18036C155.96 8.63803 155.744 8.14144 155.391 7.79513L155.332 7.74286C150.586 2.94033 144.125 0 137.016 0H137.003H136.99C129.874 0 123.42 2.94033 118.7 7.70366L118.681 7.72326C118.314 8.08917 118.091 8.58576 118.091 9.12155V9.13462C118.091 9.50706 118.196 9.8599 118.379 10.1605C118.17 10.2715 117.895 10.4284 117.627 10.5982C117.188 10.8923 116.743 11.2124 116.547 11.6437C116.396 12.0031 116.403 12.1664 116.291 12.4539C116.193 12.7284 116.003 13.1073 115.826 13.4406C115.65 13.7803 115.486 14.0678 115.414 14.2247C115.322 14.4403 115.309 14.6755 115.303 14.9107C115.303 15.1721 115.329 15.4335 115.355 15.5968C114.799 16.015 113.607 17.1584 113.607 19.2363C113.607 19.4519 113.62 19.6741 113.647 19.9027C113.018 20.7195 110.295 24.2675 109.438 26.5152C109.385 26.6786 108.992 27.0968 108.992 27.8286V27.8416C108.986 28.3056 109.13 28.8087 109.634 29.2987L109.811 29.4555L109.843 29.4817C109.843 29.4817 109.928 29.5536 110.145 29.6908C110.76 30.0828 112.063 31.0499 112.684 32.52C112.684 32.5331 112.697 32.5592 112.711 32.5919C112.737 32.6376 112.75 32.6964 112.841 32.7814C112.913 32.8337 112.933 32.8337 112.953 32.8402C113.025 32.8598 113.084 32.8663 113.162 32.8794C113.404 32.9121 113.764 32.9382 113.764 32.9382H113.817C113.863 32.9317 113.902 32.9186 113.941 32.9055C113.961 32.9317 113.987 32.9578 114.007 32.9839C114.341 33.3237 114.93 33.6569 115.938 33.6766C116.016 33.6766 116.075 33.6177 116.088 33.5393C116.095 33.4609 116.043 33.3891 115.971 33.3694C115.925 33.3498 115.565 33.1734 115.159 32.0953C115.781 31.749 116.691 31.3178 117.731 31.0499C118.019 31.1936 118.281 31.357 118.419 31.5334C118.419 31.5334 117.875 32.9643 118.209 34.526C118.209 34.526 117.548 35.0095 117.286 35.7217C117.24 35.7478 117.201 35.7674 117.162 35.7936C117.11 35.6694 117.057 35.5453 117.011 35.4277C116.789 34.8265 116.691 34.3234 116.691 34.3234C116.677 34.2581 116.625 34.2123 116.566 34.1993C116.501 34.1927 116.442 34.2254 116.416 34.2842C116.088 34.9703 115.977 35.578 115.977 36.0745C115.977 36.166 115.977 36.2575 115.99 36.3424C115.944 36.3228 115.885 36.3098 115.826 36.3098C115.8 36.3098 115.768 36.3098 115.735 36.3163C115.571 36.349 115.466 36.4731 115.421 36.5581C115.375 36.643 115.362 36.7084 115.355 36.728C115.355 36.728 115.231 37.3944 115.231 38.1524C115.244 38.8254 115.296 39.6356 115.82 40.2041C116.573 40.9816 117.915 42.4126 117.915 42.4126L117.928 42.4257C117.928 42.4257 118.137 42.6217 118.451 42.7458C118.242 43.0529 118.124 43.4384 118.124 43.8239V43.8435C118.124 44.3793 118.34 44.8759 118.694 45.2288L118.753 45.281C122.805 49.3779 128.172 52.1222 134.136 52.8017C134.574 53.9975 135.694 54.8534 137.003 54.8534C138.312 54.8534 139.425 54.004 139.87 52.8083C145.86 52.1418 151.254 49.3844 155.339 45.2614L155.352 45.2484C155.352 45.2484 155.502 45.0785 155.646 44.8237C155.79 44.5754 155.941 44.2356 155.947 43.8566V43.837C155.941 43.458 155.836 43.0921 155.64 42.7785C156 42.6674 156.248 42.4649 156.392 42.2754C156.445 42.21 156.471 42.1512 156.51 42.0728C156.648 41.8049 156.844 41.3214 157.06 40.8379C157.27 40.3609 157.512 39.8904 157.649 39.7206C157.793 39.518 158.389 39.0933 158.402 38.368C158.402 38.3419 158.402 38.3157 158.402 38.2961C158.382 38.0086 158.278 37.7538 158.18 37.5512C158.134 37.4467 158.088 37.3618 158.049 37.2964L158.022 37.2507C158.108 37.0416 158.212 36.6953 158.212 36.2379C158.212 35.8001 158.114 35.2643 157.826 34.6632C157.8 34.6044 157.734 34.5717 157.675 34.5782C157.61 34.5848 157.564 34.6371 157.551 34.7024C157.551 34.7024 157.466 35.1402 157.27 35.6694C157.191 35.8916 157.086 36.1203 156.969 36.3424C155.005 34.8657 155.299 32.141 155.299 32.141C156.307 31.7229 157.374 31.7882 158.225 31.9712C158.291 32.0234 158.363 32.0757 158.428 32.128C158.461 32.1541 158.5 32.1803 158.533 32.2064C158.337 32.6507 158.14 32.9513 157.977 33.1538C157.846 33.3237 157.734 33.4217 157.656 33.474C157.617 33.5001 157.59 33.5197 157.571 33.5263H157.551C157.479 33.5655 157.44 33.6373 157.459 33.7158C157.473 33.7876 157.538 33.8334 157.603 33.8334H157.617C158.638 33.7419 159.332 33.4609 159.796 33.1473C159.862 33.1669 159.927 33.1734 159.993 33.18C160.039 33.18 160.084 33.18 160.13 33.18H160.15C160.549 33.18 160.968 33.0035 161.276 32.6442C162.29 31.468 163.868 30.3638 164.555 29.6058C164.85 29.2791 164.994 28.874 164.994 28.4689L165.053 28.5342ZM162.055 26.2604C163.135 27.4692 163.148 26.6982 163.148 26.6982C162.893 26.8811 162.055 26.2604 162.055 26.2604ZM125.331 13.6889L128.185 11.2713L127.19 10.0167L125.737 11.2517L122.759 7.48803L121.358 8.6707L121.41 8.73604L125.331 13.6889V13.6889ZM146.187 10.9576C146.462 11.7286 146.933 12.4082 147.595 12.8786C148.053 13.2053 148.609 13.434 149.192 13.434C149.264 13.434 149.336 13.434 149.408 13.421C150.089 13.3491 150.58 12.8786 150.933 12.3559C151.156 12.0227 151.254 11.696 151.254 11.3823C151.254 10.8596 150.992 10.3826 150.645 9.93177L150.383 9.59854C150.285 9.46785 150.193 9.33717 150.134 9.19996C150.102 9.12155 150.089 9.05621 150.089 9.00394C150.089 8.82098 150.226 8.71644 150.436 8.7099C150.553 8.7099 150.691 8.74911 150.815 8.84058C151.123 9.06274 151.306 9.38945 151.404 9.76842L151.431 9.87297L152.871 9.07581L152.838 9.00394C152.55 8.38973 152.052 7.77553 151.516 7.39002C151.097 7.08946 150.638 6.93264 150.193 6.93264C149.545 6.93264 148.923 7.26588 148.485 7.91275C148.23 8.29172 148.118 8.63149 148.118 8.94513C148.118 9.50052 148.452 9.95138 148.864 10.4741C149.035 10.6767 149.31 11.0295 149.303 11.2843C149.303 11.3497 149.29 11.4085 149.251 11.4738C149.153 11.6176 149.028 11.6698 148.884 11.6698C148.74 11.6698 148.583 11.611 148.446 11.513C148.02 11.2059 147.817 10.7093 147.693 10.1866L147.667 10.0821L146.167 10.8857L146.194 10.9576H146.187ZM134.673 4.221C134.725 4.221 134.771 4.21447 134.823 4.21447C135.635 4.21447 136.335 4.85481 136.401 5.59969C136.401 5.66503 136.407 5.72384 136.407 5.78918C136.407 6.71701 135.785 7.42269 134.967 7.5011C134.915 7.5011 134.869 7.50764 134.817 7.50764C134.005 7.50764 133.304 6.8673 133.219 5.90679C133.219 5.86759 133.219 5.82838 133.219 5.78918C133.219 5.03776 133.848 4.30595 134.679 4.22754M134.751 9.3045C134.876 9.3045 135 9.3045 135.124 9.2849C136.977 9.10848 138.253 7.68406 138.253 5.80225C138.253 5.6781 138.253 5.54742 138.234 5.41674C138.07 3.59373 136.506 2.42414 134.849 2.42414C134.738 2.42414 134.627 2.42414 134.509 2.44374C132.827 2.60709 131.367 3.97271 131.367 5.77611C131.367 5.87412 131.367 5.97867 131.38 6.07668C131.55 8.01076 132.944 9.3045 134.745 9.3045M141.945 6.05054L143.392 10.3696L145.048 10.9511L147.058 4.80253L145.349 4.2014L144.236 7.61218L142.783 3.2997L141.127 2.71817L139.117 8.86672L140.826 9.46785L141.945 6.05054V6.05054ZM129.344 10.7355L131.007 9.99711L128.526 4.03805L126.863 4.7764L126.896 4.85481L129.344 10.7355V10.7355ZM114.131 30.9845C114.131 30.9845 113.778 31.2786 113.804 31.4158C113.843 31.6771 114.125 31.5072 114.197 31.4288C115.421 30.109 117.64 29.2726 117.62 29.1354C117.6 28.9982 115.696 29.5797 114.138 30.9845M112.18 24.1564C111.964 24.5289 111.774 24.849 111.591 25.2149C111.395 25.607 111.074 26.2343 110.937 26.5218C111.297 26.5871 111.689 26.5218 112.108 26.2016C112.154 24.9797 113.287 22.4445 113.287 22.4445C112.966 22.8627 112.481 23.6533 112.18 24.1564V24.1564ZM145.506 42.9549L146.187 44.4643L147.084 46.0978V46.1109L144.668 43.3535L144.145 43.6018L146.056 47.8424L146.6 47.581L145.899 46.0259L145.179 44.6407L145.022 44.3793V44.3663L147.457 47.1694L147.961 46.9276L146.05 42.687L145.506 42.9484V42.9549ZM117.705 27.6783C117.679 27.5149 115.303 28.1749 113.365 29.8084C113.365 29.8084 112.927 30.1547 112.959 30.3115C113.018 30.6186 113.365 30.4226 113.45 30.3311C114.962 28.7891 117.738 27.8351 117.705 27.6783ZM161.079 22.9868C160.353 21.974 159.993 21.6081 159.711 19.7198C159.463 18.0209 155.915 19.7198 155.915 19.7198C154.173 20.1706 153.499 19.7002 153.244 19.3539C153.244 19.3474 153.172 19.2951 153.211 19.3866C154.173 21.582 156.281 20.4516 156.281 20.4516L156.667 20.8502C156.576 20.6215 156.556 20.2687 156.622 19.7851C156.7 19.7525 156.844 19.6937 157.001 19.6545C157.093 19.7851 157.106 19.8701 157.119 20.0726C157.132 20.2752 157.014 20.5366 157.014 20.7064C157.014 20.8698 157.132 20.9417 157.132 20.9417C157.538 20.6934 157.839 20.0988 157.983 19.7198C158.088 19.7459 158.186 19.7786 158.284 19.8178C158.094 20.8633 157.42 21.3141 157.034 21.203C157.014 21.203 156.995 21.19 156.982 21.1834C155.751 21.765 156.478 21.9283 156.478 21.9283C157.499 21.9283 158.428 21.2096 158.428 21.2096C158.769 21.386 159.122 22.2354 159.122 22.2354C159.508 22.2811 160.143 22.634 160.143 22.634C160.785 23.2547 161.079 22.9868 161.079 22.9868ZM161.479 23.6141C161.479 23.6141 161.466 24.1303 160.503 23.7709C160.503 23.7709 160.968 24.5158 161.616 24.6595C162.31 24.8164 161.852 24.0323 161.472 23.6141M162.513 25.3391C162.513 25.3391 162.408 25.7638 161.289 24.9993C161.289 24.9993 161.97 25.901 162.467 26.0448C162.965 26.1885 162.69 25.4959 162.513 25.3391Z" fill="#71317E"/>
<path d="M5.44629 24.8817V0.895172H8.96807V23.1567H12.935C16.424 23.1567 17.9427 22.8496 19.54 22.4641V24.8817H5.44629Z" fill="#517CBA"/>
<path d="M27.2253 0.895172H23.625V24.8817H27.2253V0.895172Z" fill="#517CBA"/>
<path d="M51.8844 13.14C51.8844 6.27269 48.0615 2.01248 43.6102 2.01248C39.1589 2.01248 35.5258 5.88718 35.5258 12.6042C35.5258 19.3212 39.3487 23.7709 43.7608 23.7709C48.1728 23.7709 51.8844 19.8962 51.8844 13.14ZM31.7487 13.0616C31.7422 6.11587 37.051 0.32016 43.7608 0.32016C50.4705 0.32016 55.7008 5.38406 55.7008 12.7153C55.7008 19.661 50.3592 25.4567 43.6495 25.4567C36.9398 25.4567 31.7422 20.3536 31.7422 13.0616" fill="#517CBA"/>
<path d="M74.2849 25.0712L62.4169 5.19457H62.1943V24.8817H60.2305V1.04544L64.0141 0.738342L75.7708 20.5431H76.0261V0.89516H77.9965V24.7641L74.2849 25.0712Z" fill="#517CBA"/>
<path d="M83.7047 21.2357C85.6358 22.7712 87.5603 23.7709 90.0086 23.7709C93.7529 23.7709 95.3109 21.4317 95.3109 19.3212C95.3109 17.2107 94.1261 15.636 89.2296 13.911C84.6343 12.2971 82.8145 10.2258 82.8145 6.88689C82.8145 3.54799 85.1187 0.32016 90.6828 0.32016C93.3929 0.32016 96.1357 1.01277 97.4318 1.66618L96.6528 4.2406C94.8003 2.7443 92.8692 2.01248 90.421 2.01248C87.5276 2.01248 85.8191 3.89429 85.8191 5.88718C85.8191 8.26558 87.3771 9.53319 91.5338 11.0687C96.7248 12.9897 98.4726 15.1002 98.4726 18.4391C98.4726 22.0459 95.9131 25.4632 89.7926 25.4632C87.233 25.4632 84.379 24.6987 82.9323 23.8885L83.7113 21.2422L83.7047 21.2357Z" fill="#517CBA"/>
<path d="M21.7526 8.58575C21.5562 8.58575 21.4253 8.69683 21.386 8.96473C20.607 14.8323 20.2404 20.7914 19.9982 26.7308C19.9131 28.5016 19.8477 30.2919 19.8018 32.0822C19.756 33.2714 18.9378 34.2777 17.7922 34.4998C17.2292 34.6109 16.7317 34.7024 16.2539 34.7873C16.0379 34.8331 15.8218 34.8527 15.6255 34.8527C14.7156 34.8527 13.8253 34.4476 13.2231 33.7354C11.2985 31.4942 8.83064 30.0632 5.86527 30.0632C2.33695 30.0697 0 32.4416 0 34.6175C0 36.4078 1.68888 38.3549 5.19758 38.3549C6.9061 38.3549 9.72091 37.7734 12.3655 37.2376C12.5161 37.218 12.6666 37.1919 12.8172 37.1919C13.7075 37.1919 14.5061 37.7277 14.8727 38.5575C17.0394 43.6214 18.1391 50.6782 19.1996 55.8074C19.2847 56.2779 19.7822 56.7483 20.2208 56.7483C20.4368 56.7483 20.607 56.6372 20.607 56.3693C20.8427 50.3188 20.9343 44.2487 21.0849 38.1785C21.1045 37.7734 21.1045 37.3487 21.1307 36.924C21.1503 36.0942 21.7395 35.3819 22.5185 35.2447C26.78 34.4149 30.3083 33.7419 33.8628 33.0689H33.9283C34.1901 33.0689 34.3799 33.2714 34.3799 33.5393C34.3341 35.1271 34.2948 36.7214 34.2948 38.3549C34.2948 39.4069 34.3145 40.4589 34.3407 41.537C34.4061 44.2225 34.5763 46.9146 34.9233 49.5805C34.9691 50.0248 35.5975 50.4952 35.9837 50.4952C36.1801 50.4952 36.3307 50.3841 36.3307 50.1162C36.3307 50.1162 35.7219 45.9933 35.7219 39.3873C35.7219 37.3487 35.7677 35.1336 35.8528 33.0493C35.8528 32.8467 36.0034 32.6703 36.1997 32.6442C36.5925 32.5527 36.9787 32.4874 37.3715 32.422C37.5417 32.4024 37.5875 32.2652 37.5875 32.1084C37.5875 31.5464 37.09 30.9453 36.527 30.9453H36.3961C36.1605 30.9453 35.9641 30.7689 35.9641 30.5206V30.4749C36.0819 28.0311 36.239 25.5743 36.4419 23.124C35.9444 22.7516 35.4797 22.3334 35.0542 21.8826C34.956 23.111 34.8578 24.3394 34.7727 25.5678C34.6876 26.9138 34.6025 28.2794 34.537 29.6189C34.4912 30.6251 33.7777 31.455 32.8285 31.6379C29.13 32.3305 25.4446 33.0231 21.746 33.7419H21.6806C21.4449 33.7419 21.2289 33.5393 21.2289 33.2714C21.3794 28.6127 21.5758 23.9735 21.9031 19.3147C22.3155 13.4014 22.8327 9.63774 22.8327 9.63774C22.8327 9.16729 22.1846 8.58575 21.7722 8.58575M4.48405 36.8325C2.99155 36.8325 1.43359 36.5842 1.43359 35.2447C1.43359 33.5851 3.50869 31.6183 6.6508 31.6183C9.20377 31.6183 11.1938 32.8075 12.7583 34.82C12.8237 34.9115 12.8434 34.9964 12.8434 35.0879C12.8434 35.3101 12.7125 35.5126 12.4964 35.5388C8.42479 36.3686 6.1533 36.839 4.48405 36.839M19.0294 46.81C18.833 46.81 18.6628 46.6989 18.5974 46.4506C17.7726 42.8896 16.8234 39.8186 15.4814 37.1984C15.4618 37.1331 15.4356 37.0612 15.4356 36.9959C15.4356 36.7933 15.5665 36.5907 15.7826 36.545C16.9085 36.3228 18.054 36.0942 19.18 35.8981C19.1996 35.8981 19.2454 35.8785 19.2651 35.8785C19.4811 35.8785 19.6775 36.0811 19.6775 36.3032V36.349C19.612 39.4592 19.5465 42.6021 19.4615 45.7123V46.3592C19.4418 46.6532 19.2454 46.81 19.0294 46.81ZM36.5205 10.2715C36.3241 10.2715 36.1932 10.3826 36.1539 10.6505C35.9903 12.0815 35.8332 13.519 35.6891 14.9565C35.8921 16.4136 36.2783 17.7204 36.8151 18.8508C37.1751 14.963 37.6071 11.3497 37.6071 11.3497C37.6071 10.8792 36.9329 10.2715 36.527 10.2715" fill="#8F679B"/>
<path d="M35.6825 14.9565C35.4469 17.263 35.2309 19.5695 35.041 21.8826C35.4665 22.3334 35.9313 22.7516 36.4288 23.124C36.527 21.8891 36.6383 20.6607 36.7495 19.4323C36.7692 19.2363 36.7823 19.0402 36.8019 18.8508C36.2651 17.7204 35.8789 16.4201 35.676 14.9565" fill="#6A4C8F"/>
<path d="M45.351 31.8144C42.1893 31.8144 38.877 36.0484 38.877 38.6947C38.877 40.1976 39.9571 40.9555 40.8931 40.9555C42.2547 40.9555 44.2251 39.0737 45.5932 37.597C45.6783 37.5055 45.7896 37.4663 45.8943 37.4663C46.1104 37.4663 46.3067 37.6231 46.346 37.8453C46.5817 39.8186 47.8189 41.2495 49.4227 41.2495C51.1443 41.2495 53.2128 39.0868 54.7643 37.3095C54.8886 36.5516 55.0392 35.8132 55.2159 35.1337C54.0311 36.2183 50.7581 39.7467 48.8139 39.7467C47.8843 39.7467 47.7534 38.8515 47.7534 37.8845C47.7534 35.199 49.331 33.0885 49.331 33.0885C49.331 32.5919 48.7222 31.9712 48.2902 31.9712C48.1396 31.9712 48.0742 32.0169 47.8582 32.2587C47.7469 32.3959 47.5963 32.4612 47.4458 32.4612C47.3148 32.4612 47.2101 32.4155 47.0988 32.3502C46.6471 32.0365 46.0187 31.8144 45.3445 31.8144M40.2778 39.4527C40.2778 37.2768 43.289 33.2715 46.1889 33.2715H46.2085C46.4246 33.2715 46.5555 33.4479 46.5555 33.6504C46.5555 33.7419 46.5358 33.8269 46.4704 33.8987C44.9517 35.6695 41.7049 39.4069 40.2778 39.4527Z" fill="#8F679B"/>
<path d="M65.546 28.5016C65.0026 28.5016 61.9522 32.9578 61.9522 36.7476C61.9522 36.9697 61.9718 37.1723 62.0176 37.3944C62.0373 37.5055 62.0373 37.6166 62.0373 37.7277C62.0373 38.0413 61.9718 38.3354 61.8409 38.6229C60.7608 40.9294 58.8297 44.6734 56.951 45.3203C55.9756 45.3007 55.8905 42.2493 55.8905 41.4194C55.8905 36.5842 57.8151 32.7487 57.8151 32.7487C57.8151 32.2783 57.2063 31.651 56.7546 31.651C56.3749 31.651 55.7203 33.1212 55.2097 35.1271C55.0395 35.8001 54.8824 36.5385 54.758 37.303C54.5878 38.368 54.4766 39.4853 54.4766 40.5504C54.4766 43.1248 54.9741 46.8231 57.4616 46.8231C59.5825 46.8231 61.8998 42.3669 63.0257 40.0799C63.0912 39.9035 63.2417 39.8317 63.3923 39.8317C63.4774 39.8317 63.5429 39.8317 63.6083 39.8774C63.9945 40.0995 64.4528 40.2106 64.9961 40.2106C66.5606 40.2106 68.5702 38.5314 69.814 37.2442C69.8074 37.1265 69.8009 37.0089 69.8009 36.8913C69.8009 36.4731 69.8467 36.0746 69.9384 35.6956C68.6161 36.7345 66.122 38.7078 64.3022 38.7078C64.0665 38.7078 63.8898 38.5052 63.8898 38.2831C63.8898 38.2177 63.9094 38.172 63.9356 38.1067C64.8455 36.068 66.5999 31.8144 66.5999 30.0436C66.5999 28.8348 65.7554 28.4951 65.5394 28.4951" fill="#8F679B"/>
<path d="M74.9652 31.9058C72.5694 31.9058 70.4877 33.4087 69.9509 35.7021C69.8593 36.0811 69.8135 36.4797 69.8135 36.8978C69.8135 37.0155 69.8135 37.1331 69.8266 37.2507C69.9837 39.3677 71.5416 41.3606 74.2321 41.3606C77.6949 41.3606 81.4589 38.8319 83.1413 37.1461C83.102 36.6888 83.0758 36.2052 83.0562 35.7282C80.2675 38.4137 75.6853 39.8643 73.6233 39.8643C72.1308 39.8643 71.2209 39.2566 71.2209 37.7146V37.695C71.2209 37.2441 71.5875 36.8913 72.0457 36.8913C72.1308 36.9109 72.2421 36.9109 72.3075 36.9109C74.4743 36.9109 77.5051 35.48 77.5051 33.7746C77.5051 32.5004 76.2286 31.9124 74.9718 31.9124M72.2421 35.3623C72.157 35.3623 72.0653 35.2709 72.0653 35.2055C72.0653 35.1598 72.085 35.1402 72.1111 35.114C72.9752 33.9967 74.3172 33.4348 75.6853 33.4152C75.7704 33.4152 75.8162 33.5067 75.8162 33.572C75.8162 33.6177 75.8162 33.6373 75.7966 33.6635C75.2991 34.2712 74.003 35.1859 72.2486 35.3623" fill="#8F679B"/>
<path d="M91.8939 26.574C91.547 26.574 87.7372 29.4164 85.3544 34.0817C85.2693 34.2385 85.1188 34.33 84.9616 34.33C84.7456 34.33 84.5296 34.147 84.5296 33.8791V33.8334C84.7653 30.7624 85.5246 28.5016 85.5246 28.5016C85.5246 27.9854 84.8766 27.3385 84.4445 27.3385C84.3136 27.3385 84.1827 27.43 84.1434 27.5868C83.4102 29.9848 83.0371 32.4678 83.0371 34.9572C83.0371 35.2121 83.0371 35.4669 83.0502 35.7283C83.0633 36.2052 83.096 36.6888 83.1353 37.1461C83.2662 38.6947 83.4953 40.0211 83.6459 40.2629C83.8816 40.6419 84.2547 40.8902 84.5558 40.8902H84.6016C84.7718 40.8902 84.9289 40.7791 84.9486 40.5308C85.4657 37.0351 87.0891 33.8791 89.341 31.259C89.4261 31.1479 89.557 31.1021 89.6683 31.1021C89.8843 31.1021 90.1265 31.3047 90.1265 31.553C90.1265 31.5987 90.1069 31.6183 90.1069 31.6641C89.6945 33.3237 89.3737 35.2055 89.3737 36.7737C89.3737 40.3348 90.9775 41.635 92.5158 41.635C95.0295 41.635 98.296 36.3947 98.296 35.8589C98.296 35.3231 98.2305 35.0749 98.0341 35.0749C97.7068 35.0749 94.2047 40.1583 91.8219 40.1583C90.8073 40.1583 90.8073 38.5706 90.8073 37.5121C90.8073 33.6374 92.9937 27.7044 92.9937 27.6783C92.9937 27.2274 92.3849 26.5806 91.9136 26.5806" fill="#8F679B"/>
<path d="M39.3815 54.1543V48.5546H42.8771V49.2995C42.4778 49.1558 42.0982 49.0774 41.221 49.0774H40.4224V51.1029H42.1964V51.606H40.4224V54.1609H39.375L39.3815 54.1543Z" fill="#517CBA"/>
<path d="M48.2181 51.423C48.2181 49.8222 47.4195 48.927 46.4507 48.927C45.4818 48.927 44.7421 49.7438 44.7421 51.2989C44.7421 52.854 45.5408 53.7949 46.4965 53.7949C47.4522 53.7949 48.2116 52.9782 48.2116 51.423M46.4572 54.2915C44.7749 54.2915 43.6162 53.1219 43.6162 51.41C43.6162 49.6981 44.9058 48.4305 46.4899 48.4305C48.1788 48.4305 49.3375 49.6066 49.3375 51.325C49.3375 53.0435 48.0414 54.298 46.4572 54.298" fill="#517CBA"/>
<path d="M51.8381 49.0512V51.2467C51.9756 51.2663 52.2047 51.2793 52.3683 51.2793C53.0753 51.2793 53.5793 50.8677 53.5793 50.1685C53.5793 49.4694 53.1604 49.0512 52.3487 49.0512H51.8381ZM53.8019 54.1543L52.4796 51.802L51.8381 51.7759V54.1608H50.7842V48.5742L52.6694 48.5416C54.0768 48.5154 54.7053 49.1231 54.7053 49.9856C54.7053 50.7109 54.2536 51.2989 53.5008 51.5538L55.026 54.1674H53.8085L53.8019 54.1543Z" fill="#517CBA"/>
<path d="M59.8243 54.1543V49.0773C58.9864 49.1035 58.5281 49.1492 58.083 49.3126V48.5612H62.6129V49.3126C62.1678 49.1492 61.7226 49.11 60.8847 49.0773V54.1543H59.8308H59.8243Z" fill="#517CBA"/>
<path d="M67.11 54.1543V51.5603H64.8254V54.1543H63.7715V48.5546H64.8254V51.0376H67.11V48.5546H68.1639V54.1543H67.11Z" fill="#517CBA"/>
<path d="M69.9121 54.1543V48.5546H73.4273V49.2995C73.028 49.1558 72.6484 49.0774 71.7712 49.0774H70.9595V51.0768H72.7073V51.5799H70.9595V53.6381H71.7712C72.6484 53.6381 73.028 53.5597 73.4273 53.416V54.1609H69.9121V54.1543Z" fill="#517CBA"/>
<path d="M78.6903 49.5151H78.6117L77.8327 51.9588H79.4431L78.6903 49.5151ZM80.1566 54.1543L79.6133 52.4554H77.6756L77.1323 54.1543H76.5693L78.2517 49.0642V48.731L79.3972 48.3912L81.2825 54.1477H80.1631L80.1566 54.1543Z" fill="#517CBA"/>
<path d="M85.7661 51.6844H86.8069V53.7819C86.2898 54.1216 85.7072 54.2915 85.033 54.2915C83.259 54.2915 82.0283 53.1807 82.0283 51.4166C82.0283 49.6524 83.2655 48.424 85.0002 48.424C85.7334 48.424 86.4338 48.633 86.9837 48.9859L86.6171 49.685C86.2178 49.2276 85.7007 48.9271 85.0068 48.9271C83.966 48.9271 83.1542 49.7961 83.1542 51.312C83.1542 52.9063 84.0118 53.7949 85.1508 53.7949C85.3734 53.7949 85.5567 53.7753 85.7661 53.7231V51.691V51.6844Z" fill="#517CBA"/>
<path d="M88.4697 54.1543V48.5547H91.985V49.2995C91.5857 49.1558 91.206 49.0774 90.3288 49.0774H89.5171V51.0768H91.2649V51.5799H89.5171V53.6382H90.3288C91.206 53.6382 91.5857 53.5597 91.985 53.416V54.1609H88.4697V54.1543Z" fill="#517CBA"/>
<path d="M95.0547 53.6643C96.4294 53.6643 97.1429 52.7299 97.1429 51.4231C97.1429 49.9921 96.3705 49.0512 94.8256 49.0512H94.5507V53.6643H95.0613H95.0547ZM93.4902 54.1478V48.5677L95.0286 48.5285C97.012 48.4828 98.2689 49.6785 98.2689 51.2793C98.2689 52.8802 97.1429 54.2327 95.0155 54.1805L93.4902 54.1413V54.1478Z" fill="#517CBA"/>
</svg>
