<?xml version="1.0" encoding="UTF-8"?>
<svg width="20px" height="25px" viewBox="0 0 20 25" version="1.1" xmlns="http://www.w3.org/2000/svg" xmlns:xlink="http://www.w3.org/1999/xlink"  fill="#F47E1F">
    <title>Icon-Phone</title>
    <g id="Page-1" stroke="none" stroke-width="1" fill="none" fill-rule="evenodd">
        <g id="Mobile-Nav" transform="translate(-281.000000, -19.000000)" fill="#F47E1F">
            <g id="Icon-Phone" transform="translate(281.000000, 19.000000)">
                <path d="M0,6.24821769 C0.00114290598,2.76864487 0.752603589,1.71937067 3.24547202,0.728495157 C5.72005395,-0.255151851 5.71967298,-0.254961627 6.89077065,2.11408495 C7.42355532,3.19151226 7.93957737,4.27768987 8.49845839,5.34142108 C8.90647583,6.1177242 8.73599235,6.66937307 7.96872147,7.06313623 C7.85633572,7.12077403 7.74985498,7.1902057 7.64089794,7.25450132 C5.61890677,8.44929669 5.47928176,8.20809298 6.36046227,10.8508715 C7.19916478,13.3665806 8.85885475,15.2944983 11.1555243,16.6658213 C11.8565067,17.0843136 12.4386268,17.0434155 13.0458908,16.4929079 C15.2360796,14.5077329 14.8823502,14.5746916 16.9934881,16.6059008 C17.8165709,17.3978023 18.611081,18.2218516 19.4695939,18.9732354 C20.0837154,19.5108077 20.1726715,19.9880791 19.6939844,20.6755477 C16.8431959,24.769353 15.310178,24.7699237 11.75555,22.9224707 C4.64934153,19.2290863 0.799462734,13.2182061 0,6.24821769" id="Fill-1"></path>
            </g>
        </g>
    </g>
</svg>
