<?xml version="1.0" encoding="utf-8"?>
<!-- Generator: Adobe Illustrator 26.0.3, SVG Export Plug-In . SVG Version: 6.00 Build 0)  -->
<svg version="1.1" id="Layer_1" xmlns="http://www.w3.org/2000/svg" xmlns:xlink="http://www.w3.org/1999/xlink" x="0px" y="0px"
	 viewBox="0 0 43.9 40" style="enable-background:new 0 0 43.9 40;" xml:space="preserve">
<style type="text/css">
	.st0{fill:#ea5167;}
</style>
<g id="Layer_2_00000003103948008524915250000006347838177302561180_">
	<g id="Layer_1-2">
		<path class="st0" d="M43.3,18.1L23,0.4c0,0-0.1-0.1-0.2-0.1c-0.1-0.1-0.2-0.1-0.3-0.2c-0.1,0-0.2-0.1-0.3-0.1C22,0,21.8,0,21.6,0
			c-0.1,0-0.2,0-0.3,0.1c-0.1,0-0.2,0.1-0.3,0.2c-0.1,0-0.1,0.1-0.2,0.1L0.6,18.1c-0.6,0.5-0.7,1.3-0.4,2C0.5,20.7,1,21,1.6,21
			c0.4,0,0.8-0.1,1.1-0.4l1.8-1.5v19.3C4.4,39.2,5.1,40,6,40c0,0,0,0,0,0h31.8c0.9,0,1.6-0.7,1.6-1.6c0,0,0,0,0,0V19.1l1.8,1.5
			c0.3,0.3,0.7,0.4,1.1,0.4c0.6,0,1.1-0.3,1.4-0.8C44.1,19.5,43.9,18.7,43.3,18.1z M29.7,26.1c0,0.3-0.3,0.6-0.6,0.6h-5.8v5.8
			c0,0.3-0.3,0.6-0.6,0.6h-2c-0.3,0-0.6-0.3-0.6-0.6v-5.8h-5.8c-0.3,0-0.6-0.3-0.6-0.6v-2c0-0.3,0.3-0.6,0.6-0.6h5.8v-5.8
			c0-0.3,0.3-0.6,0.6-0.6h1.9c0.3,0,0.6,0.3,0.6,0.6v5.8h5.8c0.3,0,0.6,0.3,0.6,0.6L29.7,26.1z"/>
	</g>
</g>
</svg>
