<?xml version="1.0" encoding="UTF-8"?>
<svg width="254px" height="46px" viewBox="0 0 254 46" version="1.1" xmlns="http://www.w3.org/2000/svg" xmlns:xlink="http://www.w3.org/1999/xlink">
    <title>7F9336D0-469B-4233-A695-51362F273039</title>
    <defs>
        <polygon id="path-1" points="0 46 253.667431 46 253.667431 0 0 0"></polygon>
    </defs>
    <g id="Page-1" stroke="none" stroke-width="1" fill="none" fill-rule="evenodd">
        <g id="02-03-Sticky-Nav" transform="translate(-120.000000, -12.000000)">
            <g id="LS_Logo-Landscape" transform="translate(120.000000, 12.000000)">
                <polygon id="Fill-1" fill="#404041" points="59.511477 15.8120226 59.511477 29.629845 66.5322329 29.629845 66.5322329 32.2213687 56.5307701 32.2213687 56.5307701 15.8120226"></polygon>
                <g id="Group-50">
                    <path d="M76.3662924,29.8529889 C75.8097968,31.7197952 74.5558631,32.5554479 72.4108089,32.5554479 C70.0702538,32.5554479 68.5107931,31.3578912 68.5107931,28.3208073 L68.5107931,19.3504981 L71.435123,19.3504981 L71.435123,27.7079347 C71.435123,29.4910848 72.0761841,30.3822053 73.5528979,30.3822053 C74.9177671,30.3822053 76.3108247,29.212837 76.3108247,26.7331581 L76.3108247,19.3504981 L79.2360639,19.3504981 L79.2360639,32.2208231 L76.7291057,32.2208231 L76.3662924,29.8529889 Z" id="Fill-2" fill="#404041"></path>
                    <path d="M90.7423381,31.7753538 C89.8230292,32.3045703 88.6527516,32.5555389 87.3433502,32.5555389 C84.9482367,32.5555389 83.4715229,31.3297936 83.4715229,28.7664584 L83.4715229,21.6347671 L81.6047165,21.6347671 L81.6047165,19.3496798 L83.4715229,19.3496798 L83.4715229,16.6199415 L86.4240413,16.2580375 L86.4240413,19.3496798 L90.2413102,19.3496798 L90.2413102,21.6347671 L86.3967621,21.6347671 L86.3967621,28.1535858 C86.3967621,29.518455 86.9814462,30.0758599 88.039879,30.0758599 C88.8755317,30.0758599 89.4884044,29.8248913 90.2131217,29.3238634 L90.7423381,31.7753538 Z" id="Fill-4" fill="#404041"></path>
                    <path d="M95.5901241,21.8018068 C96.2029968,19.9350004 97.5687752,19.04388 99.5183285,19.04388 C101.579726,19.04388 103.390156,20.2141575 103.390156,23.0557405 L103.390156,32.2215506 L100.465826,32.2215506 L100.465826,24.0023286 C100.465826,22.4983356 99.8529533,21.5235589 98.3762394,21.5235589 C96.9549933,21.5235589 95.5901241,22.3028347 95.5901241,24.9216375 L95.5901241,32.2215506 L92.664885,32.2215506 L92.664885,13.6116826 L95.5901241,13.6116826 L95.5901241,21.8018068 Z" id="Fill-6" fill="#404041"></path>
                    <path d="M114.061687,24.4487072 C114.088966,24.2813948 114.088966,24.1140824 114.088966,23.9476793 C114.088966,22.4700561 113.141468,21.2724994 111.553819,21.2724994 C109.855234,21.2724994 108.767704,22.4700561 108.573112,24.4487072 L114.061687,24.4487072 Z M114.312655,28.2932553 L116.847802,29.0452518 C116.262208,31.6640547 114.061687,32.5551751 111.582008,32.5551751 C108.071175,32.5551751 105.676062,30.1600617 105.676062,25.925421 C105.676062,21.5789357 107.987519,19.043789 111.692943,19.043789 C115.120119,19.043789 116.90327,21.3561556 116.90327,24.6160196 C116.90327,25.2843599 116.791425,25.925421 116.67958,26.3427928 L108.489456,26.3427928 C108.600391,28.6833478 109.687922,30.2709971 111.692943,30.2709971 C112.975065,30.2709971 113.894374,29.7699692 114.312655,28.2932553 L114.312655,28.2932553 Z" id="Fill-8" fill="#404041"></path>
                    <path d="M127.127512,22.331296 C126.765608,22.2194513 126.347327,22.1639836 125.873579,22.1639836 C124.174994,22.1639836 122.419123,23.3624496 122.419123,25.9248755 L122.419123,32.2209141 L119.493884,32.2209141 L119.493884,19.3496798 L121.973563,19.3496798 L122.335467,22.8605124 C122.865593,20.5763343 124.341397,18.9041196 127.40576,19.071432 L127.127512,22.331296 Z" id="Fill-10" fill="#404041"></path>
                    <path d="M135.541326,26.6214952 C132.366028,26.537839 131.056626,27.2898355 131.056626,28.7383609 C131.056626,29.6858583 131.696778,30.4105756 132.895244,30.4105756 C134.12008,30.4105756 135.541326,29.7140468 135.541326,28.2928007 L135.541326,26.6214952 Z M138.439286,28.9056733 C138.439286,29.8249822 138.856658,30.0759508 139.385874,30.0759508 C139.69231,30.0759508 139.943279,30.0204831 140.137871,29.9368269 L140.137871,32.1373488 C139.720499,32.3328497 139.191283,32.4437851 138.522033,32.4437851 C136.990761,32.4437851 136.043263,31.8036333 135.735918,30.3823871 C135.095766,31.9982249 133.64724,32.5556298 131.947747,32.5556298 C129.690848,32.5556298 128.130478,31.2462284 128.130478,29.0457065 C128.130478,26.2032142 130.359188,24.5873765 135.541326,24.8383451 L135.541326,23.3898197 C135.541326,21.9412944 134.733862,21.3284218 133.479928,21.3284218 C132.226904,21.3284218 131.473998,22.0249506 131.390342,23.334352 L128.548759,22.8606033 C128.74426,20.130865 131.112094,19.0442437 133.67452,19.0442437 C136.432446,19.0442437 138.439286,20.1863327 138.439286,23.1115719 L138.439286,28.9056733 Z" id="Fill-12" fill="#404041"></path>
                    <path d="M144.958468,21.8296315 C145.654997,19.9073575 147.130802,19.0435162 149.081264,19.0435162 C151.143572,19.0435162 152.954001,20.2137938 152.954001,23.0553768 L152.954001,32.2211868 L150.028762,32.2211868 L150.028762,24.0301534 C150.028762,22.4979719 149.415889,21.5231952 147.939175,21.5231952 C146.518838,21.5231952 145.15306,22.3033802 145.15306,24.9494623 L145.15306,32.2211868 L142.227821,32.2211868 L142.227821,19.3499526 L144.596564,19.3499526 L144.958468,21.8296315 Z" id="Fill-14" fill="#404041"></path>
                    <path d="M164.37671,27.429596 C164.683146,29.3236815 165.964359,30.2711789 167.663853,30.2711789 C169.251502,30.2711789 170.366312,29.5746501 170.366312,28.1815925 C170.366312,26.8440025 169.697972,26.2311299 167.190104,25.3400095 C164.237586,24.3370444 162.231656,23.1667668 162.231656,20.1860599 C162.231656,16.6761366 164.961394,15.4503914 167.636574,15.4503914 C170.755495,15.4503914 173.124239,16.6197596 173.430675,19.7404997 L170.478157,20.40884 C170.310844,18.7093461 169.168755,17.8736934 167.692042,17.8736934 C166.298984,17.8736934 165.296019,18.5702222 165.296019,19.9632798 C165.296019,21.4399937 166.466296,21.9410216 168.611351,22.6930181 C171.452934,23.668704 173.430675,24.7271369 173.430675,27.8196885 C173.430675,31.1622994 170.755495,32.555357 167.496541,32.555357 C164.264865,32.555357 162.259844,31.3578003 161.618783,28.3770934 L164.37671,27.429596 Z" id="Fill-16" fill="#404041"></path>
                    <path d="M183.516431,24.4487072 C183.544619,24.2813948 183.544619,24.1140824 183.544619,23.9476793 C183.544619,22.4700561 182.597122,21.2724994 181.009473,21.2724994 C179.309979,21.2724994 178.223357,22.4700561 178.028766,24.4487072 L183.516431,24.4487072 Z M183.767399,28.2932553 L186.302546,29.0452518 C185.717862,31.6640547 183.516431,32.5551751 181.036752,32.5551751 C177.526828,32.5551751 175.130806,30.1600617 175.130806,25.925421 C175.130806,21.5789357 177.443172,19.043789 181.148597,19.043789 C184.574864,19.043789 186.358014,21.3561556 186.358014,24.6160196 C186.358014,25.2843599 186.247078,25.925421 186.135234,26.3427928 L177.94511,26.3427928 C178.056045,28.6833478 179.142666,30.2709971 181.148597,30.2709971 C182.429809,30.2709971 183.349118,29.7699692 183.767399,28.2932553 L183.767399,28.2932553 Z" id="Fill-18" fill="#404041"></path>
                    <path d="M196.833589,22.331296 C196.471685,22.2194513 196.053404,22.1639836 195.579655,22.1639836 C193.881071,22.1639836 192.1252,23.3624496 192.1252,25.9248755 L192.1252,32.2209141 L189.19996,32.2209141 L189.19996,19.3496798 L191.679639,19.3496798 L192.041543,22.8605124 C192.571669,20.5763343 194.047474,18.9041196 197.111837,19.071432 L196.833589,22.331296 Z" id="Fill-20" fill="#404041"></path>
                    <path d="M198.226828,19.3501344 L201.374848,19.3501344 L203.436246,26.0089863 C204.160054,28.3486321 204.382834,30.1317822 204.382834,30.1317822 L204.494679,30.1317822 C204.494679,30.1317822 204.717459,28.3486321 205.442176,26.0362655 L207.503574,19.3501344 L210.540658,19.3501344 L206.02686,32.2213687 L202.711528,32.2213687 L198.226828,19.3501344 Z" id="Fill-22" fill="#404041"></path>
                    <mask id="mask-2" fill="white">
                        <use xlink:href="#path-1"></use>
                    </mask>
                    <g id="Clip-25"></g>
                    <path d="M212.629517,32.2212778 L215.554756,32.2212778 L215.554756,19.3500435 L212.629517,19.3500435 L212.629517,32.2212778 Z M214.078952,13.4450067 C215.165573,13.4450067 216.001226,14.1406262 216.001226,15.2836246 C216.001226,16.3693366 215.165573,17.1222424 214.078952,17.1222424 C213.047798,17.1222424 212.212145,16.3693366 212.212145,15.2836246 C212.212145,14.1406262 213.047798,13.4450067 214.078952,13.4450067 L214.078952,13.4450067 Z" id="Fill-24" fill="#404041" mask="url(#mask-2)"></path>
                    <path d="M228.84418,28.9058551 C228.39862,31.4964695 226.281755,32.5558117 223.662042,32.5558117 C220.180308,32.5558117 217.812473,30.1597889 217.812473,25.8687713 C217.812473,21.5786629 220.180308,19.0435162 223.802076,19.0435162 C226.643659,19.0435162 228.482276,20.5484186 228.677777,23.139033 L226.086254,23.7246264 C225.891662,22.1924448 225.083289,21.3840713 223.718419,21.3840713 C221.712489,21.3840713 220.625868,23.1945007 220.625868,25.8414921 C220.625868,28.4884834 221.851613,30.2707243 223.830264,30.2707243 C225.0551,30.2707243 225.918941,29.6578517 226.309034,28.1811378 L228.84418,28.9058551 Z" id="Fill-26" fill="#404041" mask="url(#mask-2)"></path>
                    <path d="M238.734344,24.4487072 C238.762533,24.2813948 238.762533,24.1140824 238.762533,23.9476793 C238.762533,22.4700561 237.815035,21.2724994 236.227386,21.2724994 C234.527892,21.2724994 233.441271,22.4700561 233.246679,24.4487072 L238.734344,24.4487072 Z M238.985313,28.2932553 L241.520459,29.0452518 C240.935775,31.6640547 238.734344,32.5551751 236.255574,32.5551751 C232.744742,32.5551751 230.348719,30.1600617 230.348719,25.925421 C230.348719,21.5789357 232.661086,19.043789 236.36651,19.043789 C239.792777,19.043789 241.575927,21.3561556 241.575927,24.6160196 C241.575927,25.2843599 241.464992,25.925421 241.353147,26.3427928 L233.163023,26.3427928 C233.273958,28.6833478 234.36058,30.2709971 236.36651,30.2709971 C237.648632,30.2709971 238.567941,29.7699692 238.985313,28.2932553 L238.985313,28.2932553 Z" id="Fill-27" fill="#404041" mask="url(#mask-2)"></path>
                    <path d="M245.839484,28.4324702 C246.062264,29.8809955 247.093417,30.4938681 248.541943,30.4938681 C249.850435,30.4938681 250.826121,29.9928402 250.826121,28.9616866 C250.826121,28.0141891 250.352372,27.5131612 248.932035,27.1785364 L247.03704,26.7329762 C244.725583,26.1482921 243.805365,24.9216375 243.805365,23.027552 C243.805365,19.9913774 246.256855,19.04388 248.764723,19.04388 C251.606306,19.04388 253.333079,20.0741243 253.556768,22.5819918 L250.770653,22.9157073 C250.658808,21.7181505 249.935,21.2171226 248.59741,21.2171226 C247.371665,21.2171226 246.619669,21.7736182 246.619669,22.7211157 C246.619669,23.5567684 246.981573,24.0577963 248.207318,24.3369534 L249.990468,24.7270459 C252.386491,25.2844509 253.667704,26.4547284 253.667704,28.710718 C253.667704,31.4968332 251.411714,32.5552661 248.485566,32.5552661 C245.47758,32.5552661 243.749897,31.6641456 243.331616,29.2954021 L245.839484,28.4324702 Z" id="Fill-28" fill="#404041" mask="url(#mask-2)"></path>
                    <path d="M26.2168538,11.8873646 C26.2168538,13.8223689 24.6483,15.3909227 22.7132956,15.3909227 C20.7792006,15.3909227 19.2106468,13.8223689 19.2106468,11.8873646 C19.2106468,9.95236024 20.7792006,8.38471574 22.7132956,8.38471574 C24.6483,8.38471574 26.2168538,9.95236024 26.2168538,11.8873646" id="Fill-29" fill="#F8A41C" mask="url(#mask-2)"></path>
                    <path d="M26.2168538,42.4964418 C26.2168538,44.4314462 24.6483,46 22.7132956,46 C20.7792006,46 19.2106468,44.4314462 19.2106468,42.4964418 C19.2106468,40.5614375 20.7792006,38.993793 22.7132956,38.993793 C24.6483,38.993793 26.2168538,40.5614375 26.2168538,42.4964418" id="Fill-30" fill="#F8A41C" mask="url(#mask-2)"></path>
                    <path d="M26.2168538,33.0241955 C26.2168538,34.9591998 24.6483,36.5277536 22.7132956,36.5277536 C20.7792006,36.5277536 19.2106468,34.9591998 19.2106468,33.0241955 C19.2106468,31.0891911 20.7792006,29.5206373 22.7132956,29.5206373 C24.6483,29.5206373 26.2168538,31.0891911 26.2168538,33.0241955" id="Fill-31" fill="#F8A41C" mask="url(#mask-2)"></path>
                    <path d="M18.1209338,22.45578 C18.1209338,24.9927453 20.1768759,27.0486874 22.7138412,27.0486874 C25.2508065,27.0486874 27.3067486,24.9927453 27.3067486,22.45578 C27.3067486,19.9188147 25.2508065,17.8628726 22.7138412,17.8628726 C20.1768759,17.8628726 18.1209338,19.9188147 18.1209338,22.45578" id="Fill-32" fill="#F37E20" mask="url(#mask-2)"></path>
                    <path d="M15.3041749,22.45578 C15.3041749,24.3907844 13.7356211,25.9584289 11.8006167,25.9584289 C9.8665217,25.9584289 8.2979679,24.3907844 8.2979679,22.45578 C8.2979679,20.5207757 9.8665217,18.9522219 11.8006167,18.9522219 C13.7356211,18.9522219 15.3041749,20.5207757 15.3041749,22.45578" id="Fill-33" fill="#F8A41C" mask="url(#mask-2)"></path>
                    <path d="M30.1235076,22.45578 C30.1235076,24.3907844 31.6920614,25.9584289 33.6261564,25.9584289 C35.5611607,25.9584289 37.1297146,24.3907844 37.1297146,22.45578 C37.1297146,20.5207757 35.5611607,18.9522219 33.6261564,18.9522219 C31.6920614,18.9522219 30.1235076,20.5207757 30.1235076,22.45578" id="Fill-34" fill="#F8A41C" mask="url(#mask-2)"></path>
                    <path d="M15.9947023,13.2068593 C15.9947023,14.6726615 14.8062386,15.8611252 13.3395272,15.8611252 C11.873725,15.8611252 10.6852613,14.6726615 10.6852613,13.2068593 C10.6852613,11.7401479 11.873725,10.5516842 13.3395272,10.5516842 C14.8062386,10.5516842 15.9947023,11.7401479 15.9947023,13.2068593" id="Fill-35" fill="#DAE025" mask="url(#mask-2)"></path>
                    <path d="M15.9947023,32.2637424 C15.9947023,33.7295446 14.8062386,34.9189175 13.3395272,34.9189175 C11.873725,34.9189175 10.6852613,33.7295446 10.6852613,32.2637424 C10.6852613,30.7970309 11.873725,29.6085672 13.3395272,29.6085672 C14.8062386,29.6085672 15.9947023,30.7970309 15.9947023,32.2637424" id="Fill-36" fill="#DAE025" mask="url(#mask-2)"></path>
                    <path d="M29.4329802,13.2068593 C29.4329802,14.6726615 30.6214438,15.8611252 32.0881553,15.8611252 C33.5539575,15.8611252 34.7424211,14.6726615 34.7424211,13.2068593 C34.7424211,11.7401479 33.5539575,10.5516842 32.0881553,10.5516842 C30.6214438,10.5516842 29.4329802,11.7401479 29.4329802,13.2068593" id="Fill-37" fill="#DAE025" mask="url(#mask-2)"></path>
                    <path d="M29.4329802,32.2637424 C29.4329802,33.7295446 30.6214438,34.9189175 32.0881553,34.9189175 C33.5539575,34.9189175 34.7424211,33.7295446 34.7424211,32.2637424 C34.7424211,30.7970309 33.5539575,29.6085672 32.0881553,29.6085672 C30.6214438,29.6085672 29.4329802,30.7970309 29.4329802,32.2637424" id="Fill-38" fill="#DAE025" mask="url(#mask-2)"></path>
                    <path d="M7.694643,13.2068593 C7.694643,14.6726615 6.50617933,15.8611252 5.03946786,15.8611252 C3.57366569,15.8611252 2.38520202,14.6726615 2.38520202,13.2068593 C2.38520202,11.7401479 3.57366569,10.5516842 5.03946786,10.5516842 C6.50617933,10.5516842 7.694643,11.7401479 7.694643,13.2068593" id="Fill-39" fill="#FDDC00" mask="url(#mask-2)"></path>
                    <path d="M7.694643,32.3375781 C7.694643,33.8033802 6.50617933,34.9918439 5.03946786,34.9918439 C3.57366569,34.9918439 2.38520202,33.8033802 2.38520202,32.3375781 C2.38520202,30.8708666 3.57366569,29.6824029 5.03946786,29.6824029 C6.50617933,29.6824029 7.694643,30.8708666 7.694643,32.3375781" id="Fill-40" fill="#FDDC00" mask="url(#mask-2)"></path>
                    <path d="M5.30944097,22.45578 C5.30944097,23.9224915 4.12097731,25.1109552 2.65426583,25.1109552 C1.18846367,25.1109552 0,23.9224915 0,22.45578 C0,20.9899779 1.18846367,19.8006049 2.65426583,19.8006049 C4.12097731,19.8006049 5.30944097,20.9899779 5.30944097,22.45578" id="Fill-41" fill="#FDDC00" mask="url(#mask-2)"></path>
                    <path d="M15.9947023,41.0075433 C15.9947023,42.4742548 14.8062386,43.6627184 13.3395272,43.6627184 C11.873725,43.6627184 10.6852613,42.4742548 10.6852613,41.0075433 C10.6852613,39.5408318 11.873725,38.3523682 13.3395272,38.3523682 C14.8062386,38.3523682 15.9947023,39.5408318 15.9947023,41.0075433" id="Fill-42" fill="#FDDC00" mask="url(#mask-2)"></path>
                    <path d="M15.9947023,4.80159326 C15.9947023,6.26739543 14.8062386,7.4567684 13.3395272,7.4567684 C11.873725,7.4567684 10.6852613,6.26739543 10.6852613,4.80159326 C10.6852613,3.3357911 11.873725,2.14641812 13.3395272,2.14641812 C14.8062386,2.14641812 15.9947023,3.3357911 15.9947023,4.80159326" id="Fill-43" fill="#FDDC00" mask="url(#mask-2)"></path>
                    <path d="M37.7329485,13.2068593 C37.7329485,14.6726615 38.9214122,15.8611252 40.3872144,15.8611252 C41.8539258,15.8611252 43.0423895,14.6726615 43.0423895,13.2068593 C43.0423895,11.7401479 41.8539258,10.5516842 40.3872144,10.5516842 C38.9214122,10.5516842 37.7329485,11.7401479 37.7329485,13.2068593" id="Fill-44" fill="#FDDC00" mask="url(#mask-2)"></path>
                    <path d="M20.0588479,2.65481142 C20.0588479,4.12152289 21.2473116,5.30998656 22.7140231,5.30998656 C24.1798253,5.30998656 25.3682889,4.12152289 25.3682889,2.65481142 C25.3682889,1.18809994 24.1798253,-0.000363722622 22.7140231,-0.000363722622 C21.2473116,-0.000363722622 20.0588479,1.18809994 20.0588479,2.65481142" id="Fill-45" fill="#FDDC00" mask="url(#mask-2)"></path>
                    <path d="M37.7329485,32.3375781 C37.7329485,33.8033802 38.9214122,34.9918439 40.3872144,34.9918439 C41.8539258,34.9918439 43.0423895,33.8033802 43.0423895,32.3375781 C43.0423895,30.8708666 41.8539258,29.6824029 40.3872144,29.6824029 C38.9214122,29.6824029 37.7329485,30.8708666 37.7329485,32.3375781" id="Fill-46" fill="#FDDC00" mask="url(#mask-2)"></path>
                    <path d="M40.1180596,22.45578 C40.1180596,23.9224915 41.3065233,25.1109552 42.7723255,25.1109552 C44.2390369,25.1109552 45.4275006,23.9224915 45.4275006,22.45578 C45.4275006,20.9899779 44.2390369,19.8006049 42.7723255,19.8006049 C41.3065233,19.8006049 40.1180596,20.9899779 40.1180596,22.45578" id="Fill-47" fill="#FDDC00" mask="url(#mask-2)"></path>
                    <path d="M29.4329802,41.0075433 C29.4329802,42.4742548 30.6214438,43.6627184 32.0881553,43.6627184 C33.5539575,43.6627184 34.7424211,42.4742548 34.7424211,41.0075433 C34.7424211,39.5408318 33.5539575,38.3523682 32.0881553,38.3523682 C30.6214438,38.3523682 29.4329802,39.5408318 29.4329802,41.0075433" id="Fill-48" fill="#FDDC00" mask="url(#mask-2)"></path>
                    <path d="M29.4329802,4.80159326 C29.4329802,6.26739543 30.6214438,7.4567684 32.0881553,7.4567684 C33.5539575,7.4567684 34.7424211,6.26739543 34.7424211,4.80159326 C34.7424211,3.3357911 33.5539575,2.14641812 32.0881553,2.14641812 C30.6214438,2.14641812 29.4329802,3.3357911 29.4329802,4.80159326" id="Fill-49" fill="#FDDC00" mask="url(#mask-2)"></path>
                </g>
            </g>
        </g>
    </g>
</svg>