<svg xmlns="http://www.w3.org/2000/svg" viewBox="0 0 290.58 98.19"><defs><style>.cls-1{fill:#472f92}.cls-2{fill:#0066b3}</style></defs><g id="Layer_3" data-name="Layer 3"><path class="cls-1" d="M855.11 389.91l.19.34-1.07-11.05a18.09 18.09 0 00-4.21-.85l-1.78 3.65a24.21 24.21 0 016.87 7.91zM825.47 410c4.83 0 8.92-2.39 12.27-9.11 1.91-4.11 8.56-18.58 8.56-18.58a21.23 21.23 0 00-10.3-3.85c2 4.23 4 8.48 5.38 11.41l-1.83 4c-1.73-3.77-4.73-10.37-7-15.47a21.72 21.72 0 00-3.9.61l-1.26 15.17c-.21 3.24 2.34 2.8 3 2.8.2 0 .15.38 0 .38h-8.75c-.22 0-.19-.38 0-.38.69 0 2.78.33 3.29-2.8.25-1.54.94-8 1.62-14.54-5 1.77-13.11 8-13.06 17.63.08 6.95 5.01 12.73 11.98 12.73zm21.4-28.91c.44-.94.87-1.88 1.29-2.8a22.84 22.84 0 00-5.25.75 21.94 21.94 0 012.2 1c.6.34 1.19.68 1.76 1.05z" transform="translate(-812.85 -330.6)"/><path class="cls-1" d="M857.57 380.62l1.91 16.73h-4.37a21.27 21.27 0 00-7.5-14s-6.51 13.48-8.7 18-5.88 9.36-13.47 9.36a14.52 14.52 0 01-9.61-3.74c5.82 13.14 25.88 21.86 25.88 21.86 39.76-19.42 25.34-38.91 23.95-41a23.53 23.53 0 00-8.09-7.21zm-4 26.36l-4-.06.14 9-1 .07-1-.07.14-9-3.85.08v-1.7l3.92.13-.07-4.91h1.87l-.07 4.91 4-.13zm39.2-25.7l-.6-.45c-1.76-1.34-2.25-2.09-2.25-3.07a2.24 2.24 0 012.53-2.19 2.7 2.7 0 012.32 1 2.61 2.61 0 01.56 1.41c0 .26.06.38.21.38s.23-.17.23-.64c0-1.66.09-2.28.09-2.55s-.11-.22-.3-.26a10.27 10.27 0 00-2.83-.36c-3 0-4.92 1.68-4.92 4 0 1.72.81 3.21 3.15 5.05l1 .76c1.77 1.39 2.09 2.37 2.09 3.41a2.59 2.59 0 01-2.86 2.43 2.92 2.92 0 01-3-2.15 4.36 4.36 0 01-.2-1.09c0-.17 0-.36-.21-.36s-.23.24-.25.55-.11 1.62-.11 2.8c0 .46.06.57.4.72a7.33 7.33 0 003.11.55 6.16 6.16 0 003.39-.87 4.28 4.28 0 002-3.71c-.06-1.95-.97-3.42-3.55-5.36zm18.75-6.54a4.34 4.34 0 00-.57.11 10.89 10.89 0 01-1.47.1H901c-.71 0-1.52 0-2.13-.1a5.33 5.33 0 01-.92-.26c-.13 0-.19.13-.26.4s-.44 2.11-.44 2.46 0 .34.19.34.19-.09.23-.26a2.63 2.63 0 01.37-.75c.32-.46.83-.57 2.06-.61l3.18-.09v8.74c0 2 0 3.64-.11 4.54-.06.61-.19 1.08-.62 1.17a3.6 3.6 0 01-.76.08c-.26 0-.35.07-.35.17s.15.22.43.22c.85 0 2.2-.07 2.69-.07s1.93.07 3.34.07c.24 0 .41-.07.41-.22s-.11-.17-.35-.17a9.63 9.63 0 01-1.08-.08c-.64-.09-.77-.56-.83-1.15-.11-.92-.11-2.6-.11-4.56v-8.74l2.69.07c1.89 0 2.47.63 2.51 1.19v.23c0 .32.07.43.24.43s.17-.13.19-.34c0-.56.06-2 .06-2.47s.04-.45-.11-.45zm23.18.15c-.64 0-1.64.06-2 .06s-1.17-.06-2.24-.06c-.4 0-.59 0-.59.21s.17.17.36.17a2.65 2.65 0 01.85.11.4.4 0 01.28.4 2.79 2.79 0 01-.19.79c-.51 1.41-3.28 8.27-4.2 10.61h-.09l-3.66-9.67a6.27 6.27 0 01-.49-1.64.52.52 0 01.21-.45 1.51 1.51 0 01.83-.15c.19 0 .32 0 .32-.19s-.23-.19-.49-.19c-1.06 0-2.09.06-2.62.06-.74 0-2-.06-3.09-.06-.32 0-.55 0-.55.19s.06.19.25.19a3.08 3.08 0 01.83.09c.77.21 1.13.44 1.62 1.62l5.37 13c.41 1 .54 1.29.81 1.29s.43-.34 1-1.57c.47-1.07 1.47-3.39 2.84-6.5 1.15-2.62 1.72-3.77 2.55-5.77.58-1.37.9-1.73 1.18-1.92a1.81 1.81 0 011-.26c.21 0 .34 0 .34-.19s-.13-.17-.43-.17zm7.61 15.72a9.63 9.63 0 01-1.09-.08c-.64-.09-.78-.47-.85-1-.08-.91-.08-2.6-.08-4.66v-8.27c0-.68.21-1.11.79-1.21a3 3 0 01.64-.07c.21 0 .34 0 .34-.21s-.17-.17-.45-.17c-.81 0-2.07.06-2.6.06s-2-.06-2.77-.06c-.34 0-.51 0-.51.17s.13.21.34.21a2.8 2.8 0 01.77.09c.47.1.68.47.72 1.19s0 1.28 0 4.52v3.75c0 2.06 0 3.75-.1 4.64-.07.62-.19 1-.62 1.07a3.71 3.71 0 01-.77.08c-.25 0-.34.07-.34.17s.15.22.43.22c.85 0 2.19-.07 2.68-.07s1.92.07 3.33.07c.23 0 .4-.07.4-.22s-.03-.22-.26-.22zm19.05-15.72c-1 0-1.85.06-2.09.06-.45 0-1.47-.06-2.58-.06-.32 0-.55 0-.55.19s.08.19.34.19a3.42 3.42 0 011.13.13c.51.21.7.62.72 1.92l.22 9.56h-.11c-.36-.34-3.24-3.41-4.69-4.85-3.11-3.09-6.35-6.57-6.6-6.84s-.56-.66-.79-.66-.28.29-.28.72l-.19 12.61c0 1.86-.11 2.48-.66 2.65a4 4 0 01-1 .1c-.21 0-.34.05-.34.17s.19.22.47.22c1.11 0 2.11-.07 2.3-.07.41 0 1.26.07 2.64.07.3 0 .49-.05.49-.22s-.13-.17-.36-.17a3.34 3.34 0 01-1.11-.15c-.42-.15-.7-.7-.74-2.36l-.24-9h.07c.38.4 2.74 3.07 5.07 5.37s4.94 5 6.28 6.26c.24.24.49.47.73.47s.27-.19.27-.66l.24-13.44c0-1.2.19-1.64.79-1.81a2.09 2.09 0 01.64-.07c.25 0 .38-.06.38-.19s-.17-.14-.45-.14zM977.19 387c-.17 0-.21.09-.28.43a3.57 3.57 0 01-.72 1.41c-.85 1-2 1.19-3.9 1.19-2.85 0-6.71-2.52-6.71-7.59 0-2.06.4-4.09 2-5.51a5.53 5.53 0 014-1.33 6.31 6.31 0 014.32 1.33 3 3 0 01.83 2c0 .29 0 .46.21.46s.24-.17.26-.49 0-1.59.06-2.3.11-1 .11-1.17-.09-.23-.32-.25c-.64-.07-1.32-.26-2.13-.37a22.28 22.28 0 00-3.09-.21c-3.17 0-5.2.85-6.73 2.26a8.42 8.42 0 00.15 12.12 10.61 10.61 0 007.3 2.32 12.07 12.07 0 003.84-.49.72.72 0 00.55-.61 19.38 19.38 0 00.47-2.84c-.03-.18-.07-.36-.22-.36zm12.23.76c-.15 0-.19.08-.23.32-.15.87-.41 1.32-1 1.57a5.31 5.31 0 01-2 .26c-2.18 0-2.52-.32-2.56-1.79v-4.99c0-.12 0-.21.13-.21.51 0 2.62 0 3 .07.79.08 1.09.4 1.2.83a5.79 5.79 0 01.08.76c0 .11 0 .2.19.2s.19-.24.19-.41.07-1 .09-1.43c.08-1.08.17-1.42.17-1.55s-.06-.17-.15-.17-.19.1-.34.27-.51.28-1 .32-2.94.05-3.41.05c-.13 0-.15-.09-.15-.24v-5.39c0-.15 0-.21.15-.21.42 0 2.66 0 3 .08 1.07.13 1.28.39 1.43.77a2.24 2.24 0 01.13.77c0 .19 0 .3.19.3s.19-.13.21-.24.09-1.19.11-1.41a12.29 12.29 0 01.17-1.38c0-.11 0-.19-.13-.19a2.37 2.37 0 00-.34.08 6.42 6.42 0 01-.91.13h-8.4c-.32 0-.47 0-.47.19s.13.19.36.19a3.87 3.87 0 01.84.07c.7.15.87.49.91 1.21s0 1.28 0 4.52v3.75c0 2 0 3.64-.1 4.54-.09.61-.19 1.08-.62 1.17a3.71 3.71 0 01-.77.08c-.25 0-.34.07-.34.17s.15.22.43.22 1-.05 1.47-.05h1.21c.64 0 1.3 0 2.22.07s2.09.06 3.68.06c.81 0 1 0 1.15-.55a16.34 16.34 0 00.28-2.37c.1-.27.1-.44-.07-.44zm19.01-12.87c-1 0-1.86.06-2.09.06-.45 0-1.47-.06-2.58-.06-.32 0-.55 0-.55.19s.08.19.34.19a3.42 3.42 0 011.13.13c.51.21.7.62.72 1.92l.22 9.56h-.11c-.36-.34-3.24-3.41-4.69-4.85-3.11-3.09-6.35-6.57-6.6-6.84s-.56-.66-.79-.66-.28.29-.28.72l-.15 12.61c0 1.86-.11 2.48-.66 2.65a4 4 0 01-1 .1c-.21 0-.34.05-.34.17s.19.22.47.22c1.11 0 2.11-.07 2.3-.07.4 0 1.26.07 2.64.07.3 0 .49-.05.49-.22s-.13-.17-.36-.17a3.34 3.34 0 01-1.11-.15c-.43-.15-.7-.7-.74-2.36l-.24-9h.06c.39.4 2.75 3.07 5.08 5.37s4.94 5 6.28 6.26c.24.24.49.47.73.47s.27-.19.27-.66l.24-13.44c0-1.2.19-1.64.79-1.81a2.06 2.06 0 01.63-.07c.26 0 .39-.06.39-.19s-.22-.14-.49-.14zm15.43-.15a4.07 4.07 0 00-.58.11 10.89 10.89 0 01-1.47.1h-8.44c-.7 0-1.51 0-2.13-.1a5.41 5.41 0 01-.91-.26c-.13 0-.2.13-.26.4s-.45 2.11-.45 2.46 0 .34.19.34.2-.09.24-.26a2.54 2.54 0 01.36-.75c.32-.46.83-.57 2.07-.61l3.17-.09v8.74c0 2 0 3.64-.1 4.54-.07.61-.2 1.08-.62 1.17a3.71 3.71 0 01-.77.08c-.25 0-.34.07-.34.17s.15.22.43.22c.85 0 2.19-.07 2.68-.07s1.94.07 3.35.07c.23 0 .4-.07.4-.22s-.11-.17-.34-.17a9.63 9.63 0 01-1.09-.08c-.64-.09-.76-.56-.83-1.15-.1-.92-.1-2.6-.1-4.56v-8.74l2.68.07c1.9 0 2.47.63 2.51 1.19v.23c0 .32.06.43.23.43s.17-.13.19-.34c0-.56.07-2 .07-2.47s0-.45-.14-.45zm3.06-.87a8.32 8.32 0 00-1.76-.41c-.11 0-.24.11-.24.17s0 .17.24.38a2.33 2.33 0 01.51 1.47 7.73 7.73 0 01-.83 3.33.67.67 0 00-.11.28.12.12 0 00.13.12.44.44 0 00.34-.17c1-1 2.34-3.26 2.34-4.56 0-.32-.08-.48-.62-.61zm6.42 7.41l-.6-.45c-1.77-1.34-2.26-2.09-2.26-3.07a2.25 2.25 0 012.54-2.19 2.71 2.71 0 012.32 1 2.57 2.57 0 01.55 1.41c0 .26.07.38.22.38s.23-.17.23-.64c0-1.66.09-2.28.09-2.55s-.11-.22-.3-.26a10.36 10.36 0 00-2.84-.36c-3 0-4.92 1.68-4.92 4 0 1.72.81 3.21 3.16 5.05l1 .76c1.77 1.39 2.08 2.37 2.08 3.41a2.58 2.58 0 01-2.85 2.43 2.94 2.94 0 01-3-2.15 4.81 4.81 0 01-.19-1.09c0-.17 0-.36-.21-.36s-.24.24-.26.55-.1 1.62-.1 2.8c0 .46.06.57.4.72a7.3 7.3 0 003.11.55 6.18 6.18 0 003.39-.87 4.3 4.3 0 002-3.71c-.07-1.95-.99-3.42-3.56-5.36z" transform="translate(-812.85 -330.6)"/></g><g id="Layer_2" data-name="Layer 2"><path class="cls-2" d="M828.71 377.85a24.42 24.42 0 013.34-.48l-2.79-6.13zm21.63-.16a23.73 23.73 0 013.79.57l-.68-7z" transform="translate(-812.85 -330.6)"/><path class="cls-2" d="M848.18 361.51a13.34 13.34 0 001.69-5.32c.39-3.73-1.08-6.6-2.54-9.35-1.34-2.5-2.42-5-1.91-8.32a21.19 21.19 0 00-2.45 3.89s-5.13-7.43-2.2-11.81c0 0-12.85 11.32-4.7 25.59h-23.22v33.35a24.23 24.23 0 0113.88-11.17c.77-7.5 1.49-14.79 1.49-14.79 0-.73.46-.67.87.18.18.39 3.2 6.81 6.4 13.59a25.63 25.63 0 016.29 1.27c.63-.18 1.27-.34 1.91-.48a24.38 24.38 0 014.78-.51c3.35-7.25 6.24-13.52 6.4-13.87.41-.85.87-.91.87-.18 0 0 .83 7.9 1.69 15.71a25.05 25.05 0 0113.13 12v-35.1h-19a25.9 25.9 0 01-3.38 5.32zm-2.49 1.81c-2.53 4.93-5.43 6-5.43 6a5 5 0 00-.6-5.81c-4.74-6.2.5-13.31.5-13.31a5.06 5.06 0 00.3 3.05c.45-2.62 2.9-6.71 3.19-7.1a9.37 9.37 0 001.42 6.19c1.57 2.92 3.14 6.05.62 10.98zM1058.42 387c-.17 0-.21.09-.28.43a3.57 3.57 0 01-.72 1.41c-.85 1-2 1.19-3.9 1.19-2.85 0-6.71-2.51-6.71-7.59a7.12 7.12 0 012-5.52 5.56 5.56 0 014-1.32 6.39 6.39 0 014.33 1.32 3.06 3.06 0 01.83 2c0 .29 0 .46.21.46s.24-.17.26-.49 0-1.59.06-2.3.11-1 .11-1.17-.08-.23-.32-.25c-.64-.07-1.32-.26-2.13-.37a22.28 22.28 0 00-3.09-.21c-3.17 0-5.2.85-6.73 2.26a8.42 8.42 0 00.15 12.12 10.61 10.61 0 007.3 2.32 12.39 12.39 0 003.84-.48.75.75 0 00.55-.62 19.38 19.38 0 00.47-2.84c-.04-.17-.08-.35-.23-.35zm17.79 3.61a5 5 0 01-.89-.08c-.45-.11-1.07-.41-1.88-2.32-1.36-3.24-4.77-11.94-5.28-13.11-.22-.49-.34-.68-.53-.68s-.34.23-.6.85l-5.35 13.38c-.42 1.07-.83 1.79-1.81 1.92h-.66c-.19 0-.26.05-.26.17s.13.22.41.22c1.11 0 2.28-.07 2.51-.07.66 0 1.58.07 2.26.07.24 0 .36-.05.36-.22s-.06-.17-.32-.17h-.32c-.66 0-.85-.27-.85-.66a4.31 4.31 0 01.32-1.3l1.15-3c0-.13.09-.17.19-.17h4.76a.2.2 0 01.21.14l1.7 4.52a.34.34 0 01-.19.49c-.21 0-.3.07-.3.19s.26.15.64.17c1.71.05 3.26.05 4 .05s1-.05 1-.22-.1-.17-.27-.17zm-7.2-6.24h-3.92c-.08 0-.11-.06-.08-.15l2-5.24c0-.09.07-.19.13-.19s.09.1.11.19l1.92 5.26c-.03.07-.05.13-.17.13zm34.24 3.39c-.15 0-.19.08-.23.32-.15.87-.41 1.32-1 1.57a5.33 5.33 0 01-2 .26c-2.18 0-2.52-.32-2.56-1.79v-4.99c0-.12 0-.21.13-.21.51 0 2.62 0 3 .07.79.08 1.09.4 1.2.83a5.79 5.79 0 01.08.76c0 .11 0 .19.19.19s.19-.23.19-.4.07-1 .09-1.43c.08-1.08.17-1.43.17-1.55s-.06-.17-.15-.17-.19.1-.34.27-.51.28-1 .32-2.94.05-3.41.05c-.13 0-.15-.09-.15-.24v-5.39c0-.15 0-.21.15-.21.42 0 2.66 0 3 .08 1.07.13 1.28.39 1.43.77a2.24 2.24 0 01.13.77c0 .19 0 .3.19.3s.19-.13.21-.24.09-1.19.11-1.41a12.29 12.29 0 01.17-1.38c0-.11 0-.19-.13-.19a2.37 2.37 0 00-.34.08 6.42 6.42 0 01-.91.13h-8.4c-.32 0-.47 0-.47.19s.13.19.36.19a3.87 3.87 0 01.84.07c.7.15.87.49.91 1.21s0 1.28 0 4.52v3.75c0 2 0 3.64-.1 4.54-.09.61-.19 1.08-.62 1.17a3.71 3.71 0 01-.77.08h-.19a3.67 3.67 0 01-.6-.06 4.18 4.18 0 01-2.38-1.45c-1.26-1.32-2.73-3.22-4.63-5.6 2.16-1.75 2.82-3.2 2.82-4.78a3.74 3.74 0 00-1.45-2.92 6.88 6.88 0 00-3.92-.91c-.66 0-2.28.06-3 .06-.44 0-1.79-.06-2.92-.06-.32 0-.46 0-.46.19s.12.19.36.19a3.77 3.77 0 01.83.07c.7.15.87.49.91 1.21s0 1.28 0 4.52v3.75c0 2 0 3.64-.11 4.54-.08.61-.19 1.08-.62 1.17a3.6 3.6 0 01-.76.08c-.26 0-.35.07-.35.17s.15.22.43.22c.85 0 2.2-.07 2.6-.07s1.9.07 3.13.07c.28 0 .43-.07.43-.22s-.09-.17-.26-.17-.72 0-1-.08c-.64-.09-.77-.56-.83-1.17-.11-.9-.11-2.58-.11-4.56v-.3a.15.15 0 01.17-.17h1.86a.45.45 0 01.38.15c.28.32 1.26 1.77 2.11 2.94a10.19 10.19 0 002.92 3.13 4.29 4.29 0 002.28.41h2a.73.73 0 00.23 0 .54.54 0 00.2 0c.42 0 1-.05 1.47-.05h1.21c.64 0 1.3 0 2.22.07s2.09.06 3.68.06c.81 0 1 0 1.16-.55a17.88 17.88 0 00.27-2.37c.12-.23.12-.4-.05-.4zm-18.68-4.76a2.19 2.19 0 01-1.52.36 5.62 5.62 0 01-1.62-.22c-.15-.06-.19-.14-.19-.38v-6.48c0-.17 0-.25.19-.3a5 5 0 011.13-.08c1.26 0 3.26.87 3.26 3.9a3.79 3.79 0 01-1.25 3.2z" transform="translate(-812.85 -330.6)"/></g></svg>