<?xml version="1.0" encoding="UTF-8"?>
<svg width="198px" height="66px" viewBox="0 0 198 66" version="1.1" xmlns="http://www.w3.org/2000/svg" xmlns:xlink="http://www.w3.org/1999/xlink">
    <title>543F7842-EDA6-41E5-8720-45F03193FD09</title>
    <defs>
        <polygon id="path-1" points="0 66 197.418585 66 197.418585 0 0 0"></polygon>
    </defs>
    <g id="Page-1" stroke="none" stroke-width="1" fill="none" fill-rule="evenodd">
        <g id="01-01-Homepage" transform="translate(-120.000000, -49.000000)">
            <g id="LS_Logo" transform="translate(120.000000, 49.000000)">
                <polygon id="Fill-1" fill="#414042" points="82.5006799 10.4225031 82.5006799 27.4180206 91.1354822 27.4180206 91.1354822 30.6046235 78.8345001 30.6046235 78.8345001 10.4225031"></polygon>
                <g id="Group-50">
                    <path d="M103.229796,27.6921078 C102.544427,29.9878519 101.002347,31.0156031 98.3642206,31.0156031 C95.4858524,31.0156031 93.5669403,29.5424226 93.5669403,25.8076454 L93.5669403,14.7743541 L97.164825,14.7743541 L97.164825,25.0536792 C97.164825,27.2466784 97.9529388,28.3430269 99.7688038,28.3430269 C101.447776,28.3430269 103.161199,26.9042961 103.161199,23.8545857 L103.161199,14.7743541 L106.759083,14.7743541 L106.759083,30.6046235 L103.674923,30.6046235 L103.229796,27.6921078 Z" id="Fill-2" fill="#414042"></path>
                    <path d="M120.909353,30.0562982 C119.778555,30.7075195 118.339522,31.0157542 116.729146,31.0157542 C113.782483,31.0157542 111.966316,29.5081239 111.966316,26.3556686 L111.966316,17.5839738 L109.670572,17.5839738 L109.670572,14.774203 L111.966316,14.774203 L111.966316,11.4165601 L115.598046,10.9708285 L115.598046,14.774203 L120.292581,14.774203 L120.292581,17.5839738 L115.563898,17.5839738 L115.563898,25.6020045 C115.563898,27.2809771 116.283717,27.9660438 117.585857,27.9660438 C118.613609,27.9660438 119.367273,27.6578091 120.258434,27.0413397 L120.909353,30.0562982 Z" id="Fill-4" fill="#414042"></path>
                    <path d="M126.870612,17.7896147 C127.624276,15.4938706 129.303551,14.3972198 131.70204,14.3972198 C134.237421,14.3972198 136.46487,15.836555 136.46487,19.3313926 L136.46487,30.6046235 L132.866986,30.6046235 L132.866986,20.4963385 C132.866986,18.6463259 132.113019,17.4469302 130.297154,17.4469302 C128.549584,17.4469302 126.870612,18.4063863 126.870612,21.6271367 L126.870612,30.6046235 L123.272727,30.6046235 L123.272727,7.71547721 L126.870612,7.71547721 L126.870612,17.7896147 Z" id="Fill-6" fill="#414042"></path>
                    <path d="M149.587298,21.0448753 C149.621445,20.8390834 149.621445,20.6335936 149.621445,20.4278016 C149.621445,18.6119365 148.456197,17.1384538 146.503138,17.1384538 C144.413186,17.1384538 143.076898,18.6119365 142.836958,21.0448753 L149.587298,21.0448753 Z M149.895533,25.7732561 L153.01384,26.6985646 C152.294022,29.919315 149.587298,31.0156636 146.537588,31.0156636 C142.220186,31.0156636 139.273523,28.0690003 139.273523,22.8607404 C139.273523,17.515588 142.117441,14.3972803 146.674782,14.3972803 C150.889136,14.3972803 153.082135,17.2411987 153.082135,21.2503651 C153.082135,22.0726265 152.945243,22.8607404 152.808048,23.3747671 L142.734213,23.3747671 C142.871106,26.252833 144.207394,28.2058927 146.674782,28.2058927 C148.25101,28.2058927 149.381506,27.5894233 149.895533,25.7732561 L149.895533,25.7732561 Z" id="Fill-8" fill="#414042"></path>
                    <path d="M165.656177,18.4405641 C165.21105,18.3036716 164.697023,18.2347721 164.114399,18.2347721 C162.024447,18.2347721 159.865596,19.708557 159.865596,22.8607101 L159.865596,30.6046537 L156.267711,30.6046537 L156.267711,14.7743843 L159.317119,14.7743843 L159.762851,19.0914833 C160.41377,16.2817124 162.229635,14.22621 165.998862,14.4313976 L165.656177,18.4405641 Z" id="Fill-10" fill="#414042"></path>
                    <path d="M176.003646,23.7172702 C172.097527,23.6148275 170.487152,24.5398338 170.487152,26.3215512 C170.487152,27.4864971 171.275266,28.377658 172.748748,28.377658 C174.256379,28.377658 176.003646,27.5209469 176.003646,25.7730748 L176.003646,23.7172702 Z M179.567384,26.5273432 C179.567384,27.6578393 180.08141,27.966074 180.732329,27.966074 C181.109161,27.966074 181.417698,27.8977789 181.657638,27.795034 L181.657638,30.5017577 C181.143611,30.7416973 180.49239,30.8785898 179.669826,30.8785898 C177.785666,30.8785898 176.620418,30.0907781 176.243586,28.3429061 C175.455472,30.3307177 173.673755,31.0157844 171.5835,31.0157844 C168.807877,31.0157844 166.889267,29.4054092 166.889267,26.6983833 C166.889267,23.2032435 169.630441,21.2160363 176.003646,21.524271 L176.003646,19.7428557 C176.003646,17.9608361 175.010043,17.207172 173.468265,17.207172 C171.926185,17.207172 171.000876,18.063581 170.898131,19.6739562 L167.403294,19.0916343 C167.643233,15.7336892 170.555749,14.3974012 173.708204,14.3974012 C177.099995,14.3974012 179.567384,15.8022866 179.567384,19.3998691 L179.567384,26.5273432 Z" id="Fill-12" fill="#414042"></path>
                    <path d="M187.584326,17.8238227 C188.441038,15.4597834 190.256903,14.3972803 192.655694,14.3972803 C195.191075,14.3972803 197.418524,15.8366155 197.418524,19.331453 L197.418524,30.604684 L193.82064,30.604684 L193.82064,20.5305465 C193.82064,18.6463863 193.066673,17.4469907 191.250808,17.4469907 C189.503238,17.4469907 187.824266,18.4064467 187.824266,21.6616469 L187.824266,30.604684 L184.226381,30.604684 L184.226381,14.7741123 L187.138897,14.7741123 L187.584326,17.8238227 Z" id="Fill-14" fill="#414042"></path>
                    <path d="M80.3418887,51.9821506 C80.7187207,54.3120423 82.2949484,55.4769882 84.3852027,55.4769882 C86.3382624,55.4769882 87.7090003,54.620277 87.7090003,52.9071569 C87.7090003,51.2626341 86.8864367,50.5086678 83.8028809,49.4123193 C80.1705465,48.1784739 77.7034601,46.7397431 77.7034601,43.0732611 C77.7034601,38.75586 81.0614052,37.2482297 84.3510551,37.2482297 C88.1888794,37.2482297 91.1010929,38.6872627 91.4782271,42.5247847 L87.8458927,43.3473483 C87.6404029,41.2570939 86.2355175,40.2290405 84.4196525,40.2290405 C82.7062302,40.2290405 81.472687,41.0857517 81.472687,42.7988718 C81.472687,44.615039 82.91172,45.2318106 85.5501486,46.1571191 C89.0452883,47.3565147 91.4782271,48.6583531 91.4782271,52.4620297 C91.4782271,56.5733367 88.1888794,58.286759 84.1797129,58.286759 C80.2049962,58.286759 77.7379098,56.8132763 76.9494938,53.1470964 L80.3418887,51.9821506 Z" id="Fill-16" fill="#414042"></path>
                    <path d="M103.881017,48.3158499 C103.915165,48.1100579 103.915165,47.9045681 103.915165,47.6987761 C103.915165,45.8829111 102.750219,44.4094284 100.796857,44.4094284 C98.7069051,44.4094284 97.370617,45.8829111 97.1306774,48.3158499 L103.881017,48.3158499 Z M104.189252,53.0442307 L107.30756,53.9695392 C106.587741,57.1902896 103.881017,58.2866381 100.831307,58.2866381 C96.5139058,58.2866381 93.5672425,55.3399748 93.5672425,50.1317149 C93.5672425,44.7865626 96.4111609,41.6682548 100.968502,41.6682548 C105.182856,41.6682548 107.375855,44.5121733 107.375855,48.5213397 C107.375855,49.3436011 107.238962,50.1317149 107.101768,50.6457416 L97.0279325,50.6457416 C97.164825,53.5238076 98.5011131,55.4768673 100.968502,55.4768673 C102.544729,55.4768673 103.675225,54.8603979 104.189252,53.0442307 L104.189252,53.0442307 Z" id="Fill-18" fill="#414042"></path>
                    <path d="M120.258131,45.7115084 C119.813004,45.574616 119.298978,45.5057164 118.716354,45.5057164 C116.626401,45.5057164 114.46755,46.9795014 114.46755,50.1316545 L114.46755,57.8755981 L110.869665,57.8755981 L110.869665,42.0453286 L113.919073,42.0453286 L114.364805,46.3624276 C115.015724,43.5526568 116.831589,41.4971544 120.600816,41.702342 L120.258131,45.7115084 Z" id="Fill-20" fill="#414042"></path>
                    <path d="M121.970496,42.0452078 L125.842166,42.0452078 L128.377849,50.2345807 C129.26901,53.1129489 129.543097,55.3059481 129.543097,55.3059481 L129.67999,55.3059481 C129.67999,55.3059481 129.954077,53.1129489 130.845238,50.2690305 L133.380619,42.0452078 L137.115397,42.0452078 L131.564452,57.8757794 L127.486991,57.8757794 L121.970496,42.0452078 Z" id="Fill-22" fill="#414042"></path>
                    <mask id="mask-2" fill="white">
                        <use xlink:href="#path-1"></use>
                    </mask>
                    <g id="Clip-25"></g>
                    <path d="M139.684412,57.8755981 L143.282297,57.8755981 L143.282297,42.0450264 L139.684412,42.0450264 L139.684412,57.8755981 Z M141.466129,34.780962 C142.802418,34.780962 143.830169,35.6376731 143.830169,37.0425585 C143.830169,38.3788466 142.802418,39.3041551 141.466129,39.3041551 C140.198439,39.3041551 139.170385,38.3788466 139.170385,37.0425585 C139.170385,35.6376731 140.198439,34.780962 141.466129,34.780962 L141.466129,34.780962 Z" id="Fill-24" fill="#414042" mask="url(#mask-2)"></path>
                    <path d="M159.625958,53.7982271 C159.077784,56.98483 156.473503,58.2866683 153.252752,58.2866683 C148.969801,58.2866683 146.057285,55.340005 146.057285,50.0631478 C146.057285,44.7865928 148.969801,41.6682851 153.424095,41.6682851 C156.919234,41.6682851 159.180831,43.5185998 159.420468,46.7052027 L156.233866,47.4247192 C155.994228,45.5402569 155.000322,44.5466532 153.32135,44.5466532 C150.854263,44.5466532 149.517673,46.7738001 149.517673,50.0290003 C149.517673,53.2838983 151.025606,55.4768975 153.458544,55.4768975 C154.965873,55.4768975 156.028376,54.7232334 156.507953,52.9070662 L159.625958,53.7982271 Z" id="Fill-26" fill="#414042" mask="url(#mask-2)"></path>
                    <path d="M171.789232,48.3158499 C171.82338,48.1100579 171.82338,47.9045681 171.82338,47.6987761 C171.82338,45.8829111 170.658434,44.4094284 168.705072,44.4094284 C166.61512,44.4094284 165.278832,45.8829111 165.038892,48.3158499 L171.789232,48.3158499 Z M172.097467,53.0442307 L175.215774,53.9695392 C174.495956,57.1902896 171.789232,58.2866381 168.739522,58.2866381 C164.42212,58.2866381 161.475457,55.3399748 161.475457,50.1317149 C161.475457,44.7865626 164.319375,41.6682548 168.876716,41.6682548 C173.09107,41.6682548 175.28407,44.5121733 175.28407,48.5213397 C175.28407,49.3436011 175.147177,50.1317149 175.009982,50.6457416 L164.936147,50.6457416 C165.07304,53.5238076 166.409328,55.4768673 168.876716,55.4768673 C170.452944,55.4768673 171.58344,54.8603979 172.097467,53.0442307 L172.097467,53.0442307 Z" id="Fill-27" fill="#414042" mask="url(#mask-2)"></path>
                    <path d="M180.52545,53.2156636 C180.799537,54.997381 182.06753,55.7513473 183.848945,55.7513473 C185.459622,55.7513473 186.658716,55.1342735 186.658716,53.8665827 C186.658716,52.7016369 186.076394,52.0845631 184.328824,51.6735835 L181.998932,51.1254092 C179.155014,50.4058927 178.024216,48.8982624 178.024216,46.5680685 C178.024216,42.8332914 181.039476,41.6683455 184.123334,41.6683455 C187.618172,41.6683455 189.742876,42.9360363 190.016963,46.0198942 L186.590421,46.431176 C186.453528,44.9576933 185.562367,44.3409217 183.917844,44.3409217 C182.410214,44.3409217 181.484906,45.0262906 181.484906,46.1912365 C181.484906,47.2192899 181.930335,47.8360614 183.437965,48.1784437 L185.630964,48.6583228 C188.577628,49.3436918 190.153855,50.7827248 190.153855,53.558348 C190.153855,56.9848905 187.378232,58.2867288 183.78065,58.2867288 C180.08002,58.2867288 177.955618,57.1900781 177.441592,54.2775623 L180.52545,53.2156636 Z" id="Fill-28" fill="#414042" mask="url(#mask-2)"></path>
                    <path d="M26.0000201,32.2194712 C26.0000201,35.8590582 28.9503097,38.8093478 32.5898968,38.8093478 C36.2294838,38.8093478 39.1800755,35.8590582 39.1800755,32.2194712 C39.1800755,28.5798842 36.2294838,25.6295946 32.5898968,25.6295946 C28.9503097,25.6295946 26.0000201,28.5798842 26.0000201,32.2194712" id="Fill-29" fill="#F57E20" mask="url(#mask-2)"></path>
                    <path d="M37.6161471,17.0560766 C37.6161471,19.832002 35.3657316,22.0821153 32.5901083,22.0821153 C29.8141828,22.0821153 27.5637673,19.832002 27.5637673,17.0560766 C27.5637673,14.2801511 29.8141828,12.0300378 32.5901083,12.0300378 C35.3657316,12.0300378 37.6161471,14.2801511 37.6161471,17.0560766" id="Fill-30" fill="#FAA41A" mask="url(#mask-2)"></path>
                    <path d="M37.6161471,60.9738403 C37.6161471,63.7497658 35.3657316,65.9998791 32.5901083,65.9998791 C29.8141828,65.9998791 27.5637673,63.7497658 27.5637673,60.9738403 C27.5637673,58.1979149 29.8141828,55.9478016 32.5901083,55.9478016 C35.3657316,55.9478016 37.6161471,58.1979149 37.6161471,60.9738403" id="Fill-31" fill="#FAA41A" mask="url(#mask-2)"></path>
                    <path d="M37.6161471,47.382896 C37.6161471,50.1588215 35.3657316,52.4089348 32.5901083,52.4089348 C29.8141828,52.4089348 27.5637673,50.1588215 27.5637673,47.382896 C27.5637673,44.6069705 29.8141828,42.3568572 32.5901083,42.3568572 C35.3657316,42.3568572 37.6161471,44.6069705 37.6161471,47.382896" id="Fill-32" fill="#FAA41A" mask="url(#mask-2)"></path>
                    <path d="M21.9586704,32.2194712 C21.9586704,34.9953966 19.7082548,37.2455099 16.9326316,37.2455099 C14.1567061,37.2455099 11.9062906,34.9953966 11.9062906,32.2194712 C11.9062906,29.4435457 14.1567061,27.1934324 16.9326316,27.1934324 C19.7082548,27.1934324 21.9586704,29.4435457 21.9586704,32.2194712" id="Fill-33" fill="#FAA41A" mask="url(#mask-2)"></path>
                    <path d="M43.2212742,32.2194712 C43.2212742,34.9953966 45.4716898,37.2455099 48.247313,37.2455099 C51.0232385,37.2455099 53.273654,34.9953966 53.273654,32.2194712 C53.273654,29.4435457 51.0232385,27.1934324 48.247313,27.1934324 C45.4716898,27.1934324 43.2212742,29.4435457 43.2212742,32.2194712" id="Fill-34" fill="#FAA41A" mask="url(#mask-2)"></path>
                    <path d="M22.9494636,18.9490909 C22.9494636,21.0529438 21.2438983,22.758207 19.1403475,22.758207 C17.0364946,22.758207 15.3309292,21.0529438 15.3309292,18.9490909 C15.3309292,16.845238 17.0364946,15.1399748 19.1403475,15.1399748 C21.2438983,15.1399748 22.9494636,16.845238 22.9494636,18.9490909" id="Fill-35" fill="#DBE120" mask="url(#mask-2)"></path>
                    <path d="M22.9494636,46.2918962 C22.9494636,48.3957492 21.2438983,50.1010123 19.1403475,50.1010123 C17.0364946,50.1010123 15.3309292,48.3957492 15.3309292,46.2918962 C15.3309292,44.1880433 17.0364946,42.4827802 19.1403475,42.4827802 C21.2438983,42.4827802 22.9494636,44.1880433 22.9494636,46.2918962" id="Fill-36" fill="#DBE120" mask="url(#mask-2)"></path>
                    <path d="M42.2305112,18.9490909 C42.2305112,21.0529438 43.9360766,22.758207 46.0396273,22.758207 C48.1434802,22.758207 49.8490456,21.0529438 49.8490456,18.9490909 C49.8490456,16.845238 48.1434802,15.1399748 46.0396273,15.1399748 C43.9360766,15.1399748 42.2305112,16.845238 42.2305112,18.9490909" id="Fill-37" fill="#DBE120" mask="url(#mask-2)"></path>
                    <path d="M42.2305112,46.2918962 C42.2305112,48.3957492 43.9360766,50.1010123 46.0396273,50.1010123 C48.1434802,50.1010123 49.8490456,48.3957492 49.8490456,46.2918962 C49.8490456,44.1880433 48.1434802,42.4827802 46.0396273,42.4827802 C43.9360766,42.4827802 42.2305112,44.1880433 42.2305112,46.2918962" id="Fill-38" fill="#DBE120" mask="url(#mask-2)"></path>
                    <path d="M11.0406648,18.9490909 C11.0406648,21.0529438 9.33509947,22.758207 7.23154873,22.758207 C5.12769579,22.758207 3.42213045,21.0529438 3.42213045,18.9490909 C3.42213045,16.845238 5.12769579,15.1399748 7.23154873,15.1399748 C9.33509947,15.1399748 11.0406648,16.845238 11.0406648,18.9490909" id="Fill-39" fill="#FFDD00" mask="url(#mask-2)"></path>
                    <path d="M11.0406648,46.397512 C11.0406648,48.5013649 9.33509947,50.2066281 7.23154873,50.2066281 C5.12769579,50.2066281 3.42213045,48.5013649 3.42213045,46.397512 C3.42213045,44.293659 5.12769579,42.5883959 7.23154873,42.5883959 C9.33509947,42.5883959 11.0406648,44.293659 11.0406648,46.397512" id="Fill-40" fill="#FFDD00" mask="url(#mask-2)"></path>
                    <path d="M7.6184135,32.2194712 C7.6184135,34.3233241 5.91284815,36.0285873 3.80929741,36.0285873 C1.70544447,36.0285873 -0.000120876354,34.3233241 -0.000120876354,32.2194712 C-0.000120876354,30.1156182 1.70544447,28.4103551 3.80929741,28.4103551 C5.91284815,28.4103551 7.6184135,30.1156182 7.6184135,32.2194712" id="Fill-41" fill="#FFDD00" mask="url(#mask-2)"></path>
                    <path d="M22.9494636,58.8374415 C22.9494636,60.9412944 21.2438983,62.6465575 19.1403475,62.6465575 C17.0364946,62.6465575 15.3309292,60.9412944 15.3309292,58.8374415 C15.3309292,56.7335885 17.0364946,55.0283254 19.1403475,55.0283254 C21.2438983,55.0283254 22.9494636,56.7335885 22.9494636,58.8374415" id="Fill-42" fill="#FFDD00" mask="url(#mask-2)"></path>
                    <path d="M22.9494636,6.88949887 C22.9494636,8.9933518 21.2438983,10.698615 19.1403475,10.698615 C17.0364946,10.698615 15.3309292,8.9933518 15.3309292,6.88949887 C15.3309292,4.78564593 17.0364946,3.08038278 19.1403475,3.08038278 C21.2438983,3.08038278 22.9494636,4.78564593 22.9494636,6.88949887" id="Fill-43" fill="#FFDD00" mask="url(#mask-2)"></path>
                    <path d="M54.1392798,18.9490909 C54.1392798,21.0529438 55.8448451,22.758207 57.9483959,22.758207 C60.0522488,22.758207 61.7578142,21.0529438 61.7578142,18.9490909 C61.7578142,16.845238 60.0522488,15.1399748 57.9483959,15.1399748 C55.8448451,15.1399748 54.1392798,16.845238 54.1392798,18.9490909" id="Fill-44" fill="#FFDD00" mask="url(#mask-2)"></path>
                    <path d="M28.7807807,3.80923697 C28.7807807,5.9130899 30.486346,7.61835306 32.5898968,7.61835306 C34.6937497,7.61835306 36.399315,5.9130899 36.399315,3.80923697 C36.399315,1.70538403 34.6937497,0.000120876354 32.5898968,0.000120876354 C30.486346,0.000120876354 28.7807807,1.70538403 28.7807807,3.80923697" id="Fill-45" fill="#FFDD00" mask="url(#mask-2)"></path>
                    <path d="M54.1392798,46.397512 C54.1392798,48.5013649 55.8448451,50.2066281 57.9483959,50.2066281 C60.0522488,50.2066281 61.7578142,48.5013649 61.7578142,46.397512 C61.7578142,44.293659 60.0522488,42.5883959 57.9483959,42.5883959 C55.8448451,42.5883959 54.1392798,44.293659 54.1392798,46.397512" id="Fill-46" fill="#FFDD00" mask="url(#mask-2)"></path>
                    <path d="M57.5615613,32.2194712 C57.5615613,34.3233241 59.2671267,36.0285873 61.3706774,36.0285873 C63.4745303,36.0285873 65.1800957,34.3233241 65.1800957,32.2194712 C65.1800957,30.1156182 63.4745303,28.4103551 61.3706774,28.4103551 C59.2671267,28.4103551 57.5615613,30.1156182 57.5615613,32.2194712" id="Fill-47" fill="#FFDD00" mask="url(#mask-2)"></path>
                    <path d="M42.2305112,58.8374415 C42.2305112,60.9412944 43.9360766,62.6465575 46.0396273,62.6465575 C48.1434802,62.6465575 49.8490456,60.9412944 49.8490456,58.8374415 C49.8490456,56.7335885 48.1434802,55.0283254 46.0396273,55.0283254 C43.9360766,55.0283254 42.2305112,56.7335885 42.2305112,58.8374415" id="Fill-48" fill="#FFDD00" mask="url(#mask-2)"></path>
                    <path d="M42.2305112,6.88949887 C42.2305112,8.9933518 43.9360766,10.698615 46.0396273,10.698615 C48.1434802,10.698615 49.8490456,8.9933518 49.8490456,6.88949887 C49.8490456,4.78564593 48.1434802,3.08038278 46.0396273,3.08038278 C43.9360766,3.08038278 42.2305112,4.78564593 42.2305112,6.88949887" id="Fill-49" fill="#FFDD00" mask="url(#mask-2)"></path>
                </g>
            </g>
        </g>
    </g>
</svg>